<?xml version="1.0" standalone="no"?>
<svg
  width="600"
  height="600"
  viewBox="0 0 600 600"
  xmlns="http://www.w3.org/2000/svg"
>
  <g transform="translate(300,300)">
    <path d="M127.6,-182.7C164,-175.1,191.1,-137.4,194.1,-98.2C197,-59.1,175.7,-18.4,154.7,11.5C133.7,41.4,112.9,60.7,95.4,84.9C77.9,109.2,63.6,138.6,39.1,156.4C14.6,174.3,-20.2,180.7,-41.9,164.4C-63.6,148.1,-72.2,109.1,-109.6,84.6C-147,60.1,-213,50.1,-233.4,23C-253.7,-4.1,-228.3,-48.4,-196.6,-78.2C-165,-108,-127.1,-123.4,-93.3,-132.1C-59.5,-140.9,-29.7,-142.9,7.9,-155.3C45.6,-167.6,91.2,-190.2,127.6,-182.7Z" fill="#2f9e41" />
  </g>
</svg>
    