<?xml version="1.0" standalone="no"?>
<svg
  width="600"
  height="600"
  viewBox="0 0 600 600"
  xmlns="http://www.w3.org/2000/svg"
>
  <g transform="translate(300,300)">
    <path d="M111.3,-190.6C135.4,-157.7,140,-111.9,151.6,-73.2C163.1,-34.5,181.5,-2.9,188.5,35.1C195.5,73.1,191.1,117.4,168.9,150.5C146.7,183.6,106.7,205.5,65.7,212.5C24.6,219.4,-17.6,211.4,-62.8,203.1C-108.1,194.8,-156.4,186.1,-179,156.9C-201.5,127.7,-198.3,77.8,-193.8,34.7C-189.4,-8.4,-183.9,-44.9,-165.9,-72.2C-147.9,-99.4,-117.5,-117.4,-87.7,-147.7C-58,-178,-29,-220.5,7.3,-231.8C43.6,-243.2,87.2,-223.4,111.3,-190.6Z" fill="#2f9e41" />
  </g>
</svg>
    