<?xml version="1.0" standalone="no"?>
<svg
  width="600"
  height="600"
  viewBox="0 0 600 600"
  xmlns="http://www.w3.org/2000/svg"
>
  <g transform="translate(300,300)">
    <path d="M123.8,-193.2C166.1,-165.4,209.9,-140.6,226.3,-103.7C242.8,-66.7,231.7,-17.5,208.1,18C184.4,53.5,148.1,75.2,119.5,97.7C90.9,120.3,70,143.6,39.3,168.2C8.7,192.9,-31.6,218.8,-62.8,210.9C-94,203.1,-116.1,161.4,-149,127.1C-181.9,92.8,-225.6,65.8,-246,25.9C-266.5,-13.9,-263.8,-66.6,-245.5,-114.4C-227.2,-162.2,-193.3,-205.2,-149.8,-232.5C-106.3,-259.8,-53.2,-271.4,-6.2,-261.7C40.7,-252,81.5,-221.1,123.8,-193.2Z" fill="#2f9e41" />
  </g>
</svg>
    