<?xml version="1.0" encoding="utf-8"?>
<!-- Generator: Adobe Illustrator 22.1.0, SVG Export Plug-In . SVG Version: 6.00 Build 0)  -->
<svg version="1.1" id="Calque_1" xmlns="http://www.w3.org/2000/svg" xmlns:xlink="http://www.w3.org/1999/xlink" x="0px" y="0px"
	 viewBox="0 0 609.4 608.2" style="enable-background:new 0 0 609.4 608.2;" xml:space="preserve">
<style type="text/css">
	.st0{fill:#CCCCCC;stroke:#FFFFFF;stroke-width:0.5;}
	.st1{fill:#006E13;}
	.st2{fill:#037F3C;}
	.st3{fill:#FFFFFF;stroke:#000000;stroke-width:0.25;stroke-miterlimit:10;}
	.st4{fill:#66D06E;}
	.st5{font-family:'Rubik-Light';}
	.st6{font-size:12px;}
	.st7{fill:#FFFFFF;}
	.st8{letter-spacing:-1;}
</style>
<title>mapFrance</title>
<g>
	<path id="FR-A" class="st0" d="M470.7,218.8l3.2-1.6l-0.9-2.3l1.3-1.1l-0.6-0.5l1.2-4.6l2.2-1.3l2.9-5l-0.6-2l5.3-9.4l-0.7-1.6
		l-2.4,0.4l-1.6-1.1l1.2-1.5l-0.9-1.2l1.2-4.4l-1-1.6l1.6,0.4l-2.6-1.6l3.8-0.2l2-1.5l3.3-6.1l-1.5-0.1l-0.9-1.7l2.7-4.3l-2.5-2.4
		l0.5-0.8l-4-1.4l-1,2.5l-1.8,1l0.5-1.6l-1.4-0.3v-1.6l1.6-1.1l-1.7,0.2l-0.1-0.9l-3.6-1.1l-0.4-2.3h1.3l0.5-1.6l1.6,0.3l1.4-6.3
		l1.2-0.7l1.1,4.1l6.4,1.8l-0.1,1l1.4,0.7l4.7-1.5l3.2,2.1l1.6-1.5l2.2-5.6l0,0l3.6-0.2l0.1,0.7l2.2-1.3l2.7,1.8l2.6-1.4l6,3.9
		l5.3,1.4l-3.2,3.6l-2.3,5.8l-4.5,2.6l-0.3,2l-4.7,4.7l-1.5,3.3l0.2,3.9l-1.5,1.4l-1.4,5.5l0.5,3.8l-1.9,1.5l-1,4.6l-3.4,5.7
		l-0.3,4.9l2,3.5l-2.5,5.2l-1,5.7l0.7,2.6l-1.4,2l3,5.2l-0.3,1.6l-3.2,2l1.2,0.6L496,235l0.5,1.3l-0.8,0.9l-2.2-0.7l-0.4,0.8
		l1.3,0.5l-2.6,2.2l-2.2-0.5l-3.2,1.1l-0.5-1l-2.4-0.3l1.2-2.8l-2.6-0.5l0,0l0.4-1.2l-2.2-3.8l-3-0.5l1.6-3.9l-0.4-2.8l-3.6-2.7
		l-2.8-0.6L470.7,218.8z"/>
	<path id="FR-B" class="st0" d="M235.7,335.2l0.9,1.2l2.6-0.4l2,1.6l-0.9,2.6l2.3,2.3l2.2-2.6l1.1,1.2l4.6-0.5l2.6,4.3l1.2-0.9
		l1.9,1.2l-1.7,2.7l6.6,2.3l-1.4,1.6l2.6,1.3l-2.3,3l-1.1,0.1l-0.4,2.6l1.9,1l-1.9,2.6l2.3,0.8l-1.1,1.2l0,0h-0.2l0,0l2,1.7l3.9,0.5
		l-1.3,1.1l2.6,4.6l0,0l-1.5,0.8l0,0l0.2,0.6l0,0l1.1,4.1l-1.1,0.4l1.1,1.7l-2.9,1.9l0.2,1.7l-2.6,0.8l0.6,2.9l-3.5,3l-2.8,0.7
		l0.2,1.6l-2.3,2.4l0.4,1.1l-3.4,1.9l-1.3-0.4l1.4,2v3.2l1.5,0.9l0.2,3.2l-4.2,0.2l-0.4,0.9l-0.8-2l-0.9,0.2l-1,3.7l3.1,1.9
		l-1.6,4.4l-2,0.4l1.2,0.5l0.4,1.9l-1.2,0.5l-2.7-0.9l0.4,1.7l-1.6,0.2l-0.6,2.4l-2.9,1.9l-2.6-2.9l-1.4,1.4h-3.6l-0.7,1.5l-4.8,1
		l-0.5,1l-2.6-1.6l-1.5,0.4l-1.4,2.2l-1.1-1.6l-2.7,2.1l0.8,2.4l-0.6,1.1l-3-1.7l1-1.3l-1.6-1.6l-2.3,2.9l-3.2-0.5l-2.3,2.2l2,1.6
		l-0.8,0.5l0.5,2.5l-1.3,0.1l1.2,3.7l-2.1,1.6l0.3,2.7l-1.5,0.6l0.1,1.3l1.2,0.1l0.4,1.7l2.4-0.7l3.1,0.7l0.1,2l1-0.3l1.8,3.9
		l-1.8,0.5l-0.1,2.7l2.6-1.8l-0.1,3.8l1.3,1.4l-2.8,2.3l1.1,1.6l-1.2,2.7l-0.9-0.2l0.2,2.4l-1.9-0.2l-1.1,2.6l-1.7,0.7l0.5,3.2
		l-3.1,0.7l-1,1.6l0.3,3.6l-1.7,0.8l0.5,3.5l0,0l-3.1,2.6l-1.8,0.2l-2.4-1.6l-1.7,2.6l-4.7-5.5l-2-0.6l-0.8-3.6l-7.2,0.7L170,477
		l-1.1,0.8l-0.8-1.4l-2.5-1l-1.3,0.6l-1.7-1.3l1.5-2.6l-2.7,1.3l-0.4,3.4l-3.3-0.9l-1.3-2.2l2.2-2l1.3-3.2l-0.3-3.6l-5.6-1.8l-1,0.3
		l-0.5,2l-1.2-0.1l-0.6-2.8l-4,0.5l-0.3-1.7l-1.9-1.1l-0.1-1.2l4.6-0.8l2.6-2.3l5.8-11.1l5.7-29.5l1.6-17.5l2.4-6.1l7.2,1.2
		l-0.5-2.3l-1.9-0.9h1.4l-5-4.2l-2.5,4.4l-0.5,4.1l-0.5-0.9l3.9-45.1l2.4-4.4l1.3-0.9l0.8,2l-1.5,0.3l1,0.1l-0.5,1l9.9,8.9l4.3,14.5
		l3.6,3.6l-2.8-6.5l-1.7-10.6l0,0l4.6,0.4l0.3-1.4l0.8,2.7l5.3,1l0.9,4.9l0,0l0.1,0.3l0,0l0.6,2l0.8-1.4l1,0.2l0.9,1.6l1.3-0.3
		l0.8,1.5l2.6,1.1l1.8,0.3l2.1-1.7l1.6,1.3l0.3-2.2l1.6-0.7l-0.9-0.6l1-2l1.8-1.3l3,1.1l1.6-2.9l3.5-1.9l-0.7-3.9l1.1-3.1l1.6-0.5
		l-0.5-1.2l1.1,0.9l1.9-2.4h1.9l0.6-2l2.1-1.5l0.3-4.4h2.1L235.7,335.2z M209,462.4L209,462.4l-0.2-3.3l0,0l-0.4-0.2l0,0l0.2,1.9
		l-1.1,0.5l0.9,0.9L209,462.4z M207.5,462.3L207.5,462.3l-0.3,0.2l0,0l-0.7,1.7l0.7,1.6l1.6-1.1l-0.9-2.3l0,0l-0.2-0.2L207.5,462.3z
		"/>
	<path id="FR-C" class="st0" d="M298.2,296.5l0.6-2.7h0.9l1.5-2.6l4.7-0.9l1.9,0.7l2.9-1.9l-0.5-2.3L309,286l1.1-1.6l-1-1.1l1.4-0.7
		l0.8,0.7l-0.1-1.7l2.9-1.6l0.5-1.5l1.7,1.6l1.5-1l1.8,0.5l2.8-3.7l4.2-0.1l0,0l1,2.4l5.4,4.1l2.6-2.2l2.9,1.8l1.2-1.6l1.6-0.1
		l1.4,3.5l3.9-2.1l-0.5-1.8l1.8-0.1l-0.3-2.1l1.4,0.4l0.5,2.6l3.7,5.7l0.2,3.5l2.4,1.1l1.3-0.7l1.1,2.4l3.1-0.3l1.9,1.7l-0.9,3.5
		l0.4,3.8l0.7,0.1l-2.2,0.3l-1.8,2.5l0,0l-0.3,0.1l0,0h-0.4l0,0l-4.4,1.9l1.6,4.2l-0.5,2.8l1.1,1.3l-0.6,1.9l1,2.9l-1.6,1.4
		l-3.3,0.2l-0.3,2.2l2.4,2.4l-1.5,0.8l0.3,3.1l-1.3,1.2l3.5,3.6l-0.1,1.8l1.7,3.2l4.2,2.9l1.9,4.5l-0.8,3.2l-2.8,2.2l0.5,3.3
		l1.6-2.3l1.5,0.2l1.3,2.4l0.1-1.2l1.9,0.7l0.4-1.2l2.7-0.4l-0.4-1l1.3-0.5l2.1,0.2l1.5,1.6l2.4-0.5l1.3,1.7l-1.4,1l1.5,0.9
		l-0.8,1.5l1.4,1l1.9-1l2.1,2.7l-1.6,3.4l0.4,2.2L380,367l-0.5-1.5l-1.8-0.4l0.9,1.6l0,0v0.5l0,0l-1-0.1l-0.9,1.6l1.3,2.1l-3.2,0.9
		l0.6,2.5l-3.4,0.5l-2.6,4.8h-4.7l-0.3,2.1l-1.1,0.7l-0.6-0.7l0.2,1.1l-1.5-0.8l-1,3.1l-2.4,1.3l0,0l-1-0.2l0.3-1.3l-1.3,0.4
		l-1.8-1.9l-0.6-2l-2.9,0.5l0.3-1.5l-1.6-1.3l-1.4,0.3l-0.2,2.6l-4.2,0.9l-2.3-4.7l-0.1-2.3l-1.6-1.8l-3.3,2.6l-1.6-0.5l-0.2,2.6
		l-1.6,1.4l-2.3-2.2l-0.8,2l0,0h-0.4l0,0l-0.2,1.7l-1-0.2l-1,2L327,388l-2.2,3.7l0,0l-1.7-1.9l-0.9-4.3l1-0.6l-0.6-1l-1.2,0.2
		l-1.1-4.6l-3.3,1l0.1-3l-1.4-1.6l-5,5.1l-0.2,2.8l-2,2.6l0.4,1.7l-2.3,1.6l-0.6,2l-5,0.5l-1-1.6l-1.2,0.1l-2.9,1l-0.5,1.7l-1.3-1.1
		l-0.5-3l-1.1-0.1l1.6-4.9l-3-4.5l0.5-2.5l-1.6-2.9l0,0l1.5-0.4l0,0l0.4,0.1l0,0l1.3-1.1l-1.6-3.1l2.8-1.2l0.3-2.9l2-1.6l-1.2-0.8
		l-0.3-2.2l6.3-6.2l-0.5-4l5,2.3l1.8-1.2l-1.6-1.5l1.2-7.3l-2.1-2.3l0.9-2.5l1.4-0.1l0.1-3.6l-5.1-6.2l2.6-2.2l0,0h0.2l0,0l1.2,0.2
		l2.5-2.7l0.3-2.4l1.8-0.8l-0.4-3.5l-1.9-2.8l0.5-3.7l-3.2-6.8l-1.9-0.9l-0.4,0.7l-1.3-2.6l-0.9,1.2l-2.4-1.8l1.2-1.6l-1.7-0.5
		L298.2,296.5z"/>
	<path id="FR-D" class="st0" d="M398.9,216.2L398.9,216.2l-1.4-3.1l-1.3,0.2l-0.4,1.2l-1.1-0.7l1.3-1.7l-0.7-1.1l-2.3-0.1l0.9-1.5
		l-0.6-1l-3.6-1l-4.6-0.3l-1.6,1.3l0.7,2.2l-9.1,0.4l-0.8,2l-1.8-0.3l-0.7-2.4l-1.2,0.3l0.3,1.5l-1.4-1l0,0l-0.5,0.3l0,0l-1.6,1.6
		l-1.9-1.1L365,213l-1.6-1l-4.1,0.7l0.7-2.8l-0.7-1.3l-0.5,1.3l-1.1-0.3l-0.5-1.2l1.3-0.6l-1.9-1.6l-1.2-4.2l-1.9-0.8l0.4-1.9
		l-1.3-0.5l0.4,1l-2.1,0.9l-1.4-2.8l-1.9,0.3l1.6-2.4l-0.8-0.4l0.7-2l-1.6-0.8l0.4-0.9l-3.2-3.7l-1.5-0.5l-1.5,1l-0.5-1.8l0,0
		l-1.5-0.5l-0.5,1.6l-1.1,0.2l-7.4-0.2l-1.4,1.4l-2.1-0.5l-1.2,3.1l1.2,3.1l-1.6,2.5l-2.6,1.4v1.2l0,0l3.5,1.7l-0.5,1l0.7-0.1
		l0.5,2.5l2.8,2.5l-0.9,0.5l1.1,2.6l-1.3,1.5l0,0L329,212l0,0l-3,2.1l-0.5,2.2l1.4,1l-0.3,3.6l-6.6,1.6l-0.2,2.3l1.2-0.2l1.8,2.2
		l1,2.1l-0.6,2.6l1.6,1.6l-4.4,1.3l0,0v-0.2l0,0l-0.5,0.7l3.1,5.6l-2.4,5.6l4.3,4.3l1.8,7.8l-0.5,3.2l2.3,2.3l0.1,3.7l-1.1,2.6
		l0.7,3.1l-1.5,3.1l0,0l1,2.4l5.4,4.1l2.6-2.2l2.9,1.8l1.2-1.6l1.6-0.1l1.4,3.5l3.9-2.1l-0.5-1.8l1.8-0.1l-0.3-2.1l1.4,0.4l0.5,2.6
		l3.7,5.7l0.2,3.5l2.4,1.1l1.3-0.7l1.1,2.4l3.1-0.3l1.9,1.7l-0.9,3.5l0.4,3.8l0.7,0.1l-2.2,0.3l-1.8,2.5l0,0l-0.4,3.4l3.1,0.6
		l0.6,1.8l4.3-1.6l2.8,1.4l1.1-1.1l0.7,0.9l1.1-0.5l-0.2,1.6l1,0.1l3.6-1.6l1.3-6l2-0.1l1.7,1.6l2.5-1.5l1.9,1.6l0.7-1.9l1.6-0.3
		l1.2,1.5l-1.2,1.1l2.2,1.4l-0.6,2.1l1.5,1.2l0.8-0.2l6.1-18.7l0.4,1l1.3-0.7l2.7,1.6l4.2-1.1v-0.8l1.5,0.7l1.1,2.6l3,0.6l0,0
		l0.4-0.9l3.6-0.7l0.2-1.4l-2.4-0.9v-2.4l1.7-1.1l-0.4-1.6l1.7-1.5l-1.7-2.6l-0.1-2.4l-1.2-0.1l1.2-2.3l-2.5-2.5l5.3-1.4l-2.4-1.6
		l-0.1-1.4l-2.6,0.3l-1.4-2.9l-1.1,0.6l-0.4-2.7l2.4-1.9l-1.6-0.7l0.4-1.3l3.8-1.8l2-3.5l0,0v-0.3l0,0l1.8-7.7l1.2-0.8l-1.7-0.7l0,0
		h-0.1l0,0l1-1.4l-0.5-2.9l0,0l-0.2-0.1l0,0l-1.6,0.1l0,0h-0.3l0,0l0.3-3.2l-2.7-0.8l1.6-0.7l-0.8-0.2l0.5-1l1.8,0.1l1.8-3.2
		l-2.4-4.4l-1.7,2l-0.8-0.5l0,0l-0.6,0.8l-1.8-1l-2.1,1.8l0.3-2.6l-3.3-1.6l0.2-1.6l-2.3,1.9l-2.4-1.2l0.3-1.6l-1.2,0.2v-1l-2.3,1.4
		l-0.4-4.3l-1.6-0.3l2.9-2.3l-1.5-3.3h-0.6V216.2z"/>
	<path id="FR-E" class="st0" d="M88.9,243l1.1,1.4l2.3-0.1l0.6,1.9l2.9,0.8l-0.5,1.6l-6.2-0.9l-0.9-2.7L88.9,243z M89.7,159.3l0.2,2
		l5.1-2v2.7l2.8-0.2l0.3,1.4l-1.5,1.1l4.4,1.4l-0.6,2l4.8,4.1l-0.2,3.1l4.1,2.3l-1,1.7l1.1-0.5l1.5,2.6l-0.4-2.6l2.1,0.6l2.7-4.5
		l3.1-1.3l-0.5-1.3l1.9-0.5l0.6,1.4l3.8-3.4l1.3,1.2l-2,2.7l0.9,0.5l2.6-1.9l1.3,3.3l-0.5,2.1l1.1-3.5l0.6,2l1.1-2.4l1,1l-1-1.9
		l3.9-0.3l0.4,2.2l1.6,1l-0.7,0.6l1.6,1.6l-0.5,2.7l0.8-1.7l1,0.4l-1.8-3.6l1.5,0.8l-0.5-1.2l-1.9-0.4l0.5-1l-1.4-1.1l1.6-2.8
		l5.6-1.6l0.3,1.9l-1.3,2.4l3.5,1.9l7.8-1.7l0,0l3.2,8.3l2.6,1.6l2.6-0.5l3.8-4.3l6.9,2l0,0l-0.5,5.4l1.4,4.9l-2.1,3.6l0.8,3.6l0,0
		l0.2,0.2l0,0l2.2,11.2L168,211l-3.5,10.6l-4.4-1.3l-0.9-1.6l-3.5-0.4l0.2,1.8l-5.7,2.2l-1.5,3l-7.6,0.1l-3.6,2.1l-0.7-1.3l-4.1,2.5
		l-0.5,6.3l-2.3,0.6l-0.3,1.7l-0.8-1.3l-2.3,1l-2-1.2L124,239l-3.2,0.3l-0.8-1.2l-1.3,1.6l0,0l-1.5-0.1l-0.3-2.4l2.3-0.4l-2.6-1.5
		l-11.6,2.1l-3.6-3.7h-2l-1-1.5l-0.5,0.7l-0.7-1.5l0.2,1.4l-3.9-0.1l-0.2,3.1l1.8,2.6l-1.9-0.3l-1.2-3.1l1-0.8l-0.5-2.8l-5.2-5h-2.8
		l-0.2-1.4l-3.3,0.8l-2.8-3.8l-5.7-0.7l-1.8-1.6l-4.8,0.8l-1.8-2.5l0.7-1.4l-1.1,0.5l-1.4-2.9l-1.6,1.1L61,217l-2.6,0.6L56,216
		l-1.2,0.7l-1.7,3.4h-6.7l0.4-5.1l-2.4-4.2l-3.4-2.4l-2.2,0.3l-2.4-1.6l-3.9-0.5l1.1-0.3l-0.3-1.2l11.3-2.4l4.2,1l1.5-2.3l-1.8-4.2
		l-5.6-2l-1.4,0.4l-2.3,3.5l-0.5-3.6l1.1-0.8l-2.9-0.3l-0.3-1.5l2.2-0.2l-0.1-2.7l1.4-0.5l-0.9,2.2l0.8,1.1l1.4-1.6l-0.1,1.7
		l1.9-0.9l2,1.3l3.5-1.3l1.7,1L52,191l-1,0.8l-3.4-0.9l1.3-0.9l-1.1-0.5l0.5-1.3l-2.1,2l-1.6,0.1l0.7-1l-2.3,0.9l2.2-3.2l-0.9-0.7
		l-6.9,3.3l-2.8-1l-1,1.4l-2.5,0.1l-0.6-1.8l1.1-1.2l-1.3-1.7l1.3-3.1l-0.6-2.7l1.8-2.3l4.6-1.2l0.2-1.6l1.6,0.4l0.8-2.2l1.6,0.9
		l3.7-0.9l-1.4-1l3.5-1.3l1.9,0.7v1.7l3.8-1l-1-0.4l1.4-1.6l3.3-0.5l1.6,1.1l0.2-1.7l1.7-1.3l0.3,0.9l1.2-0.9l-0.1,3l1.6,0.6
		l0.2-2.1l0.1,1.5l2.9,0.8l-0.4-1.6l0.9-1.5l0.5,0.8l-0.1-1.1l5.5,1.9l1.4-0.5l-0.5,2.1l1.4-1.6l1.6,0.9l-0.1-3.1l1.3-1.2l-1.4-0.7
		l0.6-2.2l-0.7-0.6l1.2,0.8l1.9-2.7l0.5,1.1l0.4-1l0.8,1.3l1.2-0.3l-0.5,1.3l1.6-0.1l2.9-2.2l2.2,0.2L89.7,159.3z"/>
	<path id="FR-F" class="st0" d="M268.8,155.2l2.4,2.8l-0.6,1.2l2,1.7l-0.6,4.5l1.7,0.8l-1.9,2.6l1.4,0.8l-0.4,1.4l2.4,2.9h1.8
		l-0.2,2.1l2.9,1.4l-0.5,2.3l1,2.6l2.6,1.5l2.3-0.9l-0.1,2.9l1.9,0.3l0.4,2.2l-1.2,3l0.5,1.3l7.2-0.5l-0.5-1l1.1,0.3l0.8-1.8
		l1.6,0.7v1.9l2-0.8l0,0l0.2-0.4l0,0l0.9-0.8l1.2,1.5l1.7-0.5l0.7,3.2l3.6,1.9v3.3l-1.3,0.1l-1.5,2.3l4.4-1l5.6,1l1.8-1.3l-0.6-1.2
		l1,0.7l1.4-0.9l0.8,2.2l1.7-1.5l2.6-0.4l0,0l3.5,1.7l-0.5,1l0.7-0.1l0.5,2.5l2.8,2.5l-0.9,0.5l1.1,2.6l-1.3,1.5l0,0l-0.2,0.2l0,0
		l-3,2.1l-0.5,2.2l1.4,1l-0.3,3.6l-6.6,1.6l-0.2,2.3l1.2-0.2l1.8,2.2l1,2.1l-0.6,2.6l1.6,1.6l-4.4,1.3l0,0v-0.2l0,0l-0.5,0.7
		l3.1,5.6l-2.4,5.6l4.3,4.3l1.8,7.8l-0.5,3.2l2.3,2.3l0.1,3.7l-1.1,2.6l0.7,3.1l-1.5,3.1l0,0l-4.2,0.1l-2.8,3.7l-1.8-0.5l-1.5,1
		l-1.7-1.6l-0.5,1.5l-2.9,1.6l0.1,1.7l-0.8-0.7l-1.4,0.7l1,1.1l-1.1,1.6l1.4,0.8l0.5,2.3l-2.9,1.9l-1.9-0.7l-4.7,0.9l-1.5,2.6h-0.9
		l-0.6,2.7l0,0l-3.2-0.5l-4.1,1l-4.2-1.8l-5.3,0.9l-2.1-1.6l-1.4,0.4l0.5,1.4l-1.2,1.9l-1.6-1.6l-2.2,1.6l-0.7-1.8l-2.5,1.6
		l-0.7-1.9l-4.2,4.4l-2.4-2.9l-1.6,0.3l-0.4,1.3l-3.2,0.3l-0.4-1.4l-1.2,0.3l0,0l0,0l0,0l0.7-0.9l0,0l0.5-1.7l-2.3-0.8L255,292
		l-1.9-1.6h-2.7l-0.2-1.7l-3.9-1.9l-0.7-1.6l1.4-3.6l-0.5-1.8l-3.7-3.5l-0.7-3.4l-3.5-2.9l-0.5-3.9l-2.8-1.8l-1.9,0.1l1.2,2.7
		l-3.5-0.1l-2.6,1.6l-2.7-1.1l-1.6,1l-1.2-3.3l0.8-0.5l-0.4-2.9l-1.3,0.5l-0.9-1.6l-2.6,0.7l0.8-1.8l-0.7-1.3l-0.7,0.8l-1-0.4l0.2-1
		l-2.3,0.4l-1-2.5l0,0l0.8-6.6l4-5.6l-1.1-1l2.6-5.7l0.2-1.6l-1.2-0.6l1.5-3.2l0,0l-0.1-0.5l0,0l5.7,1.9l0.7-0.5l-1.5-2.3l0.7-1.4
		l2.5,1.4l0.5-1.5l5-1.6l0.8-1.2l-0.9,0.3l-0.4-1.6l1.6-1.9l2.8-0.8l-0.4-0.9l2.9-2.7l-0.3-3.8l1.1-0.6l0.8,1.3l0.2-2.5l1.3-0.5
		l-1.2-2.6l0.9-2.5l-1.7-0.5l-0.1-1.9l1.8-0.2l0.1-1.3l-1.2-0.3l1-0.3l0.4-1.6l2.5-0.3l-4.5-3.1l0,0l1.2-1.1l-1.6-2.6l0.7-1.6
		l-1.9-0.6l0.5-1.3l5.5-2.8l2.4-3.8l-1.6-2.1l1.2-2.6l-5.6-5l-0.1-3.3l0,0l1.8-1l0.5-1.6l4.3-0.5l0,0h0.8l0,0l2-1.9l2,0.6l0.3-2.5
		l3.8,1.8l4.2-0.2l1.6-1.1l-0.4-3.1l3.7-2.2l-0.5-2.9L268.8,155.2z"/>
	<path id="FR-G" class="st0" d="M395,84.5l2.3,1l-1.1,1l0.2,1.8l-0.8-0.8l-1.2,2.2l0.8,1.6l-1.9,4.1l3.7,3.5l-1.6,2.6l1,2.7
		l-0.9,1.6l5.5-0.4l3.7,2.2l2.7,4l3.9-0.2l2.3,2.5l-0.6,2.5l1.3-1.2l1.8,0.8l0,0l-5,4.4l-1-1.6l-2.7,0.4l-0.7-1.6l-1.2-0.1l-0.8,2.9
		l0,0l-0.1,0.4l0,0l-1.1,2.1l2,2.5l0.2,2.2l-1.5,1l0.9,1.5l-1.8,0.6l-1.1,3.3l1.2,0.9l-0.2,1.1l-3.7,2.1l1.6,1.6l-2,1.4l2.5,6.7
		l-1.5,2.7l1.6-0.8l1,0.7l-0.1,1.7l-1.5,0.5l1.7,0.5l-0.9,2l-2.9,1.2l0,0l-0.3,0.5l0,0l-0.8,2.6l0.9,1.5l-1.7,2.6l4.6,3.3l-0.5,7.2
		l2.2-1l0.5,2.1h1.8l3.5,3.8l4.4,1.1l5.3,4.9l-2.8,1.8l1.8,0.6l-0.5,2.7l2-1.5l1.7,0.5l2.5,4.2l0.8-1l1.6,1.4l-0.5,1.5l1.7,0.5
		l1.6,2l-1.8,1.1l-0.4,4l-1.6,1.3l2.6,0.5l1,1.8l2.1,0.5l0.4,4.6l2.3-1.3l1.5,2.8l0,0v1.5l-1.3-0.4l-1.1,2l0.2,1.1l-2.6-0.4
		l-0.7,2.2l-1.9-0.1L427,221l1.3,1.8l-0.7,3.5L424,227l-1.1-2l-1.6,1.9l-4.4-0.1l-1.5,3.9l0,0l-0.6,0.8l-1.8-1l-2.1,1.8l0.3-2.6
		l-3.3-1.6l0.2-1.6l-2.3,1.9l-2.4-1.2l0.3-1.6l-1.2,0.2v-1l-2.3,1.4l-0.4-4.3l-1.6-0.3l2.9-2.3l-1.5-3.3l0,0h-0.5l0,0l-1.4-3.1
		l-1.3,0.2l-0.4,1.2l-1.1-0.7l1.3-1.7l-0.7-1.1l-2.3-0.1l0.9-1.5l-0.6-1l-3.6-1l-4.6-0.3l-1.6,1.3l0.7,2.2l-9.1,0.4l-0.8,2l-1.8-0.3
		l-0.7-2.4l-1.2,0.3l0.3,1.5l-1.4-1l0,0l-0.5,0.3l0,0l-1.6,1.6l-1.9-1.1l-0.5,1.2l-1.6-1l-4.1,0.7l0.7-2.8l-0.7-1.3l-0.5,1.3
		l-1.1-0.3l-0.5-1.2l1.3-0.6l-1.9-1.6l-1.2-4.2l-1.9-0.8l0.4-1.9l-1.3-0.5l0.4,1l-2.1,0.9l-1.4-2.8l-1.9,0.3l1.6-2.4l-0.8-0.4l0.7-2
		l-1.6-0.8l0.4-0.9l-3.2-3.7l-1.5-0.5l-1.5,1l-0.5-1.8l0,0l-1.2-5.1l2.1-0.6l-1.2-2.1l2.8-0.8l-0.6-1.6l1.8-1.1l-0.5-0.8l2.2-0.6
		l-1.5-0.9l0.5-0.7l-3.2,0.6l0.6-5.8l-2.8-1.2l1.8-1.8l-1.6-1.1l3.2-0.3l-0.1-2.2l0,0l1.6-3.5l1.6-0.2l0.1-1.5l1.1-0.2l-0.5-1
		l3.3-3.1l-1-1.6l-2.5,0.4l0.1-1.4l1.9-1l-1.5-2.5l0.8-1.7l3.1,0.5l1.6-0.9v-1.3l-1.3,0.3l-0.6-1.7l-0.6,0.5l-1.1-0.9l0.9-1.3
		l-1.3-4.6l5-2.5l2.7,0.6l0.2-2l2.6-1.6l1.4,1.7l2.9,1l0.1-4.6l1.2-0.5l-1-3.6l1.5-1l-1.1-1.2l1.1-1.6l-2.1-2.9l0.6-0.9l2.8,0.3
		l0.5-2.6l2.2-1.2l2.5-3.4l-1.6-1.4l1.8-5.2l0.1-2.1l-1.5-0.5l0.5-2.6l0,0l2.9-0.6l5.2,1.8l5.7-2.9l3.6-0.5l-0.5-4.1l0.8-1.7
		l4.7-4.3L395,84.5z"/>
	<path id="FR-H" class="st0" d="M544.2,550l1.1-2.5l2.6-0.3l1.6-2.1l-3.9-1.4l-1.2,0.7l-0.3-2.1l-2.6,1l-0.1-0.9l-1.7-0.1l2.7-1.8
		l-0.7-1.3l2.3-0.5l0.5-1.1l-1.3-0.6l1.5-0.3l-0.4-1.6l0.9-0.6l-2.1-1.9L542,534l-4.2,0.7l0.5-2.1l-1.2-1.6l2.1-0.2l0.5-2.2l3.3-1.9
		l-1.8-3.2l-1.6,0.6l-1.8-1.7l-1.2,0.4l0.2-1.2l-1.1,0.3l1.4-1.2l-1.2-0.2l0.7-1.7l-1.6-1.6l5.8-1.5l-1.3-1.8l-2.1-0.2l0.4-2.3
		l-2.4,0.8l-0.3-2.1l2.5-0.5l-0.1-1.6l1.9,0.1l-0.3-1.4l1.2-1.4l-1.2-0.5l0.6-1.9l2-0.5l-0.5-2.3l0.7-0.7l0.1,1.2l1.1-0.5l1.3,0.9
		l0.5-2.5l2.5-0.3l2.5-2l3.1,0.3l1.7-1l-0.1-1.8l2.6-1.8l3.6-0.2l2.9,3l1.7-3l-0.1-3l-1.3-1.9l1.2-1.6l-0.7-1.7l1.5-1.3l-0.8-3.6
		l3.2-0.9l1.6,1.3l1.1,9.2l-1.8,6.8l3.3,6.5l1,18.1l-0.4,4.7l-5.2,7.6l-0.9,15.6l-1.6,0.6l0.5,0.7l-1.7-0.6l-1.1,1.6l0.4,1.1
		l1.2-1.6l1.9,0.5l-1,1.8l-2.6,1.5l0.2,3.4l-2.1,1.1l-0.5,1.5l2.1-0.7l-0.2,0.7l-1.5,2.4l-1.6,0.1l-0.9-1.4L556,560l1-2.2l-1.9-0.4
		l0.4-1.8l-1.6,1.2l-1.6-1.6l-0.5,0.8l-2.4-0.7l-1.6-1.7l-1.3,0.4l0.5-1.5l-2.6-0.5l0.6-1L544.2,550z"/>
	<path id="FR-I" class="st0" d="M434.7,212.8l1.8-2.9l1,0.5l-1.2,1.7l0.8,0.1l2-1.2l1.4-2.6l3.6-0.9l0,0l0.1,0.1l0,0l0.5,2.9
		l2.1,1.6l0,0v0.3l0,0l7-1.6l1.7,1.1l1.6,3.2l4.7-3.4l1.6,2.4l7.2,4.7l0,0l1.1,2.2l2.8,0.6l3.6,2.7l0.4,2.8l-1.6,3.9l3,0.5l2.2,3.8
		l-0.4,1.2l0,0l-5.7,0.5l0.7,2.3l-2.4,1.2l-2.3,4.5l5.2-1.1l1.3,0.5l0.3,1.6l-1.7,0.5l-0.5,1.6l-2,0.5l0.5,2.5l-4.3,3.9l0.6,0.4
		l-0.7,0.9l-5.1,3.7l0.6,1.7l-3.7,3.2l-4.7,1l-2.5,2.6l1.2,2.2l-1.3,4.2l0.8,2l-13,10.9l1.7,1.7l-3.2,4.6l-0.3,2.6l0,0l-7.4,8.3
		l-5.5,0.2l-0.5-2.6l-2.6-0.8l-0.1-1.1l-3.9,4.2l-2.5,0.2l0.1-2.8h-1.5l-0.5-1.8l-0.7,2l-1.6-3.3l0.5-0.6l-2.9-1.7l0.5-1.8l0,0
		l0.4-0.9l3.6-0.7l0.2-1.4l-2.4-0.9v-2.4l1.7-1.1l-0.4-1.6l1.7-1.5l-1.7-2.6l-0.1-2.4l-1.2-0.1l1.2-2.3l-2.5-2.5l5.3-1.4l-2.4-1.6
		l-0.1-1.4l-2.6,0.3l-1.4-2.9l-1.1,0.6l-0.4-2.7l2.4-1.9l-1.6-0.7l0.4-1.3l3.8-1.8l2-3.5l0,0v-0.3l0,0l1.8-7.7l1.2-0.8l-1.7-0.7l0,0
		h-0.1l0,0l1-1.4l-0.5-2.9l0,0l-0.2-0.1l0,0l-1.6,0.1l0,0h-0.3l0,0l0.3-3.2l-2.7-0.8l1.6-0.7l-0.8-0.2l0.5-1l1.8,0.1l1.8-3.2
		l-2.3-4.2l-1.7,2l-0.8-0.5l0,0l1.5-3.9l4.4,0.1l1.6-1.9l1.1,2l3.6-0.7l0.7-3.5l-1.3-1.8l0.5-2.4l1.9,0.1l0.7-2.2l2.6,0.4l-0.2-1.1
		l1.1-2l1.3,0.4L434.7,212.8z"/>
	<path id="FR-J" class="st0" d="M276.4,138.4l1.4,0.5l-0.5,1.7l0,0h0.4l0,0l0.7,1.1l1.8-0.5l3,1.3l4.5-0.7l3-2l3.4,2.7l1.8-0.9
		l0.5,1.6l2-0.5l1.1-1.6l1.6,2.2l0.6-0.6l2.5,0.7l-0.2,0.7l1-0.5l1.6,1.4l-0.5,0.6l1.6,0.4l0.7-1.5l1.2,2.6l1.9-1.6l3.8,2.7l2.8-2.1
		l1.6,1.6l4.5-1.2l0.7,1.2l0.8-1.2l2.2,0.4l0.1-1.8l2.6,0.6l2,3.2l-0.9,2.2l3.2,2.3l0.5,1.9l1.6-0.5l0.9,2.4l1.5-1.2l0.5,3.2
		l2.4,0.6l0.5,1.3l0.9-0.8l0,0l0.1,2.2l-3.2,0.3l1.6,1.1l-1.8,1.8l2.8,1.2l-0.6,5.8l3.2-0.6l-0.5,0.7l1.5,0.9l-2.2,0.6l0.5,0.8
		l-1.8,1.1l0.6,1.6l-2.8,0.8l1.2,2.1l-2.1,0.6l1.2,5.1l0,0l-1.5-0.5l-0.5,1.6l-1.1,0.2l-7.4-0.2l-1.4,1.4l-2.1-0.5l-1.2,3.1l1.2,3.1
		l-1.6,2.5l-2.6,1.4v1.2l0,0l-2.6,0.4l-1.7,1.5l-0.8-2.2l-1.4,0.9l-1-0.7l0.6,1.2l-1.8,1.3l-5.6-1l-4.4,1l1.5-2.3l1.3-0.1v-3.3
		l-3.6-1.9l-0.7-3.2l-1.7,0.5l-1.2-1.5l-0.9,0.8l0,0l-0.2,0.4l0,0l-2,0.8v-1.9l-1.6-0.7l-0.8,1.8l-1.1-0.3l0.5,1l-7.2,0.5l-0.5-1.3
		l1.2-3L287,186l-1.9-0.3l0.1-2.9l-2.3,0.9l-2.6-1.5l-1-2.6l0.5-2.3l-2.9-1.4l0.2-2.1h-1.8l-2.4-2.9l0.4-1.4l-1.4-0.8l1.9-2.6
		l-1.7-0.8l0.6-4.5l-2-1.7l0.6-1.2l-2.4-2.8l0,0l-0.4-1.6l1-0.6l-1.8,0.2l0.3-2.2l-1.2-2.3l1.6,0.2l0.8-2l0.5,0.9l0,0h0.2l0,0
		l3.6-0.9L276.4,138.4z"/>
	<path id="FR-K" class="st0" d="M324.8,392.2l2.2-3.7l0.3-4.5l1-2l1,0.2l0.2-1.7l0,0h0.2l0,0l0.8-2l2.3,2.2l1.6-1.4l0.2-2.6l1.6,0.5
		l3.2-2.6l1.6,1.8l0.1,2.3l2.3,4.7l4.2-0.9l0.2-2.6l1.4-0.3l1.6,1.3l-0.3,1.5l2.9-0.5l0.6,2l1.8,1.9l1.3-0.4l-0.3,1.3l1,0.2l0,0
		l1.6,7.9l1.9,1.3l1.4,5.2l3.1,3.6l-1.1,0.7l0.3,3.8l3.1-0.9l4.8,3.7l2.6-3.8l2.5-0.5l0.1,2.9l1.6,0.4l0.5-2.9l2-0.3l5.5,3.8l0,0
		l0.9,2.9l1.3,0.1l0.5,1.4v5.6l2.5,0.8l2.2,4l-1.2,0.1v1.3l-6.6,5l1,1.1l-2.1,6.2l0.5,2.1l-3.3-1.1l-2.1,0.5l-2.3,3.8l1.7,0.6
		l-0.4,1.2l-4.8,2.8l-0.7-1l0.4,1.4l-3.1,1.5l-0.4,2l0,0l-3.6-1.4l-0.6-1.2l0.7-1.2l-1.2-1.1l-5.1,0.4l-9.4,7.6l-3.1,0.9l-5.2,6
		l0.2-0.9l-0.3,0.8l-6.5-1.1l0.4,1.1l-6.1,4.9l-3.7,6l-1.5,4.7l0.6,2.4l-1.2,11l0.7,8.4l3.6,1.2l-0.5,1.7l1.6,2.5l-3.4,0.5l-1.7-2.5
		l-2.8,0.4l-0.7-0.8L322,506l-2.9-0.1l-2.3,2.4l-1.7-0.6l-2.2,1l-0.9,0.9l0.7,2.4l-3.6-0.9l-1.7,1.3l-1.8-0.4l-1.8-2.7l-6.7-2.3
		l-2.1,1.1l-1.7-0.4l-2.6,3.1l-2.6,0.7l-2-1.7l-1.1-3.6l-2,0.2l-2.2-1.9l-3.6-0.5l0.4-3.1l1.8-0.9l0,0l3.1-0.3l1.2-1.8l2.7-0.1
		l0.9-2.3l6.3-0.1l0.5-0.9l-3.5-3.6l-3.1,0.9l-3.5-1.3l0.5-0.9l-2.6-2.5l0.6-1.5l4.2-0.9l-0.3-3l-1.7-0.6l0.9-1.1l1.8,0.1l-1.4-2.4
		l0.6-1.3l-1.6-0.9l0.8-0.9l-0.5-2.3l-1.4-1.1l-0.9,0.9l-1.5-2.3v0.7l-2.6-0.3l-2.8-2l0.6-1.7l-1.4-2.6l1.7-2.1l-0.5-1.5h3.5
		l-0.5-2.6l1.9-2.6l1.6,2.4l0.9-1.3l0,0h0.2l0,0l2.5,0.6l1.8-1.4l1.4,2.1l3.7-1.1l1.6,1.7l0.3-2.5l1.4-1.5l5.2,2.3l1.4-1l6.7,0.3
		l2.3-2l0.3-2.4l-2.2-2.6l1.1-4.9l2.8,0.8l1.4,1.6l5.7-2.1l0.6-1.8l2.4-1l2.8,0.8l0.1-7.4l5.7,1.1l1.4-0.8l-0.5-1.7l1.1-1.6h3
		l0.5-2.9l3.2-2.6l0.3-1.4l-2.3-1.7l-1.4,0.5l-0.8-1.5l-1.4,0.5l-1.2-1.3l2.3-0.8l0.5-2.6l1.5-0.5l-0.4-1.6l-5.9,0.5l1-2.1l-2.6-0.7
		l-0.4-1.6l-1.2,0.6l1.3-2.4l-1.3-2.9l0.9-3.9l-2.9-3.4l0.7-3L324.8,392.2z M285.6,506.1l2,0.5l-0.9-2L285.6,506.1z"/>
	<path id="FR-L" class="st0" d="M256.4,298.4l1.2-0.3l0.4,1.4l3.2-0.3l0.4-1.3l1.6-0.3l2.4,2.9l4.2-4.4l0.7,1.9l2.5-1.6l0.7,1.8
		l2.2-1.6l1.6,1.6l1.2-1.9l-0.5-1.4l1.4-0.4l2.1,1.6l5.3-0.9l4.2,1.8l4.1-1l3.2,0.5l0,0l0.3,2.1l1.7,0.5l-1.2,1.6l2.4,1.8l0.9-1.2
		l1.3,2.6l0.4-0.7l1.9,0.9l3.2,6.8l-0.5,3.7l1.9,2.8l0.4,3.5l-1.8,0.8l-0.3,2.4l-2.5,2.7l-1.2-0.2l0,0h-0.2l0,0l-2.6,2.2l5.1,6.2
		l-0.1,3.6l-1.4,0.1l-0.9,2.5l2.1,2.3l-1.2,7.3l1.6,1.5l-1.8,1.2l-5-2.3l0.5,4l-6.3,6.2l0.3,2.2l1.2,0.8l-2,1.6l-0.3,2.9l-2.8,1.2
		l1.6,3.1l-1.3,1.1l0,0l-0.4-0.1l0,0l-1.5,0.4l0,0l-2.8,0.1l-1.5,1.2l-1.5-1.4l-4,2.9l-1.9-0.8l-3.9-4.8l-3.8-0.1l-0.3-0.9l-3.4,1.5
		l0,0l-2.6-4.6l1.3-1.1l-3.9-0.5l-2-1.7l0,0h0.2l0,0l1.1-1.2l-2.4-0.8l1.9-2.6l-1.9-1l0.4-2.6l1.1-0.1l2.3-3l-2.6-1.3l1.4-1.6
		l-6.6-2.3l1.7-2.7l-1.9-1.2l-1.2,0.9l-2.6-4.3l-4.6,0.5l-1.1-1.2l-2.2,2.6l-2.3-2.3l0.9-2.6l-2-1.6l-2.6,0.4l-0.9-1.2l0,0l3.2-2.8
		l-0.1-2.3l2.6,0.7l1.6-4.9l-0.5-2.6l2.6,0.5l2.5-2.6l-0.8-2.2l-1.6-1.2l-1,0.7l-1.6-1.7l0.7-2.5l-0.9-1.5l1.4-0.7l-2-4.1l2.2-1
		l1.9-3.1l3.9,0.5l1.6-4.5l3.1,0.8l1-2.3L256.4,298.4z"/>
	<path id="FR-M" class="st0" d="M417.1,117l1.4,1.9l0.6,4l3.2-1.9l2.1,1.4l1.2-2.5l3.9,0.6l1-1.5l2.5,1.2l1.2,2.6l3.7,0.3l0.5,2.5
		l2.3,0.2l1.2-1.1l1,0.8l1-2.3l4.2-1.2l4.7,3.1l2.5-1l4.8,3.2l-0.6,1.1l2.3,2.1l-1.3,1.1l3.9,3.9l-0.4,1.2l1.1,0.5l0.3,1.9l1.1-0.2
		l-0.5,1.8l1,1.4l3.6,0.6l1-1.6l-0.9-1.8l3.8-0.5l3.6,1.8l0.6,4.5l1.8-2.4l2.2,2l3.4-0.5l1.8,0.8l1.2-1.6h1.4l0.1-1.6l3-0.7
		l-0.4,1.1l2.2-0.3l1.3,4.1l3.9,1.4l0.2,1.1l0,0l-2.2,5.6l-1.6,1.5l-3.2-2.1l-4.7,1.5L488,154l0.1-1l-6.4-1.8l-1.1-4.1l-1.2,0.7
		l-1.4,6.3l-1.6-0.3l-0.5,1.6h-1.3l0.4,2.3l3.6,1.1l0.1,0.9l1.7-0.2l-1.6,1.1v1.6l1.4,0.3l-0.5,1.6l1.8-1l1-2.5l4,1.4l-0.5,0.8
		l2.5,2.4l-2.7,4.3l0.9,1.7l1.5,0.1l-3.3,6.1l-2,1.5l-3.8,0.2l2.6,1.6l-1.6-0.4l1,1.6l-1.2,4.4l0.9,1.2l-1.2,1.5l1.6,1.1l2.4-0.4
		l0.7,1.6l-5.3,9.4l0.6,2l-2.9,5l-2.2,1.3l-1.2,4.6l0.6,0.5l-1.3,1.1l0.9,2.3l-3.2,1.6l0,0l-7.2-4.7l-1.6-2.4l-4.7,3.4l-1.6-3.2
		l-1.7-1.1l-7,1.6l0,0v-0.5l0,0l-2.1-1.6l0-2.9l0,0l-0.1-0.1l0,0l-3.6,0.9l-1.4,2.6l-2,1.2l-0.8-0.1l1.2-1.7l-1-0.5l-1.8,2.9l0,0
		l-1.5-2.8l-2.3,1.3l-0.4-4.6l-2.1-0.5l-1-1.8l-2.6-0.5l1.6-1.3l0.4-4l1.8-1.1l-1.6-2l-1.7-0.5l0.5-1.5l-1.6-1.4l-0.8,1l-2.5-4.2
		l-1.7-0.5l-2,1.5l0.5-2.7l-1.8-0.6l2.8-1.8l-5.3-4.9l-4.4-1.1l-3.5-3.8h-1.8l-0.5-2.1l-2.2,1l0.5-7.2l-4.6-3.3l1.7-2.6l-0.9-1.5
		l0.8-2.6l0,0l0.2-0.2l0,0l2.9-1.2l0.9-2l-1.7-0.5l1.5-0.5l0.1-1.7l-1-0.7l-1.6,0.8l1.5-2.7l-2.5-6.7l2-1.4l-1.6-1.6l3.7-2.1
		l0.2-1.1l-1.2-0.9l1.1-3.3l1.8-0.6l-0.9-1.5l1.5-1l-0.2-2.2l-2-2.5l1.1-2.1l0,0l0.1-0.4l0,0l0.8-2.9l1.2,0.1l0.7,1.6l2.7-0.4l1,1.6
		l5-4.4l0,0L417.1,117z"/>
	<path id="FR-N" class="st0" d="M207.6,462.2l0.2,0.2l0,0l0.9,2.3l-1.6,1.1l-0.7-1.6l0.7-1.7l0,0l0.3-0.2l0,0L207.6,462.2z
		 M208.8,459.1l0.2,3.3l0,0l-0.6-0.2l0,0l-0.9-0.9l1.1-0.5l-0.2-1.9l0,0L208.8,459.1z M266.7,372.2l3.4-1.5l0.3,0.9l3.8,0.1l3.9,4.9
		l1.9,0.8l4-2.9l1.5,1.4l1.5-1.2l2.8-0.1l0,0l1.6,2.9l-0.5,2.5l3,4.5l-1.6,4.9h1.1l0.5,3l1.3,1.1l0.5-1.7l2.9-1l1.2-0.1l1,1.6l5-0.5
		l0.5-2l2.3-1.6l-0.1-1.6l1.9-2.1l0.2-2.8l5-5.1l1.4,1.6l-0.1,3l3.3-1l1.1,4.6l1.2-0.3l0.6,1l-1,0.6l0.9,4.3l1.7,1.9l0,0l3.9,4.6
		l-0.7,3l2.9,3.4l-0.9,3.9l1.3,2.9l-1.3,2.4l1.2-0.6l0.4,1.6l2.6,0.7l-1,2.1l5.9-0.5l0.4,1.6l-1.5,0.5l-0.5,2.6l-2.3,0.8l1.2,1.3
		l1.4-0.5l0.8,1.5l1.4-0.5l2.3,1.7l-0.3,1.4l-3.2,2.6l-0.5,2.9h-3l-1.1,1.6l0.5,1.7l-1.4,0.8l-5.7-1.1l-0.1,7.4l-2.8-0.8l-2.4,1
		l-0.6,1.8l-5.7,2.1l-1.4-1.6l-2.8-0.8l-1.1,4.9l2.2,2.6l-0.3,2.4l-2.3,2l-6.7-0.3l-1.4,1l-5.2-2.3l-1.4,1.5l-0.3,2.5l-1.6-1.7
		l-3.7,1.1l-1.4-2.1l-1.8,1.4l-2.5-0.6l0,0h-0.2l0,0l-0.9,1.3l-1.6-2.4l-1.9,2.6l0.5,2.6h-3.5l0.5,1.5l-1.7,2.1l1.4,2.6l-0.6,1.7
		l2.8,2l2.6,0.3v-0.7l1.5,2.3l0.9-0.9l1.4,1.1l0.5,2.3l-0.8,0.9l1.6,0.9l-0.6,1.3l1.4,2.4l-1.8-0.1l-0.9,1.1l1.7,0.6l0.3,3l-4.2,0.9
		l-0.6,1.5l2.6,2.5l-0.5,0.9l3.5,1.3l3.1-0.9l3.5,3.6l-0.5,0.9l-6.3,0.1l-0.9,2.3l-2.7,0.1l-1.2,1.8l-3.1,0.3l0,0l0.2-0.7l-2.6-0.1
		l0.4-1.4l-5.2-0.5l-1.8-1.5l-2.6,0.2l-0.1,1.9l-1.6,0.5l-3.1-5.9l-4.7-0.5l-2.3,1l-3.4-4.1l-3.6,0.1l-0.9-1l-1.3,0.8l-8.3-3.7
		l-1.9,1.2l0.5,1.7l-1,1.1l0.8,0.4l-0.9,1l1.4,1.5l-0.1,1.8l-3-0.7l-6.7,0.7l-2.4-1.7l-2.5,2.6l-1.3-2.2l-3.2-1.1l-6.8,2.6l-2.1-0.4
		l-0.5-1.3l-1.6-0.5l-1.8-3.7l-1,0.5l-4.7-3.2l0,0L199,482l1.7-0.8l-0.3-3.6l1-1.6l3.1-0.7l-0.5-3.2l1.7-0.7l1.1-2.6l1.9,0.2
		l-0.2-2.4l0.9,0.2l1.2-2.7l-1.1-1.6l2.8-2.3l-1.3-1.4l0.1-3.8l-2.6,1.8l0.1-2.7l1.8-0.5l-1.8-3.9l-1,0.3l-0.1-2l-3.1-0.7l-2.4,0.7
		l-0.4-1.7l-1.2-0.1l-0.1-1.3l1.5-0.6l-0.3-2.7l2.1-1.6l-1.2-3.7l1.3-0.1l-0.5-2.5l0.8-0.5l-2-1.6l2.3-2.2l3.2,0.5l2.3-2.9l1.6,1.6
		l-1,1.3l3,1.7l0.6-1.1l-0.8-2.4l2.7-2.1l1.1,1.6l1.4-2.2l1.5-0.4l2.6,1.6l0.5-1l4.8-1l0.7-1.5h3.6l1.4-1.4l2.6,2.9l2.9-1.9l0.6-2.4
		l1.6-0.2l-0.4-1.7l2.7,0.9l1.2-0.5l-0.4-1.9l-1.2-0.5l2-0.4l1.6-4.4l-3.1-1.9l1-3.7l0.9-0.2l0.8,2l0.4-0.9l4.1-0.2l-0.2-3.2
		l-1.5-0.9v-3.2l-1.4-2l1.3,0.4l3.4-1.9l-0.4-1.1l2.3-2.4l-0.2-1.6l2.8-0.7l3.5-3l-0.6-2.9l2.6-0.8l-0.2-1.7l2.9-1.9l-1.1-1.7
		l1.1-0.4l-1.1-4.1l0,0l-0.2-0.6l0,0L266.7,372.2z"/>
	<path id="FR-O" class="st0" d="M308.9,30.9l0.5,3.2l2.2,3.3L310,39l0.4,4.2l1.4,2.2l3.3,0.1l2.7,5.1l2,0.1l2.3,1.8l1.7-3.6l7.5-2.3
		l1.6,3.8l2.6,1.4l-0.8,2.6l2,7.9l3.2,2l2.7-0.9l1-1.6l1.6,0.5l-0.7,2.2l4.1-0.5l2,2.4l-0.1,5.1l1.9,3.8l1.5-2.7l3.9-0.1l1.9,1.5
		l4.7-1.9l1.9,2.8l1.6,0.5l0.8,2.7h1.1l-0.2-1.8l1.7,1l0.5,1.1l-2.6,2.4l0.2,2.9l-1,1.7h2.7l1.1,3.7l-2.6,1.3l-0.7,4l0,0l-2.1,0.6
		l-4-1.5l0.1-3l-3.6,2l-0.5-1.6l-5.9-1.9l-1.9,0.9l-0.2,1.5l-1.7,0.3l-2.6-1.7l-2,2.2l-4.8-1.1l-1.3,1.2l-1.9,0.1l-0.7-1.1l-3.3,1.2
		l-2.9-2.5l-3-0.4l-1.6,1l-1.9-0.5l-2.1,1.6l-0.3-3.4l-4.2,2l1.3-3.9l-1.9-0.8l-0.8-0.1l-0.1,2.7l-4.8-1.9l0.1-1.6l-0.9-0.2
		l-0.7,1.7l-0.7-1.6l-1.3,0.2l-2.4,3l-1.6-1.3l0.5-2.6l4-2.4l-1.6-2.1l-1.7-0.3l-1.8,1.6l-1-1.9l-0.2,1.6l-2.2-0.9l-4.6,2.3
		l-0.7-1.1l-1.6,0.5l-0.4-3l-4.9-2.1l-0.5-0.7l1.3-1.3l-0.7-0.5l-1.5,1.2l-3.9-2.9l-5.3,1.8l-0.9-1.3l0,0l-3.3-2.8l1.2-8.2l1.8,1.5
		l-2.2-3.4l-0.5-9.3l0.2-0.9l0.4,1.5l0.7-0.9l0.7-4.3l-1.3-4l3-0.9l3.2-3.5l4.7-1.6l-1.1-0.2l9.6-2.5l0.5,0.6l2-2.1l-0.5,1.1
		l1.2,1.1l0.6-2.2l0.3,0.7l5.7-1.9l1,0.7l6.2-2.6L308.9,30.9z"/>
	<path id="FR-P" class="st0" d="M138.6,109.6l1.8,1.2l1.4-0.7l1,1.6l7.8,1.8l-0.2,1.4l0.5-1.3l4.6-0.6l0.5-1.6l7.8,0.1l1.4,5.2
		l-1-0.4l-0.6,2.5v-0.8l-1,0.2l-0.5,2l5.4,8.2l-1.3,4.2l1.7-1.6l1.5,1.1l1.6-2.6l4.1-0.5l7.9,2.8l13.7,0.9l4.4,2.4l1.4-0.5l0.8,1.2
		l8.4-2.6l4.8-4.5l3.6-1.6l-4.3-0.2l6.6-0.1l0,0l1.6,5.4l-1.1,1.4l1.1,1.1l-0.5,0.7l2-0.8l0.8,0.6v1.2l-2.4,0.9l2.8,2.2l-0.4,3.3
		l1.8,0.7l-1.3,2l0.7,1.7l-2,1.3l3,2.1l-2.4,5.9l2.6,1.9l3.7,0.3l1.1-1.1l0.4,1.2l1-0.4l-0.2,1.3h1l-1,1.3l5.6,3.7l0.6,1.7l-1.7,1.7
		l1.6,0.6l0.1,1.5h1.7l0,0l0.1,3.3l5.6,5l-1.2,2.6l1.6,2l-2.4,3.8l-5.5,2.8l-0.5,1.3l1.9,0.5l-0.7,1.6l1.6,2.6l-1.3,1.1l0,0
		l-2.3,0.4l-3.2-4.3l-0.5,1.7l-3.9-0.9l-1.7-3.5l-0.4,0.6l-3.3-1.3l-0.4-5.8l-3.1-3.2l-5.9,1.3l0.5,0.9l-3.3,1.9l-0.5,1.7l-2.2-1.1
		l-1.9,1.3v-4.4l-3.6-0.4l-1-3.1l1.1-1l-2.4-2h-1.6l0.3,1.6l-1.1,1.6l-1.9-0.8l-1.2,2.2l-1.6-1.5l-4.3,0.1l-1.6,2L187,183l-0.5-2.4
		l-1,1l-1.6-0.3l0.6,1.4l-1.7,0.8l-0.7-1.6l-1.3,0.5l-1.2-2.6l-2.4,0.2l-1.7-1.2l-1.8,1.6l-2.5-1.1l0,0l-6.9-2l-3.8,4.3l-2.6,0.5
		l-2.6-1.6l-3.2-8.3l0,0l2.3,0.8l0.1-1l0.8,0.8l2.5-1.2l2.7,0.6l-2.2-1.6l1-0.9l-2.3,1.2l-4.7-5.3l-0.2-4.3l-1.6-0.7l2.8-5.6
		l-0.8-0.5l0.2-4.9l2,0.4l-2.1-1l-0.6,2.2l-0.8-2.2l-0.5-10.4l1.7-0.2l-1.7-0.7l-0.5,1.5l-3-6.9l-3.9-2.6l-1.5-7.7l-1.5-1.7l1.8-2.1
		l-0.3-3.5l-1-1.6l-2.7-0.9L138.6,109.6z"/>
	<path id="FR-Q" class="st0" d="M264,89.8l2.7-0.4l0.1,1.8l9.9,8.9l0.8,4.2l1.9,3.1l-1.4-0.1l-2.3,4l0.6,0.8l1.7-0.8l-2,2.9l0.9,1.2
		l-0.8,2.4l0,0h-0.2l0,0l2,2.6l-1.2,2l1,0.8l0.5-1.3l1.2,0.5l-0.7,2l0,0l-0.4,0.3l0,0l-1.8,3.4l1,0.1l-0.7,0.7l1.5,1.6l0.5,4.3
		l1.2,1l-0.5,1.6l-1.2-1.6l-1.8,0.5l-0.2,1.9l0,0l-3.1,8.4l-3.6,0.9l0,0h-0.2l0,0l-0.5-0.9l-0.8,2l-1.6-0.2l1.2,2.3l-0.3,2.2
		l1.8-0.2l-1,0.6l0.4,1.6l0,0l-2,1l0.5,3l-3.7,2.2l0.4,3.1l-1.6,1.2l-4.2,0.2l-3.8-1.8l-0.2,2.5l-2-0.6l-2,1.9l0,0h-0.8l0,0
		l-4.3,0.5l-0.5,1.6l-1.8,1l0,0h-1.7l-0.1-1.5l-1.6-0.6l1.7-1.7l-0.6-1.7l-5.6-3.7l1-1.3h-1l0.2-1.3l-1,0.4l-0.4-1.2l-1.1,1.1
		l-3.7-0.3l-2.6-1.9l2.4-5.9l-3-2.1l2-1.3l-0.7-1.7l1.3-2l-1.8-0.7l0.4-3.3l-2.8-2.2l2.4-0.9v-1.2l-0.8-0.6l-2,0.8l0.5-0.7l-1.1-1.1
		l1.1-1.4l-1.6-5.4l0,0l0.4-1l-0.9,0.7l-5.9-1.8l-1.8-2.3l3.3-7.9l-1.1-1.5l1.2,0.5l1.9-3l4.9-2l9.5-6.4l7-1.1l7.1-3l2.3,0.6
		l2.5-1.1l0.4,1l-0.3-1.2l4.1-1.9L264,89.8z"/>
	<path id="FR-R" class="st0" d="M126.4,263l1.5,1l-0.5,1.8l2.8,1.5l0.3,3l-2.2-3.6l-2-0.1l-1.5-1.7l-0.3-1.8L126.4,263z
		 M171.3,179.9l2.5,1.1l1.8-1.6l1.7,1.2l2.4-0.2l1.2,2.6l1.3-0.5l0.7,1.6l1.7-0.8l-0.6-1.4l1.6,0.3l1-1l0.5,2.4l3.8-1.6l1.6-2
		l4.3-0.1l1.6,1.5l1.2-2.2l1.9,0.8l1.1-1.6l-0.3-1.6h1.6l2.4,2l-1.1,1l1,3.1l3.6,0.4v4.4l1.9-1.3l2.2,1.1l0.5-1.7l3.3-1.9l-0.5-0.9
		l5.9-1.3l3.1,3.2l0.4,5.8l3.3,1.3l0.4-0.6l1.7,3.5l3.9,0.9l0.5-1.7l3.2,4.3l2.3-0.4l0,0l4.5,3.1l-2.5,0.3l-0.4,1.6l-1.1,0.3
		l1.2,0.3l-0.1,1.3l-1.9,0.1l0.1,1.9l1.7,0.5l-0.9,2.5l1.2,2.6l-1.3,0.5l-0.2,2.5l-0.8-1.3l-1.1,0.6l0.3,3.8l-2.9,2.7l0.4,0.9
		l-2.8,0.8l-1.6,1.9l0.4,1.6l0.9-0.3l-0.8,1.2l-5,1.5l-0.5,1.5l-2.5-1.4l-0.7,1.4l1.5,2.3l-0.7,0.5l-5.7-1.9l0,0l0.1,0.5l0,0
		l-1.5,3.2l1.2,0.6l-0.2,1.6l-2.6,5.7l1.1,1l-4,5.6l-0.8,6.6l0,0l-1.4-0.6l-1,0.8l-1.1,4.1l-1.9-0.8l-1.6,2.6l-1.9-0.9l1.4-1.8
		l-1.6-0.3l-0.8,0.8l-2.3-0.6l-4.9,0.8l-0.5,1.4l-2.8,0.7l0.8-1.6l-1.4-0.1l-2.4,1.1l0.5,1.7l-2.1,2l-2.7-0.4l-1.6,1.1l-2.7-1.2
		l-2.5,2l-1.6-0.3l1.3,0.7l-0.5,0.9h1.2l-0.5,0.6l1.9,0.7l-0.9,2l2.1,2.5l0,0h0.2l0,0l1.5,1l0,0h0.3l0,0l1,0.6l-0.7,0.7l0,0v0.2l0,0
		l-0.1,2l2.4,3l-0.9,0.7l1.6,1.3l-0.8,1.5l1.6,0.8l-0.5,2.6l0.9,2.4l-1.6,0.6l1.5,3.6l-1.3,3.2l0.8,0.4l0.5-1.2l2.6,1.6l-4.1,3.7
		l-1.9-0.5l-0.9,1.3l-4-1.9l0,0l-0.2-0.3l0,0l-0.7,1.4l-1.4-0.5l-1.7,0.9l-1.1-0.6l1.2-2.6l-4.7,1.2l-0.8,1.8H169l0,0l-3.3,0.1
		l-0.2,2.5l-4.2-3.5l0.7,2.4l-1.8-2.8h-4.7l-1.7-3.4l-5.1-0.9l-6.2-4.1l-1.6-6.4l-3.5-4.8l-7.4-6.8l-0.4-3.7l1.6-0.1l-0.4-0.9
		l3.3-3.3l0.2-2.3l1.9-1.1l-4.6-4.7l-5.6-1l3.1-2l-0.2-5.3l-1.6-0.4l-3.3,2.1l-2.9-2.6l-2.1,1.1l-4.3-1.7l1.4-1l0.1-1.6l-2-2
		l3.8-2.7v-1.4l0,0l1.3-1.6l0.8,1.2l3.2-0.3l0.7-3.1l2,1.2l2.3-1l0.8,1.3l0.3-1.7l2.3-0.6l0.6-6.6l4.1-2.5l0.7,1.3l3.6-2.1l7.6-0.1
		l1.5-3l5.7-2.2l-0.2-1.8l3.5,0.4l0.9,1.6l4.4,1.3l3.5-10.6l5.3-2.2l-2.2-11.2l0,0l-0.2-0.2l0,0l-0.8-3.6l2.1-3.6l-1.4-4.9
		L171.3,179.9z"/>
	<path id="FR-S" class="st0" d="M273.5,72.4l0.5,0.5l0,0l0.9,1.3l5.3-1.8l3.9,2.9l1.5-1.2l0.7,0.5l-1.3,1.3l0.5,0.7l4.9,2.1l0.4,3
		l1.6-0.5l0.7,1.1l4.6-2.3l2.2,0.9l0.2-1.6l1,1.9l1.8-1.6l1.7,0.3l1.6,2.1l-4,2.4l-0.5,2.6l1.6,1.3l2.4-3l1.3-0.2l0.7,1.6l0.7-1.7
		l0.9,0.2l-0.1,1.6l4.8,1.9l0.1-2.7l0.8,0.1l1.9,0.8l-1.3,4l4.2-2l0.3,3.4l2.1-1.6l1.9,0.5l1.6-1l3,0.4l2.9,2.5l3.3-1.2l0.7,1.1
		l1.9-0.1l1.3-1.2l4.8,1.1l2-2.2l2.6,1.7l1.7-0.3l0.2-1.5l1.9-0.9l5.9,1.9l0.5,1.6l3.6-2l-0.1,3l4,1.5l2.1-0.6l0,0l3.4,1.2l0,0
		l-0.5,2.6l1.5,0.5l-0.1,2.1l-1.8,5.2l1.6,1.4l-2.5,3.4l-2.3,1.2l-0.5,2.6l-2.8-0.3l-0.6,0.9l2.1,2.9l-1.1,1.6l1.1,1.2l-1.5,1l1,3.6
		l-1.2,0.5l-0.1,4.6l-2.9-1l-1.4-1.7l-2.6,1.6l-0.2,2l-2.7-0.6l-5,2.5l1.3,4.6l-0.9,1.3l1.1,0.9l0.6-0.5l0.6,1.7l1.3-0.3v1.3l-1.6,1
		l-3.1-0.5l-0.8,1.7l1.4,2.5l-1.9,1l-0.1,1.4l2.5-0.4l1,1.6l-3.3,3.1l0.5,1l-1.1,0.2l-0.1,1.5l-1.6,0.2l-1.6,3.5l0,0l-0.9,0.8
		l-0.5-1.3l-2.4-0.6l-0.5-3.3l-1.5,1.2l-0.9-2.4l-1.6,0.5l-0.5-1.9l-3.2-2.3l0.9-2.2l-2-3.2l-2.6-0.6l-0.1,1.8l-2.2-0.4l-0.8,1.2
		l-0.7-1.2l-4.5,1.3l-1.6-1.6l-2.8,2.1l-3.8-2.7l-1.8,1.6l-1.2-2.6l-0.7,1.5l-1.6-0.4l0.5-0.6l-1.6-1.4l-1,0.5l0.2-0.7l-2.5-0.7
		l-0.6,0.6l-1.6-2.2l-1.1,1.6l-2,0.5l-0.5-1.6l-1.8,0.9l-3.4-2.7l-3,2l-4.5,0.7l-2.8-1.4l-1.8,0.5l-0.7-1.1l0,0h-0.4l0,0l0.5-1.7
		l-1.4-0.5l0,0l0.2-1.9l1.8-0.5l1.2,1.6l0.5-1.6l-1.2-1l-0.5-4.3L277,129l0.7-0.7l-1-0.1l1.8-3.4l0,0l0.4-0.3l0,0l0.7-2l-1.2-0.5
		l-0.5,1.3l-1-0.8l1.2-2l-2-2.6l0,0h0.2l0,0l0.8-2.4l-0.9-1.2l2-2.9l-1.7,0.8l-0.6-0.8l2.3-4l1.4,0.1l-1.9-3.1l-0.8-4.2l-9.9-8.9
		l-0.1-1.8l-2.7,0.4l0,0l2.8-2.6l2.6-5.8l1.7-0.5l0.7,1.7l2.7,0.7l1.1-0.8l-5.7-5.1l0.6-5.2L273.5,72.4z"/>
	<path id="FR-T" class="st0" d="M158.6,316.8l3.5,2.9l2.9,0.5l0.1,3l1.9,3.7l-1.7,3.3l-1.5-4.4l-4.5-3.9L158.6,316.8z M154.6,305.4
		l1.4,1.3l-1.7,0.3l0.7,1.4l3.4-1.5l-1,0.9l0.5,0.6l2.3-0.5l4.4,2.6l-2.2,1.1l-5.7-3.2h-2.7l-1.1-2.3L154.6,305.4z M169.6,302.2h1.6
		l0.8-1.8l4.7-1.2l-1.2,2.6l1.1,0.6l1.7-0.9l1.4,0.5l0.7-1.4l0,0l0.2,0.3l0,0l4,1.9l0.9-1.3l1.9,0.5l4.1-3.7l-2.6-1.6l-0.5,1.2
		l-0.8-0.4l1.3-3.2l-1.5-3.6l1.6-0.6l-0.9-2.4l0.5-2.6l-1.6-0.8l0.8-1.5l-1.6-1.3l0.9-0.7l-2.4-3l0.1-2l0,0v-0.2l0,0l0.7-0.7l-1-0.6
		l0,0h-0.3l0,0l-1.5-1l0,0h-0.2l0,0l-2.1-2.5l0.9-2l-1.9-0.7l0.5-0.6h-1.2l0.5-0.9l-1.3-0.7l1.6,0.3l2.5-2l2.7,1.2l1.6-1.1l2.7,0.4
		l2.1-2l-0.5-1.7l2.4-1.1l1.4,0.1l-0.8,1.6l2.8-0.7l0.5-1.4l4.9-0.8l2.3,0.6l0.8-0.8l1.6,0.3l-1.4,1.8l1.9,0.9l1.6-2.6l1.9,0.8
		l1.1-4.1l1-0.8l1.4,0.6l0,0l1,2.5l2.3-0.4l-0.2,1l1,0.4l0.7-0.8l0.7,1.3l-0.8,1.8l2.6-0.7l0.9,1.6l1.3-0.5l0.4,2.9l-0.8,0.5
		l1.2,3.3l1.6-1l2.7,1.1l2.6-1.6l3.5,0.1l-1.2-2.7l1.9-0.1l2.8,1.8l0.5,3.9l3.5,2.9l0.7,3.4l3.7,3.5l0.5,1.8l-1.4,3.6l0.7,1.6
		l3.9,1.8l0.2,1.7h2.7l1.9,1.6l0.3,3.2l2.3,0.8l-0.5,1.7l0,0l-0.7,0.9l0,0l0,0l0,0l-0.8-0.3l-1,2.3l-3.1-0.8l-1.6,4.5l-3.9-0.5
		l-1.9,3.1l-2.2,1l2,4.1l-1.4,0.7l0.9,1.5l-0.8,2.5l1.6,1.7l1-0.7l1.6,1.2l0.8,2.2l-2.5,2.6l-2.6-0.5l0.5,2.6l-1.6,4.9l-2.6-0.7
		l0.1,2.3l-3.2,2.8l0,0l-2.5,4.1h-2.1l-0.3,4.4l-2.1,1.5l-0.6,2h-1.9l-1.9,2.4l-1.1-0.9l0.5,1.2l-1.6,0.5l-1.1,3.1l0.7,3.9l-3.5,1.9
		l-1.6,2.9l-3-1.1l-1.8,1.3l-1,2l0.9,0.6l-1.6,0.7l-0.3,2.2l-1.6-1.3l-2.1,1.7l-1.8-0.3l-2.6-1.1l-0.8-1.5l-1.3,0.3l-0.9-1.6l-1-0.2
		l-0.8,1.4l-0.6-2l0,0l-0.1-0.3l0,0l-0.9-4.9l-5.3-1l-0.8-2.7l-0.3,1.4l-4.6-0.4l0,0l-1.5-5.3l-2.5-3.6l-5.7-3.6l-2-3.4l-6.9-4
		l-1,0.2l0.5,1.1l-0.5-1.1l-0.1-5l3.9-0.9l-1.7-2.7l2.4-0.3l1.6-2.6l-1-2l0.8-0.2l-0.2-1.6l-1.4-1.3h2.6l-1.8-5l-1.6-0.6l0.5-1.1
		l-1.7-0.5l0.9-1L166,311l-1.2-1l1.5-2.6l3.4-2.6l-0.9-2.3L169.6,302.2z"/>
	<path id="FR-U" class="st0" d="M400.9,404.1l0.4,0.5l0,0l2.6,1.6l0,0v0.3l0,0l-1.8,0.8l-1.4,3.6l-3.6-0.6l-0.5-2.4l1.4-2.5l0,0
		l0.4-0.5l0,0l0.3-0.2l0,0l0.6-0.2l0,0l1.2-0.9l0,0l0.2,0.4l0,0h0.4l0,0V404.1z M414.2,467.2l1.3-2.2l-1.1-1.3l1-0.7l-2.5-3.5
		l-3.1,1.7l-6.8,0.2l-3-5.2l-1.9-0.4l-1,1.4l0.5-1.3l-0.9,0.5l-0.8-1.8l0.6,2.3l-1.8-1l1.3,1.5l-2.1,0.8l1.7-0.1l-0.6,0.6l1.6,1
		l1.5-1.3l-3,2.7l-9.7-1.7l-0.9-1.1l1.3-2.2l-2.2-1.6l-11.5-0.5l0,0l0.4-2l3.1-1.5l-0.4-1.4l0.7,1l4.8-2.8l0.4-1.2l-1.7-0.6l2.3-3.8
		l2.1-0.5l3.3,1.1l-0.5-2.1l2.1-6.2l-1-1.1l6.6-5v-1.3l1.2-0.1l-2.2-4l-2.5-0.8v-5.6l-0.5-1.4l-1.3-0.1l-0.9-2.9l0,0v-3.1l5.2,0.9
		l1.2,4.6l9.1-4.2l1.8,1.6l1.6-1.7l0,0l0.6-0.3l0,0L407,414l2.9,1.1l0.7-1.1l1.8,1.3l2.2-0.4l1.1,0.7l-0.1,2.4l2,0.2l0.7,1.7
		l3.3-0.7l2.3-3.1l1.5,1.3l-0.4,0.9l1.8,0.2l0.2-0.9l-1.5-0.5l1.6-1.3v-3.7h-1.5l-0.4-1.8l-1.1-0.3l0.8-1.5l-3.1,0.2l-1-1.1
		l-1.1,0.7l-2.4-1.9l-0.5-2.6l2.2,0.3l0.8-0.9l-1.3-0.5l-0.3-2.7l5.9,1.5l0.5-1.6l1.4-0.1l-2.6-2.2l1.9-3.6l-0.2-2.1l3.3,0.6
		l0.7-1.2l1.6,0.5l1.6-1.9l-1.2-0.8l1.1-2.8l2.1,0.7l2.6-0.7l1.1-1.1l-1.2-1.3l2.6-1.6l1.5,1l2.9-2.6l4.3,0.6l1.6-1.2l2.5,1l0.1-4.5
		l-1.4-0.8v-2.4l-4.6-0.9l1.6-5.6l1.8,0.6l1.5-0.8l1.2,2.8l3.3,1l1.4-0.2l-0.3-2l1.1-0.9l1.2,0.5l1.4-1.3l2,0.8l0,0l1.6,4.8l2.6,0.3
		l0.3,5.8l4.3,2.9l1.7,0.4l0.9-1l3.3,2.1l-0.8,1.8l2.9,5.7l-4.3,0.4l0.2,3.1l-4.3,4.7l0.8,2.6l2.6,2.6l-2.1,0.5l-0.2,3.1l4.1,4.4
		l0.5,2.4l6.8,1.8l3.5,3.2l2.4-0.3l0.5,1.6l2.6,0.2l0.2-0.9l7.1-1l0.7-1.5l1.8,0.1l-0.6,2.3l1.8,2.5l-0.4,2.2l-1.6,0.7l-0.4,2.8
		l-3.2,1.7l-0.4,2.4l-2.3,1.2l1.3,4.7l-4.7,3.3l-2.6,0.4l-0.2,1.9l-0.6-1.6l-0.5,1.1l-2.4-0.2l-1.3,2l-2-0.1l-1.4,3.5l0.9,1.8
		l-0.9,0.5l-0.9-1.6l-2.3,1.8l-0.8-0.8l-2,0.5l-1,1.5l0.7,0.9l-2.5,3.6l-3.8,1l-1.6-0.7l-1.1,3.9l-5.4,3.9l4.7,0.3l-1.2,1.3l0.6,2.3
		l-1.5,0.6l0.2,1l-1,0.5l-2.3-1.6l-2.5,2l-4.2,0.4l-0.8,3l-3.4-1.8l-3.3,0.4l-1.4,2.6l0.2,2l-2.3-0.1l1.3-0.8l-0.2-1.8l-3.9,0.1
		l-0.7-1.5l-2.8,0.2l-0.2-1.2l-1.6,1.2l2.6,1.8l-2.2-0.5l-1.2,1.6l-1.2-0.2l-1.4-1l0.5-2.4h-1.6l0.2-1.2l-2.9-0.3l-0.4-1.8l-2.5-0.4
		l-0.6,1.4l-2.6-2.8l-1.4,0.9L414.2,467.2z"/>
	<path id="FR-V" class="st0" d="M359.5,304.4l-0.4,3.4l3.1,0.6l0.6,1.8l4.3-1.6l2.8,1.4l1.1-1.1l0.7,0.9l1.1-0.5l-0.2,1.6l1,0.1
		l3.6-1.6l1.3-6l2-0.1l1.7,1.6l2.5-1.5l1.9,1.6l0.7-1.9l1.6-0.3l1.2,1.5l-1.2,1.1l2.2,1.4l-0.6,2.1l1.5,1.2l0.8-0.2l6.1-18.7l0.4,1
		l1.3-0.7l2.7,1.7l4.2-1.1v-0.8l1.5,0.7l1.1,2.6l3,0.6l0,0l-0.5,1.8l2.9,1.7l-0.6,0.6l1.6,3.3l0.8-2l0.5,1.8h1.5l-0.1,2.8l2.5-0.2
		l3.9-4.2l0.1,1.1l2.6,0.8l0.5,2.6l5.5-0.2l7.4-8.3l0,0l4,2.7l-2.6,4.5l0.8,1.8l-5.5,1.9l-0.5,1.1l1.1,0.8l-1.4,2.9l3.6-1.3l2.9,0.6
		l6.3-4.7l0.5-1.7l-1.8,0.3l-0.5-2.8l-1-0.5l1.2-2.6l10.1-5.3l6.2,0.1l5.2,1.5l-1.8,3.9l3.6,4.1l-2.3,4.2l-0.3,3.6l3.8,0.7l-0.9,4.1
		l2.3-0.9l3.9,6l0.3,1.7l-1.8,2.8l-3.2,1.7l-3.6,0.2l-0.5,6l4.1,4l3.2,0.6l-0.9,2.8l0.9,4.5l2.1,0.5l-0.2,1.2l1.9,0.1l0.5,1.9
		l2.7,1.5l-2.9,4.2l0.9,3.8l-2.5,2.4l-2.6-0.5l-2.1,2.7l-2,0.1v1.7l-1.6,0.5l-3.1-1.7l-5.2,2.6l0,0l-2-0.8l-1.4,1.3l-1.2-0.5
		l-1.1,0.9l0.3,2l-1.4,0.2l-3.3-1l-1.2-2.8l-1.5,0.8l-1.8-0.6l-1.6,5.6l4.6,0.9v2.4l1.4,0.8l-0.1,4.5l-2.5-1l-1.6,1.2l-4.3-0.6
		l-2.9,2.6l-1.5-1l-2.6,1.6l1.2,1.3l-1.1,1.1l-2.6,0.7l-2.1-0.7l-1.1,2.8l1.2,0.8l-1.6,1.9l-1.6-0.5l-0.7,1.2l-3.3-0.6l0.2,2.1
		l-1.9,3.6l2.6,2.2l-1.4,0.1l-0.5,1.6l-5.9-1.5l0.3,2.7l1.3,0.5l-0.8,0.9l-2.2-0.3l0.5,2.6l2.4,1.9l1.1-0.7l1,1.1l3.1-0.2l-0.8,1.5
		l1.1,0.3l0.4,1.8h1.5v3.7l-1.6,1.3l1.5,0.5l-0.2,0.9l-1.8-0.2l0.4-0.9l-1.5-1.3l-2.3,3.1l-3.3,0.7l-0.7-1.7l-2-0.2l0.1-2.4
		l-1.1-0.7l-2.2,0.4l-1.8-1.3l-0.7,1.1l-2.9-1.1l0.5-4.4l0,0l-0.6,0.3l0,0l-1.6,1.7l-1.8-1.6l-9.1,4.2l-1.2-4.6l-5.2-0.9v3.1l0,0
		l-5.5-3.8l-2.5,0.1l-0.5,2.9l-1.6-0.4l-0.1-2.9l-2.5,0.5l-2.6,3.8l-4.8-3.7l-3.1,0.9l-0.3-3.8l1.1-0.7l-3.1-3.6l-1.4-5.2l-1.9-1.3
		l-1.6-7.9l0,0l2.4-1.3l1-3.1l1.5,0.8l-0.2-1.1l0.6,0.7l1.1-0.7l0.3-2.1h4.7l2.6-4.8l3.4-0.5l-0.6-2.5l3.2-0.9l-1.3-2.1l0.9-1.6
		l1,0.1l0,0v-0.5l0,0l-0.9-1.6l1.8,0.4l0.5,1.4l0.8-0.5l-0.4-2.3l1.6-3.3l-2.1-2.8l-1.8,1l-1.5-1l0.8-1.5l-1.5-0.9l1.4-1l-1.3-1.7
		l-2.4,0.5l-1.5-1.6l-2.1-0.2l-1.3,0.5l0.4,1l-2.7,0.4l-0.4,1.2l-2-0.6l-0.1,1.1l-1.3-2.4l-1.5-0.2l-1.6,2.3l-0.5-3.3l2.8-2.2
		l0.8-3.2l-1.9-4.5l-4.2-2.9l-1.8-3.2l0.1-1.8l-3.5-3.6l1.3-1.2l-0.3-3.1l1.5-0.9l-2.4-2.4l0.3-2.1l3.3-0.2l1.6-1.4l-1-2.9l0.6-1.9
		l-1.1-1.3l0.5-2.7l-1.6-4.2l4.4-1.9l0,0h0.4l0,0L359.5,304.4z M398.4,404.5L398.4,404.5l-0.3,0.2l0,0l-0.4,0.5l0,0l-1.4,2.5
		l0.5,2.4l3.6,0.6l1.4-3.6l1.8-0.8l0,0v-0.3l0,0l-2.6-1.6l0,0l-0.5-0.5l0,0h-0.4l0,0l-0.2-0.4l0,0l-1.2,0.9L398.4,404.5z"/>
</g>
<g id="Calque_2_1_">
	<circle class="st1" cx="192.4" cy="369.4" r="11.6"/>
	<circle class="st1" cx="426.2" cy="351.6" r="11.6"/>
	<circle class="st2" cx="153.7" cy="243.2" r="11.6"/>
	<circle class="st2" cx="194.9" cy="236" r="11.6"/>
	<circle class="st2" cx="236.5" cy="237.6" r="11.6"/>
	<circle class="st2" cx="299.1" cy="216.8" r="11.6"/>
	<circle class="st2" cx="203.3" cy="144.5" r="11.6"/>
	<circle class="st2" cx="151.6" cy="199" r="11.6"/>
	<circle class="st3" cx="56.3" cy="185.3" r="11.6"/>
	<circle class="st3" cx="269.4" cy="318.2" r="11.6"/>
	<circle class="st3" cx="282.7" cy="150.8" r="11.6"/>
	
		<ellipse transform="matrix(0.1602 -0.9871 0.9871 0.1602 93.2827 362.1585)" class="st3" cx="259.5" cy="126.3" rx="11.6" ry="11.6"/>
	<circle class="st3" cx="220" cy="127.8" r="11.6"/>
	<circle class="st3" cx="418.6" cy="435" r="11.6"/>
	<circle class="st3" cx="376.6" cy="421.6" r="11.6"/>
	<circle class="st3" cx="489.6" cy="425.6" r="11.6"/>
	<circle class="st3" cx="378.8" cy="347.4" r="11.6"/>
	<circle class="st3" cx="422.9" cy="142.5" r="11.6"/>
	<circle class="st2" cx="305.4" cy="158.6" r="11.6"/>
	<circle class="st3" cx="417.8" cy="458.4" r="11.6"/>
	<circle class="st3" cx="315.5" cy="491.1" r="11.6"/>
	<circle class="st2" cx="224.3" cy="202.8" r="11.6"/>
	<circle class="st2" cx="299.8" cy="107.8" r="11.6"/>
	<circle class="st4" cx="357.5" cy="145.6" r="11.6"/>
	<circle class="st4" cx="432.7" cy="164.7" r="11.6"/>
	<circle class="st4" cx="480.1" cy="218.6" r="11.6"/>
	<circle class="st4" cx="438" cy="244.2" r="11.6"/>
	<circle class="st2" cx="390.8" cy="239.1" r="11.6"/>
	<circle class="st4" cx="402.8" cy="318.7" r="11.6"/>
	<circle class="st4" cx="328.6" cy="334.3" r="11.6"/>
	<circle class="st4" cx="357.3" cy="443.1" r="11.6"/>
	
		<ellipse transform="matrix(0.1602 -0.9871 0.9871 0.1602 -224.4276 633.7949)" class="st4" cx="260.3" cy="448.8" rx="11.6" ry="11.6"/>
	<circle class="st4" cx="451.6" cy="461.2" r="11.6"/>
	<circle class="st4" cx="380.4" cy="319.3" r="11.6"/>
	<circle class="st2" cx="323.4" cy="67.6" r="11.6"/>
	<circle class="st2" cx="483.8" cy="165.1" r="11.6"/>
</g>
<g id="Calque_3">
	<path d="M164.8,154.9c-0.5-0.7-0.8-1.5-0.8-2.4c0-0.2,0-0.6,0-1.1c0-0.5,0-0.9,0-1.1c0-0.9,0.3-1.7,0.8-2.4
		c0.6-0.6,1.5-0.9,2.4-0.9c0.6,0,1.2,0.1,1.8,0.4c0.4,0.2,0.8,0.6,1,1c0.2,0.4,0.3,0.8,0.4,1.2l0,0c0,0.1,0,0.1-0.1,0.1
		c-0.1,0-0.1,0.1-0.2,0.1h-0.2c-0.1,0-0.2-0.1-0.3-0.2c-0.1-0.6-0.4-1.1-0.8-1.4c-0.5-0.3-1-0.5-1.6-0.4c-0.7,0-1.3,0.2-1.8,0.6
		c-0.5,0.6-0.7,1.3-0.7,2c0,0.2,0,0.6,0,1s0,0.8,0,1c0,0.7,0.2,1.4,0.7,1.9c0.5,0.5,1.1,0.7,1.8,0.6c0.6,0,1.1-0.1,1.6-0.4
		c0.4-0.4,0.7-0.9,0.8-1.4c0-0.2,0.1-0.2,0.3-0.2h0.2c0.1,0,0.1,0,0.2,0.1c0.1,0,0.1,0.1,0.1,0.2c0,0.4-0.2,0.8-0.4,1.2
		c-0.3,0.4-0.6,0.8-1,1c-0.5,0.3-1.2,0.4-1.8,0.4C166.2,155.9,165.4,155.5,164.8,154.9z"/>
	<path d="M172.5,155.5c-0.3-0.1-0.6-0.4-0.8-0.6c-0.5-0.7-0.3-1.7,0.4-2.2c0.5-0.4,1.1-0.6,1.7-0.7l1.9-0.3v-0.4
		c0-0.4-0.1-0.7-0.4-1c-0.4-0.3-0.8-0.4-1.2-0.4c-0.3,0-0.7,0.1-1,0.2c-0.2,0.1-0.4,0.3-0.5,0.6c0,0.1-0.1,0.1-0.1,0.2
		c-0.1,0-0.1,0-0.2,0h-0.2c-0.1,0-0.1,0-0.2-0.1c-0.1,0-0.1-0.1-0.1-0.2c0-0.2,0.1-0.4,0.2-0.6c0.2-0.3,0.4-0.5,0.7-0.6
		c0.4-0.2,0.8-0.3,1.2-0.3c0.7-0.1,1.3,0.2,1.8,0.6c0.4,0.4,0.6,0.9,0.5,1.5v4c0,0.1-0.1,0.2-0.2,0.3c0,0,0,0,0,0H176
		c-0.1,0-0.1,0-0.2-0.1c0-0.1-0.1-0.1-0.1-0.2v-0.6c-0.2,0.3-0.5,0.5-0.8,0.7c-0.4,0.2-0.9,0.3-1.4,0.3
		C173.2,155.8,172.9,155.7,172.5,155.5z M175.2,154.5c0.4-0.5,0.6-1.1,0.6-1.7v-0.4l-1.5,0.2c-0.5,0-1,0.2-1.5,0.5
		c-0.3,0.2-0.5,0.5-0.5,0.8c0,0.3,0.2,0.7,0.5,0.8C173.5,155.3,174.5,155.2,175.2,154.5L175.2,154.5z"/>
	<path d="M178.8,155c-0.5-0.6-0.8-1.3-0.8-2v-1c0-0.7,0.3-1.4,0.8-2c0.5-0.5,1.2-0.8,1.9-0.8c0.7,0,1.5,0.3,2,0.8
		c0.5,0.6,0.7,1.5,0.7,2.3v0.2c0,0.1,0,0.1-0.1,0.2c-0.1,0-0.1,0.1-0.2,0.1h-4.3v0.1c0,0.3,0.1,0.7,0.3,1c0.1,0.3,0.4,0.6,0.6,0.8
		c0.3,0.2,0.6,0.3,1,0.3c0.4,0,0.7-0.1,1.1-0.2c0.2-0.1,0.4-0.3,0.6-0.5c0.1-0.1,0.1-0.1,0.2-0.2c0.1,0,0.1,0,0.2,0h0.2
		c0.1,0,0.1,0,0.2,0.1c0,0,0.1,0.1,0.1,0.2c0,0.2-0.1,0.5-0.3,0.6c-0.2,0.3-0.5,0.5-0.9,0.6c-0.4,0.2-0.8,0.3-1.3,0.3
		C180,155.8,179.3,155.5,178.8,155z M182.6,152.2L182.6,152.2c0-0.6-0.2-1.1-0.5-1.5c-0.7-0.8-1.9-0.8-2.7-0.1c0,0-0.1,0.1-0.1,0.1
		c-0.4,0.4-0.5,1-0.5,1.5l0,0H182.6z"/>
	<path d="M185,155.6c0-0.1-0.1-0.1-0.1-0.2v-5.7c0-0.1,0-0.1,0.1-0.2c0.1,0,0.1-0.1,0.2-0.1h0.2c0.1,0,0.2,0.1,0.3,0.2c0,0,0,0,0,0
		v0.6c0.5-0.6,1.2-1,2-0.9c0.7,0,1.4,0.2,1.8,0.8c0.4,0.5,0.7,1.2,0.6,1.9v3.4c0,0.1,0,0.1-0.1,0.2c-0.1,0-0.1,0.1-0.2,0.1h-0.2
		c-0.1,0-0.2-0.1-0.3-0.2c0,0,0,0,0,0v-3.4c0-0.5-0.1-1.1-0.5-1.5c-0.3-0.4-0.8-0.6-1.4-0.5c-0.5,0-1,0.2-1.4,0.5
		c-0.4,0.4-0.5,1-0.5,1.5v3.4c0,0.1-0.1,0.2-0.2,0.3c0,0,0,0,0,0h-0.2C185.1,155.7,185,155.6,185,155.6z"/>
	<text transform="matrix(1 0 0 1 189.9245 185.4389)" class="st5 st6">L</text>
	<text transform="matrix(1 0 0 1 196.3445 185.4389)" class="st5 st6">e Mans</text>
	<text transform="matrix(1 0 0 1 241.3445 111.5989)" class="st5 st6">R</text>
	<text transform="matrix(1 0 0 1 248.9545 111.5989)" class="st5 st6">ouen</text>
	<text transform="matrix(1 0 0 1 174.6445 113.1689)" class="st5 st6">L</text>
	<text transform="matrix(1 0 0 1 181.0645 113.1689)" class="st5 st6">e H</text>
	<text transform="matrix(1 0 0 1 199.1144 113.1689)" class="st5 st6">a</text>
	<text transform="matrix(1 0 0 1 205.4445 113.1689)" class="st5 st6">v</text>
	<text transform="matrix(1 0 0 1 211.8845 113.1689)" class="st5 st6">r</text>
	<text transform="matrix(1 0 0 1 215.9145 113.1689)" class="st5 st6">e</text>
	<text transform="matrix(1 0 0 1 98.3945 205.7689)" class="st5 st6">R</text>
	<text transform="matrix(1 0 0 1 106.0045 205.7689)" class="st5 st6">ennes</text>
	<text transform="matrix(1 0 0 1 11.2745 186.9189)" class="st5 st6">B</text>
	<text transform="matrix(1 0 0 1 19.1145 186.9189)" class="st5 st6">r</text>
	<text transform="matrix(1 0 0 1 23.1445 186.9189)" class="st5 st6">est</text>
	<text transform="matrix(1 0 0 1 315.8945 113.9589)" class="st5 st6">Amiens</text>
	<text transform="matrix(1 0 0 1 339.2845 70.9489)" class="st5 st6">Lille</text>
	<path class="st7" d="M296.5,111.6c0-0.1-0.1-0.1-0.1-0.2v-1.9h-4c-0.1,0-0.1,0-0.2-0.1c-0.1-0.1-0.1-0.1-0.1-0.2v-0.2
		c0-0.1,0-0.3,0.1-0.4l3.6-5.2c0-0.1,0.1-0.1,0.2-0.2c0.1,0,0.2,0,0.3,0h0.5c0.1,0,0.1,0,0.2,0.1c0,0.1,0.1,0.1,0.1,0.2v5.3h1.1
		c0.1,0,0.2,0.1,0.3,0.2c0,0,0,0,0,0v0.2c0,0.1,0,0.1-0.1,0.2c-0.1,0-0.1,0.1-0.2,0.1h-1.1v1.9c0,0.1-0.1,0.3-0.2,0.3c0,0,0,0-0.1,0
		h-0.2C296.6,111.7,296.5,111.7,296.5,111.6z M296.4,108.8v-4.7l-3.3,4.7H296.4z"/>
	<path class="st7" d="M299.4,112.5c0,0,0-0.1,0-0.1c0,0,0,0,0-0.1l0.2-1.4c0-0.2,0.1-0.3,0.3-0.3h0.5c0.1,0,0.1,0,0.1,0.1
		c0,0,0,0.1,0,0.1c0,0.1,0,0.2,0,0.2l-0.5,1.4c0,0.1-0.1,0.1-0.1,0.2c-0.1,0-0.1,0.1-0.2,0.1h-0.2
		C299.5,112.6,299.5,112.6,299.4,112.5z"/>
	<path class="st7" d="M302.3,111.6c-0.1-0.1-0.1-0.1-0.1-0.2v-0.2c0-0.2,0.1-0.4,0.3-0.5l3.1-3.1c0.3-0.3,0.6-0.6,0.9-1
		c0.2-0.3,0.2-0.7,0.2-1c0-0.5-0.1-0.9-0.5-1.3c-0.4-0.3-0.8-0.5-1.3-0.4c-0.5,0-0.9,0.1-1.3,0.5c-0.3,0.3-0.5,0.8-0.6,1.3
		c0,0.1,0,0.1-0.1,0.2c0,0-0.1,0.1-0.2,0.1h-0.2c-0.1,0-0.1,0-0.2-0.1c0,0-0.1-0.1-0.1-0.2c0-0.4,0.1-0.8,0.3-1.2
		c0.2-0.4,0.5-0.8,0.9-1c0.4-0.3,0.9-0.4,1.4-0.4c0.7-0.1,1.4,0.2,1.9,0.7c0.4,0.5,0.6,1.1,0.6,1.7c0,0.5-0.1,0.9-0.3,1.3
		c-0.3,0.5-0.6,0.9-1,1.2l-2.8,2.9h4c0.1,0,0.1,0,0.2,0.1c0,0.1,0.1,0.1,0.1,0.2v0.2c0,0.1,0,0.1-0.1,0.2c-0.1,0-0.1,0.1-0.2,0.1
		h-4.9C302.4,111.6,302.3,111.6,302.3,111.6z"/>
	<path class="st7" d="M321.8,71.8c-0.4-0.2-0.7-0.5-0.9-0.8c-0.2-0.3-0.3-0.7-0.4-1.1l0,0c0-0.1,0-0.1,0.1-0.2c0,0,0.1-0.1,0.2-0.1
		h0.2c0.1,0,0.1,0,0.2,0.1c0.1,0.1,0.1,0.1,0.1,0.2c0.1,0.4,0.4,0.8,0.7,1.1c0.4,0.2,0.8,0.4,1.3,0.4c0.6,0,1.1-0.2,1.5-0.5
		c0.4-0.4,0.6-1,0.6-1.5c0-0.4-0.1-0.7-0.3-1c-0.2-0.3-0.5-0.5-0.8-0.7c-0.3-0.2-0.7-0.2-1.1-0.2c-0.3,0-0.5,0-0.8,0.1
		c-0.2,0.1-0.4,0.2-0.6,0.3c-0.1,0.1-0.2,0.1-0.3,0.2c-0.1,0-0.2,0.1-0.2,0.1h-0.2c-0.1,0-0.1,0-0.2-0.1c-0.1,0-0.1-0.1-0.1-0.2
		l0.4-3.9c0-0.1,0-0.1,0.1-0.2c0-0.1,0.1-0.1,0.2-0.1h3.9c0.1,0,0.1,0,0.2,0.1c0.1,0,0.1,0.1,0.1,0.2v0.2c0,0.1-0.1,0.2-0.2,0.3
		c0,0,0,0,0,0H322l-0.3,2.7c0.5-0.3,1-0.4,1.5-0.4c0.5,0,1,0.1,1.5,0.3c0.4,0.2,0.8,0.5,1,0.9c0.3,0.4,0.4,0.9,0.4,1.5
		c0,0.5-0.1,1.1-0.4,1.5c-0.2,0.4-0.6,0.8-1,1c-0.5,0.2-1,0.3-1.5,0.3C322.8,72.2,322.3,72,321.8,71.8z"/>
	<path class="st7" d="M147.5,246.7c-0.4-0.2-0.8-0.6-1-1c-0.2-0.4-0.3-0.9-0.3-1.4c0-0.8,0.3-1.5,0.8-2.1l2.4-3.3c0,0,0,0,0.1-0.1
		c0,0,0.1-0.1,0.1-0.1c0.1,0,0.1,0,0.2,0h0.2c0.1,0,0.1,0,0.2,0.1c0,0.1,0.1,0.1,0.1,0.2c0,0.1,0,0.1-0.1,0.2l-1.8,2.5
		c0.3-0.1,0.5-0.1,0.8-0.1c0.6,0,1.1,0.1,1.6,0.4c0.4,0.2,0.8,0.6,1,1c0.2,0.4,0.3,0.9,0.3,1.4c0,0.5-0.1,1-0.3,1.4
		c-0.2,0.4-0.6,0.8-1,1C149.6,247.2,148.5,247.2,147.5,246.7L147.5,246.7z M150.1,246.1c0.3-0.2,0.6-0.4,0.8-0.7
		c0.2-0.3,0.3-0.7,0.3-1.1c0-0.4-0.1-0.8-0.3-1.1c-0.2-0.3-0.5-0.6-0.8-0.7c-0.3-0.2-0.7-0.3-1.1-0.2c-0.4,0-0.7,0.1-1.1,0.2
		c-0.3,0.2-0.6,0.4-0.8,0.7c-0.2,0.3-0.3,0.7-0.3,1.1c0,0.4,0.1,0.8,0.3,1.1c0.2,0.3,0.5,0.6,0.8,0.7c0.3,0.2,0.7,0.2,1.1,0.2
		C149.4,246.4,149.8,246.3,150.1,246.1L150.1,246.1z"/>
	<path class="st7" d="M153.2,247.8c0,0,0-0.1,0-0.1c0,0,0-0.1,0-0.1l0.2-1.4c0-0.2,0.1-0.3,0.3-0.3h0.6c0.1,0,0.1,0,0.1,0.1
		c0,0,0,0.1,0,0.1c0,0.1,0,0.1,0,0.2l-0.5,1.4c0,0.1-0.1,0.1-0.1,0.2c0,0-0.1,0.1-0.2,0.1h-0.2C153.3,247.9,153.2,247.9,153.2,247.8
		z"/>
	<path class="st7" d="M156,246.9c-0.1,0-0.1-0.1-0.1-0.2v-0.2c0-0.2,0.1-0.4,0.3-0.5l3.1-3.1c0.3-0.3,0.6-0.6,0.9-1
		c0.2-0.3,0.2-0.7,0.2-1c0-0.5-0.1-0.9-0.5-1.3c-0.4-0.3-0.8-0.5-1.3-0.4c-0.5,0-0.9,0.1-1.3,0.5c-0.3,0.3-0.5,0.8-0.6,1.3
		c0,0.1,0,0.2-0.1,0.2c0,0-0.1,0.1-0.2,0.1h-0.3c-0.1,0-0.1,0-0.2-0.1c0,0-0.1-0.1-0.1-0.2c0-0.4,0.1-0.8,0.3-1.2
		c0.2-0.4,0.5-0.8,0.9-1c0.4-0.3,0.9-0.4,1.4-0.4c0.7-0.1,1.4,0.2,1.9,0.7c0.4,0.5,0.6,1.1,0.6,1.7c0,0.5-0.1,0.9-0.3,1.3
		c-0.3,0.5-0.6,0.9-1,1.2l-2.8,2.9h4c0.1,0,0.2,0,0.2,0.1c0,0.1,0.1,0.1,0.1,0.2v0.2c0,0.1,0,0.1-0.1,0.2c-0.1,0.1-0.1,0.1-0.2,0.1
		h-4.9C156.1,247,156,246.9,156,246.9z"/>
	<path class="st7" d="M189,239.6c-0.4-0.2-0.7-0.5-1-0.8c-0.2-0.3-0.3-0.7-0.4-1.1l0,0c0-0.1,0-0.1,0.1-0.1c0.1,0,0.1,0,0.2,0h0.2
		c0.1,0,0.1,0,0.2,0c0.1,0.1,0.1,0.1,0.1,0.2c0.1,0.4,0.4,0.8,0.7,1.1c0.4,0.2,0.8,0.4,1.3,0.4c0.6,0,1.1-0.2,1.5-0.6
		c0.4-0.4,0.6-1,0.6-1.5c0-0.7-0.4-1.4-1.1-1.7c-0.3-0.2-0.7-0.2-1.1-0.2c-0.3,0-0.5,0-0.8,0.1c-0.2,0.1-0.4,0.2-0.6,0.3
		c-0.1,0.1-0.2,0.1-0.3,0.2c-0.1,0-0.2,0.1-0.2,0.1h-0.3c-0.1,0-0.1,0-0.2-0.1c-0.1,0-0.1-0.1-0.1-0.2l0.4-3.9c0-0.1,0-0.1,0.1-0.2
		c0.1,0,0.1-0.1,0.2-0.1h3.9c0.1,0,0.1,0,0.2,0.1c0.1,0,0.1,0.1,0.1,0.2v0.2c0,0.1,0,0.1-0.1,0.2c-0.1,0-0.1,0.1-0.2,0.1h-3.4
		l-0.2,2.7c0.5-0.3,1-0.4,1.5-0.4c0.5,0,1,0.1,1.5,0.3c0.4,0.2,0.8,0.5,1,0.9c0.3,0.4,0.4,0.9,0.4,1.5c0,0.5-0.1,1.1-0.4,1.5
		c-0.2,0.4-0.6,0.8-1,1c-0.5,0.2-1,0.3-1.5,0.3C189.9,239.9,189.4,239.8,189,239.6z"/>
	<path class="st7" d="M194.5,240.6c0,0,0-0.1,0-0.1c0,0,0-0.1,0-0.1l0.2-1.4c0-0.2,0.1-0.3,0.3-0.3h0.5c0.1,0,0.1,0,0.1,0.1
		c0,0,0,0.1,0,0.1c0,0.1,0,0.2,0,0.2l-0.5,1.4c0,0.1-0.1,0.1-0.1,0.2c-0.1,0-0.1,0.1-0.2,0.1h-0.2
		C194.6,240.7,194.6,240.6,194.5,240.6z"/>
	<path class="st7" d="M198.3,239.7c0-0.1-0.1-0.1-0.1-0.2c0-0.1,0-0.1,0.1-0.1l1.9-2.7c-0.3,0.1-0.5,0.1-0.8,0.1
		c-0.5,0-1.1-0.1-1.5-0.4c-0.4-0.2-0.8-0.6-1-1c-0.4-0.8-0.4-1.8,0-2.7c0.2-0.4,0.6-0.8,1-1c1-0.5,2.1-0.5,3.1,0
		c0.4,0.2,0.8,0.6,1,1c0.2,0.4,0.3,0.9,0.3,1.3c0,0.4-0.1,0.7-0.2,1.1c-0.1,0.3-0.3,0.6-0.5,0.9l-2.5,3.5l-0.1,0.1
		c-0.1,0.1-0.2,0.2-0.3,0.1h-0.2C198.4,239.8,198.3,239.7,198.3,239.7z M200.5,235.8c0.7-0.3,1.1-1,1-1.8c0-0.4-0.1-0.8-0.3-1.1
		c-0.2-0.3-0.5-0.6-0.8-0.7c-0.7-0.3-1.4-0.3-2.1,0c-0.3,0.2-0.6,0.4-0.8,0.7c-0.2,0.3-0.3,0.7-0.3,1.1c0,0.7,0.4,1.4,1,1.8
		C199,236.1,199.8,236.1,200.5,235.8L200.5,235.8z"/>
	<path class="st7" d="M220.6,206.4c0-0.1-0.1-0.1-0.1-0.2v-1.9h-4c-0.1,0-0.1,0-0.2-0.1c-0.1,0-0.1-0.1-0.1-0.2v-0.2
		c0-0.1,0-0.3,0.1-0.4l3.6-5.2c0.1-0.1,0.1-0.1,0.2-0.1c0.1,0,0.2,0,0.3,0h0.5c0.1,0,0.1,0,0.2,0.1c0,0.1,0.1,0.1,0.1,0.2v5.3h1.1
		c0.1,0,0.2,0.1,0.3,0.2c0,0,0,0,0,0v0.2c0,0.1,0,0.1-0.1,0.2c-0.1,0-0.1,0.1-0.2,0.1h-1.1v1.9c0,0.1,0,0.1-0.1,0.2
		c-0.1,0.1-0.1,0.1-0.2,0.1h-0.2C220.7,206.6,220.6,206.5,220.6,206.4z M220.5,203.6V199l-3.2,4.7H220.5z"/>
	<path class="st7" d="M223.5,207.3c0,0,0-0.1,0-0.1c0,0,0-0.1,0-0.1l0.2-1.4c0-0.2,0.1-0.3,0.3-0.3h0.5c0.1,0,0.1,0,0.1,0.1
		c0,0,0,0.1,0,0.1c0,0.1,0,0.2,0,0.2l-0.5,1.4c0,0.1-0.1,0.1-0.1,0.2c0,0.1-0.1,0.1-0.2,0.1h-0.2
		C223.6,207.4,223.6,207.4,223.5,207.3z"/>
	<path class="st7" d="M227.7,206.3c-0.4-0.2-0.8-0.5-1.1-0.9c-0.2-0.4-0.4-0.8-0.4-1.3c0-0.5,0.1-0.9,0.4-1.3c0.2-0.4,0.6-0.7,1-0.8
		c-0.7-0.4-1.1-1.1-1-1.8c0-0.6,0.3-1.2,0.8-1.6c1.2-0.8,2.7-0.8,3.9,0c0.5,0.4,0.8,1,0.8,1.6c0,0.4-0.1,0.8-0.3,1.1
		c-0.2,0.3-0.5,0.6-0.8,0.7c0.4,0.2,0.8,0.5,1,0.8c0.2,0.4,0.4,0.8,0.4,1.3c0,0.5-0.1,1-0.4,1.4c-0.3,0.4-0.6,0.7-1.1,0.9
		c-0.5,0.2-1,0.3-1.5,0.3C228.7,206.7,228.2,206.6,227.7,206.3z M230.8,205.4c0.7-0.5,0.9-1.5,0.3-2.2c-0.1-0.1-0.2-0.2-0.3-0.3
		c-0.5-0.3-1-0.5-1.6-0.5c-0.6,0-1.1,0.1-1.6,0.5c-0.4,0.3-0.7,0.8-0.6,1.3c0,0.5,0.2,1,0.6,1.3c0.5,0.3,1,0.5,1.6,0.5
		C229.8,205.9,230.3,205.8,230.8,205.4z M230.6,201.3c0.4-0.2,0.6-0.6,0.6-1.1c0-0.4-0.2-0.8-0.6-1.1c-0.8-0.5-1.9-0.5-2.8,0
		c-0.4,0.2-0.6,0.6-0.6,1.1c0,0.4,0.2,0.8,0.5,1.1c0.4,0.3,0.9,0.4,1.4,0.4C229.7,201.7,230.2,201.5,230.6,201.3L230.6,201.3z"/>
	<path class="st7" d="M146.4,202.6c0-0.1-0.1-0.1-0.1-0.2v-0.1l3.1-7.3h-4.1c-0.1,0-0.2-0.1-0.3-0.2c0,0,0,0,0,0v-0.2
		c0-0.1,0-0.1,0.1-0.2c0-0.1,0.1-0.1,0.2-0.1h4.6c0.1,0,0.1,0,0.2,0.1c0.1,0.1,0.1,0.1,0.1,0.2v0.2c0,0.2,0,0.3-0.1,0.4l-3,7.2
		c0,0.1-0.1,0.2-0.1,0.2c-0.1,0-0.1,0.1-0.2,0.1h-0.2C146.5,202.6,146.4,202.6,146.4,202.6z"/>
	<path class="st7" d="M150.4,203.5c0,0,0-0.1,0-0.1c0,0,0,0,0-0.1l0.2-1.4c0-0.2,0.1-0.3,0.3-0.3h0.5c0.1,0,0.1,0,0.1,0.1
		c0,0,0.1,0.1,0,0.1c0,0.1,0,0.2,0,0.2l-0.5,1.4c0,0.1-0.1,0.1-0.1,0.2c0,0-0.1,0.1-0.2,0.1h-0.2
		C150.5,203.5,150.5,203.5,150.4,203.5z"/>
	<path class="st7" d="M154.5,202.5c-0.4-0.2-0.7-0.4-1-0.8c-0.2-0.3-0.4-0.6-0.4-1c0-0.1,0-0.1,0.1-0.2c0.1,0,0.1-0.1,0.2-0.1h0.2
		c0.1,0,0.1,0,0.2,0.1c0.1,0.1,0.1,0.1,0.1,0.2c0.1,0.4,0.4,0.8,0.8,1c0.4,0.2,0.9,0.3,1.4,0.3c0.5,0,1.1-0.1,1.5-0.4
		c0.4-0.3,0.6-0.8,0.6-1.3c0-1.1-0.7-1.7-2-1.7h-1c-0.1,0-0.1,0-0.2-0.1c-0.1,0-0.1-0.1-0.1-0.2v-0.2c0-0.1,0-0.2,0.1-0.3l2.5-2.9
		h-3.6c-0.1,0-0.2-0.1-0.3-0.2c0,0,0,0,0,0v-0.2c0-0.1,0-0.1,0.1-0.2c0-0.1,0.1-0.1,0.2-0.1h4.5c0.1,0,0.1,0,0.2,0.1
		c0.1,0.1,0.1,0.1,0.1,0.2v0.2c0,0.1,0,0.2-0.1,0.2l-2.5,3h0.2c0.7,0,1.4,0.2,2,0.6c0.5,0.4,0.8,1.1,0.7,1.8c0,1-0.5,1.8-1.4,2.2
		c-0.5,0.2-1,0.3-1.5,0.3C155.5,202.8,155,202.7,154.5,202.5z"/>
	<text transform="matrix(1 0 0 1 268.5445 175.239)" class="st5 st6">P</text>
	<text transform="matrix(1 0 0 1 275.9744 175.239)" class="st5 st6">aris</text>
	<text transform="matrix(1 0 0 1 351.0945 171.5689)" class="st5 st6">R</text>
	<text transform="matrix(1 0 0 1 358.7045 171.5689)" class="st5 st6">eims</text>
	<text transform="matrix(1 0 0 1 415.0945 190.8989)" class="st5 st6">Nan</text>
	<text transform="matrix(1 0 0 1 436.8145 190.8989)" class="st5 st6">c</text>
	<text transform="matrix(1 0 0 1 443.0745 190.8989)" class="st5 st6">y</text>
	<text transform="matrix(1 0 0 1 435.4245 144.1489)" class="st5 st6">M</text>
	<text transform="matrix(1 0 0 1 444.7845 144.1489)" class="st5 st6">e</text>
	<text transform="matrix(1 0 0 1 451.2845 144.1489)" class="st5 st6">tz</text>
	<text transform="matrix(1 0 0 1 221.4445 261.6389)" class="st5 st6 st8">T</text>
	<text transform="matrix(1 0 0 1 226.9445 261.6389)" class="st5 st6">ours</text>
	<text transform="matrix(1 0 0 1 174.6645 262.9689)" class="st5 st6">Angers</text>
	<text transform="matrix(1 0 0 1 101.1745 256.2189)" class="st5 st6">Na</text>
	<text transform="matrix(1 0 0 1 115.8145 256.2189)" class="st5 st6">n</text>
	<text transform="matrix(1 0 0 1 122.7945 256.2189)" class="st5 st6">tes</text>
	<text transform="matrix(1 0 0 1 277.9944 201.6389)" class="st5 st6">Orlans</text>
	<text transform="matrix(1 0 0 1 279.9145 136.7489)" class="st5 st6">A</text>
	<text transform="matrix(1 0 0 1 287.7145 136.7489)" class="st5 st6">r</text>
	<text transform="matrix(1 0 0 1 291.7345 136.7489)" class="st5 st6">ge</text>
	<text transform="matrix(1 0 0 1 305.2545 136.7489)" class="st5 st6">n</text>
	<text transform="matrix(1 0 0 1 312.2445 136.7489)" class="st5 st6">teuil</text>
	<text transform="matrix(1 0 0 1 207.1845 325.6189)" class="st5 st6">Limoges</text>
	<text transform="matrix(1 0 0 1 209.5045 374.3889)" class="st5 st6">Bo</text>
	<text transform="matrix(1 0 0 1 224.0345 374.3889)" class="st5 st6">r</text>
	<text transform="matrix(1 0 0 1 228.0545 374.3889)" class="st5 st6">deaux</text>
	<text transform="matrix(1 0 0 1 356.6245 229.3789)" class="st5 st6">Dijon</text>
	<text transform="matrix(1 0 0 1 495.8745 220.3489)" class="st5 st6">Mulhouse</text>
	<text transform="matrix(1 0 0 1 458.0245 247.7789)" class="st5 st6">Besanon</text>
	<text transform="matrix(1 0 0 1 476.1745 148.4389)" class="st5 st6">St</text>
	<text transform="matrix(1 0 0 1 487.7444 148.4389)" class="st5 st6">r</text>
	<text transform="matrix(1 0 0 1 491.8245 148.4389)" class="st5 st6">asbou</text>
	<text transform="matrix(1 0 0 1 524.8345 148.4389)" class="st5 st6">r</text>
	<text transform="matrix(1 0 0 1 528.8545 148.4389)" class="st5 st6">g</text>
	<text transform="matrix(1 0 0 1 411.7845 293.4189)" class="st5 st6">Villeurbanne</text>
	<text transform="matrix(1 0 0 1 398.9745 376.0989)" class="st5 st6">G</text>
	<text transform="matrix(1 0 0 1 406.9445 376.0989)" class="st5 st6">r</text>
	<text transform="matrix(1 0 0 1 410.9745 376.0989)" class="st5 st6">enoble</text>
	<text transform="matrix(1 0 0 1 323.0045 371.3289)" class="st5 st6">S</text>
	<text transform="matrix(1 0 0 1 330.2645 371.3289)" class="st5 st6">t</text>
	<text transform="matrix(1 0 0 1 334.4245 371.3289)" class="st5 st6">-</text>
	<text transform="matrix(1 0 0 1 340.1645 371.3289)" class="st5 st6"></text>
	<text transform="matrix(1 0 0 1 347.1245 371.3289)" class="st5 st6">tienne</text>
	<text transform="matrix(1 0 0 1 293.9944 310.8189)" class="st5 st6">Clermo</text>
	<text transform="matrix(1 0 0 1 332.4645 310.8189)" class="st5 st6">n</text>
	<text transform="matrix(1 0 0 1 339.4445 310.8189)" class="st5 st6">t</text>
	<text transform="matrix(1 0 0 1 343.6144 310.8189)" class="st5 st6">-</text>
	<text transform="matrix(1 0 0 1 293.9944 320.8189)" class="st5 st6">F</text>
	<text transform="matrix(1 0 0 1 300.6945 320.8189)" class="st5 st6">er</text>
	<text transform="matrix(1 0 0 1 311.4145 320.8189)" class="st5 st6">r</text>
	<text transform="matrix(1 0 0 1 315.4944 320.8189)" class="st5 st6">and</text>
	<text transform="matrix(1 0 0 1 353.5045 302.4189)" class="st5 st6 st8">L</text>
	<text transform="matrix(1 0 0 1 358.8845 302.4189)" class="st5 st6">y</text>
	<text transform="matrix(1 0 0 1 365.0645 302.4189)" class="st5 st6">on</text>
	<text transform="matrix(1 0 0 1 357.9245 403.4289)" class="st5 st6">Nmes</text>
	<text transform="matrix(1 0 0 1 374.1845 481.6889)" class="st5 st6">Marseille</text>
	<text transform="matrix(1 0 0 1 197.7945 452.7489)" class="st5 st6 st8">T</text>
	<text transform="matrix(1 0 0 1 203.2945 452.7489)" class="st5 st6">oulouse</text>
	<text transform="matrix(1 0 0 1 442.2045 486.1989)" class="st5 st6 st8">T</text>
	<text transform="matrix(1 0 0 1 447.7045 486.1989)" class="st5 st6">oulon</text>
	<text transform="matrix(1 0 0 1 508.2245 432.2289)" class="st5 st6">Nice</text>
	<text transform="matrix(1 0 0 1 296.4545 430.3189)" class="st5 st6">Mo</text>
	<text transform="matrix(1 0 0 1 312.5145 430.3189)" class="st5 st6">n</text>
	<text transform="matrix(1 0 0 1 319.4944 430.3189)" class="st5 st6">tpellie</text>
	<text transform="matrix(1 0 0 1 351.9545 430.3189)" class="st5 st6">r</text>
	<path d="M251.9,130c0-0.1-0.1-0.1-0.1-0.2v-0.2c0-0.2,0.1-0.4,0.3-0.5l3.1-3.1c0.3-0.3,0.6-0.6,0.9-1c0.2-0.3,0.2-0.7,0.2-1
		c0-0.5-0.1-0.9-0.5-1.3c-0.7-0.6-1.9-0.6-2.6,0c-0.3,0.3-0.5,0.8-0.6,1.3c0,0.1,0,0.2-0.1,0.2c0,0-0.1,0.1-0.2,0.1h-0.2
		c-0.1,0-0.1,0-0.2-0.1c0,0-0.1-0.1-0.1-0.2c0-0.4,0.1-0.8,0.3-1.2c0.2-0.4,0.5-0.8,0.9-1c0.4-0.3,0.9-0.4,1.4-0.4
		c0.7-0.1,1.4,0.2,1.9,0.7c0.4,0.5,0.7,1.1,0.6,1.7c0,0.4-0.1,0.9-0.3,1.3c-0.3,0.5-0.6,0.9-1,1.2l-2.8,2.9h4c0.1,0,0.2,0,0.2,0.1
		c0,0.1,0.1,0.1,0.1,0.2v0.2c0,0.1,0,0.1-0.1,0.2c-0.1,0-0.1,0.1-0.2,0.1h-4.9C252.1,130,252,130,251.9,130z"/>
	<path d="M258.7,130.9c0,0,0-0.1,0-0.1c0,0,0,0,0-0.1l0.2-1.4c0-0.2,0.1-0.3,0.3-0.3h0.5c0.1,0,0.1,0,0.1,0.1c0,0,0,0.1,0,0.1
		c0,0.1,0,0.1,0,0.2l-0.5,1.4c0,0.1-0.1,0.1-0.1,0.2c-0.1,0-0.1,0.1-0.2,0.1h-0.2C258.8,131,258.7,131,258.7,130.9z"/>
	<path d="M262.8,129.9c-0.4-0.2-0.8-0.5-1.1-0.9c-0.3-0.4-0.4-0.9-0.4-1.3c0-0.5,0.1-0.9,0.4-1.3c0.3-0.4,0.6-0.7,1-0.8
		c-0.3-0.2-0.6-0.4-0.8-0.7c-0.2-0.3-0.3-0.7-0.3-1.1c0-0.6,0.3-1.2,0.8-1.6c1.2-0.8,2.7-0.8,3.9,0c0.5,0.4,0.8,1,0.8,1.6
		c0,0.4-0.1,0.8-0.3,1.1c-0.2,0.3-0.5,0.6-0.8,0.7c0.4,0.2,0.8,0.5,1,0.8c0.2,0.4,0.4,0.8,0.4,1.3c0,0.5-0.1,0.9-0.4,1.3
		c-0.3,0.4-0.6,0.7-1.1,0.9C264.9,130.3,263.8,130.3,262.8,129.9L262.8,129.9z M266,129c0.4-0.3,0.7-0.8,0.6-1.3
		c0-0.5-0.2-1-0.6-1.3c-0.5-0.3-1-0.5-1.6-0.5c-0.6,0-1.1,0.1-1.6,0.5c-0.7,0.5-0.9,1.5-0.3,2.2c0.1,0.1,0.2,0.2,0.3,0.3
		C263.7,129.6,265,129.6,266,129z M265.7,124.8c0.4-0.2,0.6-0.6,0.5-1.1c0-0.4-0.2-0.8-0.5-1.1c-0.8-0.5-1.9-0.5-2.8,0
		c-0.6,0.4-0.7,1.3-0.3,1.9c0.1,0.1,0.2,0.2,0.3,0.3c0.4,0.3,0.9,0.4,1.4,0.4C264.9,125.2,265.3,125.1,265.7,124.8z"/>
	<path d="M376.4,351.1c0-0.1-0.1-0.1-0.1-0.2v-7.2l-2.1,1.7c0,0-0.1,0.1-0.2,0.1c-0.1,0-0.2,0-0.2-0.1l-0.1-0.2c0,0-0.1-0.1-0.1-0.2
		c0-0.1,0-0.2,0.1-0.2l2.5-2c0.1-0.1,0.2-0.1,0.3-0.1h0.2c0.1,0,0.1,0,0.2,0.1c0,0.1,0.1,0.1,0.1,0.2v7.9c0,0.1,0,0.1-0.1,0.2
		c-0.1,0-0.1,0.1-0.2,0.1h-0.2C376.5,351.2,376.4,351.1,376.4,351.1z"/>
	<path d="M378.8,352c0,0,0-0.1,0-0.1c0,0,0,0,0-0.1l0.2-1.4c0-0.2,0.1-0.3,0.3-0.3h0.5c0.1,0,0.1,0,0.1,0.1c0,0,0,0.1,0,0.1
		c0,0.1,0,0.1,0,0.2l-0.5,1.4c0,0.1-0.1,0.1-0.1,0.2c0,0-0.1,0.1-0.2,0.1h-0.2C378.9,352.1,378.8,352.1,378.8,352z"/>
	<path d="M383.2,351.1c0-0.1-0.1-0.1-0.1-0.2v-7.2l-2.1,1.7c-0.1,0-0.1,0.1-0.2,0.1c-0.1,0-0.2,0-0.2-0.1l-0.1-0.2
		c0,0-0.1-0.1-0.1-0.2c0-0.1,0-0.2,0.1-0.2l2.6-2c0.1-0.1,0.2-0.1,0.3-0.1h0.2c0.1,0,0.2,0.1,0.3,0.2c0,0,0,0,0,0v7.9
		c0,0.1-0.1,0.2-0.2,0.3c0,0,0,0,0,0h-0.2C383.3,351.2,383.2,351.1,383.2,351.1z"/>
	<path d="M279.9,154.4c-0.1-0.1-0.1-0.1-0.1-0.2v-7.1l-2.1,1.7c-0.1,0-0.1,0.1-0.2,0.1c-0.1,0-0.2,0-0.2-0.1l-0.1-0.2
		c0,0-0.1-0.1-0.1-0.2c0-0.1,0.1-0.1,0.2-0.2l2.6-2c0.1-0.1,0.2-0.1,0.3-0.1h0.2c0.1,0,0.2,0.1,0.3,0.2c0,0,0,0,0,0v7.9
		c0,0.1,0,0.1-0.1,0.2c-0.1,0-0.1,0.1-0.2,0.1h-0.2C280,154.5,280,154.5,279.9,154.4z"/>
	<path d="M282.3,155.3c0,0,0-0.1,0-0.1c0,0,0,0,0-0.1l0.2-1.4c0-0.2,0.1-0.3,0.3-0.3h0.5c0.1,0,0.1,0,0.1,0.1c0,0,0,0.1,0,0.1
		c0,0.1,0,0.1,0,0.2l-0.5,1.4c0,0.1-0.1,0.1-0.1,0.2c-0.1,0-0.1,0.1-0.2,0.1h-0.2C282.4,155.4,282.3,155.4,282.3,155.3z"/>
	<path d="M286.7,154.4c-0.1-0.1-0.1-0.1-0.1-0.2v-7.1l-2.1,1.7c0,0-0.1,0.1-0.2,0.1c-0.1,0-0.2,0-0.2-0.1l-0.1-0.2
		c0,0-0.1-0.1-0.1-0.2c0-0.1,0-0.2,0.1-0.2l2.5-2c0.1-0.1,0.2-0.1,0.3-0.1h0.2c0.1,0,0.1,0,0.2,0.1c0,0.1,0.1,0.1,0.1,0.2v7.9
		c0,0.1,0,0.1-0.1,0.2c-0.1,0-0.1,0.1-0.2,0.1h-0.2C286.8,154.5,286.8,154.5,286.7,154.4z"/>
	<path d="M262.5,321.3c-0.5-0.7-0.7-1.6-0.7-2.4v-2c0-0.9,0.2-1.7,0.7-2.4c1.2-1.2,3.1-1.2,4.3,0c0,0,0,0,0,0
		c0.5,0.7,0.7,1.5,0.7,2.4c0,0.2,0,0.6,0,1s0,0.8,0,1c0,0.9-0.2,1.7-0.7,2.4C265.7,322.5,263.8,322.5,262.5,321.3
		C262.6,321.3,262.5,321.3,262.5,321.3z M266.3,320.8c0.4-0.6,0.6-1.3,0.6-2c0-0.2,0-0.6,0-1s0-0.7,0-0.9c0-0.7-0.2-1.4-0.6-2
		c-0.4-0.5-1-0.7-1.6-0.7c-0.6,0-1.2,0.2-1.6,0.7c-0.4,0.6-0.6,1.3-0.6,2v1.9c0,0.7,0.2,1.4,0.6,2c0.4,0.5,1,0.7,1.6,0.7
		C265.3,321.5,265.9,321.2,266.3,320.8L266.3,320.8z"/>
	<path d="M268.9,322.9c0,0,0-0.1,0-0.1c0,0,0-0.1,0-0.1l0.2-1.4c0-0.2,0.1-0.3,0.3-0.3h0.5c0.1,0,0.1,0,0.1,0.1c0,0,0,0.1,0,0.1
		c0,0.1,0,0.2,0,0.2l-0.5,1.4c0,0.1-0.1,0.1-0.1,0.2c-0.1,0-0.1,0.1-0.2,0.1h-0.2C269,323,268.9,323,268.9,322.9z"/>
	<path d="M272.7,322c0-0.1-0.1-0.1-0.1-0.2c0-0.1,0-0.1,0.1-0.1l1.9-2.7c-0.3,0.1-0.5,0.1-0.8,0.1c-0.5,0-1.1-0.1-1.5-0.4
		c-0.4-0.2-0.8-0.6-1-1c-0.4-0.8-0.4-1.8,0-2.7c0.2-0.4,0.6-0.8,1-1c0.5-0.3,1-0.4,1.5-0.4c0.5,0,1.1,0.1,1.6,0.4
		c0.4,0.2,0.8,0.6,1,1c0.2,0.4,0.3,0.9,0.3,1.3c0,0.4-0.1,0.8-0.2,1.1c-0.1,0.3-0.3,0.6-0.5,0.9l-2.5,3.5l-0.1,0.1
		c0,0-0.1,0.1-0.1,0.1c-0.1,0-0.1,0-0.2,0h-0.2C272.8,322.1,272.7,322,272.7,322z M274.8,318.1c0.3-0.2,0.6-0.4,0.8-0.7
		c0.4-0.7,0.4-1.5,0-2.1c-0.2-0.3-0.5-0.6-0.8-0.7c-0.7-0.3-1.4-0.3-2.1,0c-0.3,0.2-0.6,0.4-0.8,0.7c-0.2,0.3-0.3,0.7-0.3,1.1
		c0,0.4,0.1,0.7,0.3,1.1c0.2,0.3,0.5,0.6,0.8,0.7C273.4,318.4,274.2,318.4,274.8,318.1z"/>
	<path d="M309.3,494.9c-0.1,0-0.1-0.1-0.1-0.2v-0.2c0-0.2,0.1-0.4,0.3-0.5l3.1-3.1c0.3-0.3,0.6-0.6,0.9-1c0.2-0.3,0.2-0.7,0.2-1
		c0-0.5-0.1-0.9-0.5-1.3c-0.4-0.3-0.8-0.5-1.3-0.5c-0.5,0-0.9,0.1-1.3,0.5c-0.3,0.3-0.5,0.8-0.6,1.3c0,0.1,0,0.2-0.1,0.2
		c0,0-0.1,0.1-0.2,0.1h-0.2c-0.1,0-0.1,0-0.2-0.1c0,0-0.1-0.1-0.1-0.2c0-0.4,0.1-0.8,0.3-1.2c0.2-0.4,0.5-0.8,0.9-1
		c0.4-0.3,0.9-0.4,1.4-0.4c0.7-0.1,1.4,0.2,1.9,0.7c0.4,0.5,0.6,1.1,0.6,1.7c0,0.4-0.1,0.9-0.3,1.3c-0.3,0.5-0.6,0.9-1,1.2l-2.8,2.9
		h4c0.1,0,0.3,0.1,0.3,0.3c0,0,0,0,0,0v0.2c0,0.1,0,0.1-0.1,0.2c-0.1,0.1-0.1,0.1-0.2,0.1h-4.9C309.5,495,309.4,495,309.3,494.9z"/>
	<path d="M316.1,495.8c0,0,0-0.1,0-0.1c0,0,0-0.1,0-0.1l0.2-1.5c0-0.2,0.1-0.3,0.3-0.3h0.5c0.1,0,0.1,0,0.1,0.1c0,0,0,0.1,0,0.1
		c0,0.1,0,0.2,0,0.2l-0.5,1.4c0,0.1-0.1,0.1-0.1,0.2c-0.1,0-0.1,0.1-0.2,0h-0.1C316.2,495.9,316.1,495.9,316.1,495.8z"/>
	<path d="M320.5,494.9c-0.1,0-0.1-0.1-0.1-0.2v-7.1l-2.2,1.7c0,0-0.1,0.1-0.2,0.1c-0.1,0-0.2,0-0.2-0.1l-0.1-0.2
		c0,0-0.1-0.1-0.1-0.2c0-0.1,0-0.2,0.1-0.2l2.6-2c0.1-0.1,0.2-0.1,0.3-0.1h0.2c0.1,0,0.2,0.1,0.3,0.2c0,0,0,0,0,0v7.9
		c0,0.1,0,0.1-0.1,0.2c0,0.1-0.1,0.1-0.2,0.1h-0.2C320.6,495,320.5,495,320.5,494.9z"/>
	<path d="M414.6,438.5c-0.1,0-0.1-0.1-0.1-0.2v-7.1l-2.2,1.7c0,0-0.1,0.1-0.2,0.1c-0.1,0-0.2,0-0.2-0.1l-0.1-0.2
		c0,0-0.1-0.1-0.1-0.2c0-0.1,0-0.2,0.1-0.2l2.5-2c0.1-0.1,0.2-0.1,0.3-0.1h0.2c0.1,0,0.1,0,0.2,0.1c0.1,0,0.1,0.1,0.1,0.2v7.9
		c0,0.1-0.1,0.3-0.3,0.3l0,0h-0.2C414.8,438.6,414.7,438.5,414.6,438.5z"/>
	<path d="M417,439.4c0,0,0-0.1,0-0.1c0,0,0-0.1,0-0.1l0.2-1.4c0-0.2,0.1-0.3,0.3-0.3h0.5c0.1,0,0.1,0,0.1,0.1c0,0,0,0.1,0,0.1
		c0,0.1,0,0.1,0,0.2l-0.5,1.4c0,0.1-0.1,0.1-0.1,0.2c-0.1,0-0.1,0.1-0.2,0.1h-0.2C417.1,439.5,417.1,439.4,417,439.4z"/>
	<path d="M421,438.4c-0.4-0.2-0.7-0.5-0.9-0.8c-0.2-0.3-0.3-0.7-0.4-1.1l0,0c0-0.1,0-0.1,0.1-0.1c0.1,0,0.1,0,0.2,0h0.3
		c0.1,0,0.3,0.1,0.3,0.2c0,0,0,0,0,0c0.1,0.4,0.4,0.8,0.7,1.1c0.4,0.2,0.8,0.4,1.3,0.4c0.6,0,1.1-0.2,1.5-0.6
		c0.7-0.7,0.8-1.7,0.3-2.6c-0.2-0.3-0.5-0.5-0.8-0.7c-0.3-0.2-0.7-0.2-1.1-0.2c-0.3,0-0.5,0-0.8,0.1c-0.2,0.1-0.4,0.2-0.6,0.3
		c-0.1,0.1-0.2,0.1-0.3,0.2c-0.1,0-0.2,0.1-0.2,0.1h-0.2c-0.1,0-0.1,0-0.2-0.1c-0.1,0-0.1-0.1-0.1-0.2l0.4-3.9c0-0.1,0-0.1,0.1-0.2
		c0.1,0,0.1-0.1,0.2-0.1h3.9c0.1,0,0.2,0.1,0.3,0.2c0,0,0,0,0,0v0.2c0,0.1,0,0.1-0.1,0.2c-0.1,0-0.1,0.1-0.2,0.1h-3.4l-0.3,2.7
		c0.5-0.3,1-0.4,1.5-0.4c0.5,0,1,0.1,1.5,0.3c0.4,0.2,0.8,0.5,1,0.9c0.3,0.4,0.4,0.9,0.4,1.5c0,0.5-0.1,1.1-0.4,1.5
		c-0.2,0.4-0.6,0.8-1,1c-0.5,0.2-1,0.3-1.5,0.3C422,438.8,421.5,438.6,421,438.4z"/>
	<path d="M482.3,429c0-0.1-0.1-0.1-0.1-0.2v-0.2c0-0.2,0.1-0.4,0.3-0.5l3.1-3.1c0.3-0.3,0.6-0.6,0.9-1c0.2-0.3,0.2-0.7,0.2-1
		c0-0.5-0.1-0.9-0.5-1.3c-0.4-0.3-0.8-0.5-1.3-0.5c-0.5,0-0.9,0.1-1.3,0.5c-0.3,0.3-0.5,0.8-0.6,1.3c0,0.1,0,0.1-0.1,0.2
		c0,0-0.1,0.1-0.2,0.1h-0.2c-0.1,0-0.1,0-0.2-0.1c0,0-0.1-0.1-0.1-0.2c0-0.4,0.1-0.8,0.3-1.2c0.2-0.4,0.5-0.7,0.9-1
		c0.4-0.3,0.9-0.4,1.4-0.4c0.7-0.1,1.4,0.2,1.9,0.7c0.4,0.5,0.6,1.1,0.6,1.7c0,0.5-0.1,0.9-0.3,1.3c-0.3,0.5-0.6,0.9-1,1.2l-2.8,2.9
		h4c0.1,0,0.2,0,0.2,0.1c0,0.1,0.1,0.1,0.1,0.2v0.2c0,0.1,0,0.1-0.1,0.2c-0.1,0-0.1,0.1-0.2,0.1h-4.9
		C482.4,429.1,482.3,429.1,482.3,429z"/>
	<path d="M489,429.9c0,0,0-0.1,0-0.1c0,0,0,0,0-0.1l0.2-1.4c0-0.2,0.1-0.3,0.3-0.3h0.5c0.1,0,0.1,0,0.1,0.1c0,0,0,0.1,0,0.1
		c0,0.1,0,0.1,0,0.2l-0.5,1.4c0,0.1-0.1,0.1-0.1,0.2c-0.1,0-0.1,0.1-0.2,0.1h-0.2C489.1,430,489.1,429.9,489,429.9z"/>
	<path d="M493.1,428.9c-0.4-0.2-0.7-0.4-1-0.8c-0.2-0.3-0.3-0.6-0.4-1c0-0.1,0-0.1,0.1-0.2c0.1,0,0.1-0.1,0.2-0.1h0.2
		c0.1,0,0.1,0,0.2,0c0.1,0.1,0.1,0.1,0.1,0.2c0.1,0.4,0.4,0.8,0.8,1c0.4,0.2,0.9,0.3,1.4,0.3c0.6,0,1.1-0.1,1.5-0.5
		c0.4-0.3,0.6-0.8,0.6-1.3c0-1.1-0.7-1.6-2-1.6h-1.1c-0.1,0-0.1,0-0.2-0.1c-0.1,0-0.1-0.1-0.1-0.2v-0.2c0-0.1,0-0.2,0.1-0.3l2.5-2.9
		h-3.6c-0.1,0-0.1,0-0.2-0.1c0-0.1-0.1-0.1-0.1-0.2v-0.2c0-0.1,0-0.1,0.1-0.2c0-0.1,0.1-0.1,0.2-0.1h4.5c0.1,0,0.2,0,0.2,0.1
		c0,0.1,0.1,0.1,0.1,0.2v0.2c0,0.1,0,0.2-0.1,0.2l-2.5,3h0.2c0.7,0,1.4,0.2,2,0.6c0.5,0.4,0.8,1.1,0.7,1.8c0,0.5-0.1,0.9-0.4,1.3
		c-0.2,0.4-0.6,0.7-1,0.9c-0.5,0.2-1,0.3-1.5,0.3C494.1,429.2,493.6,429.1,493.1,428.9z"/>
	<path d="M369.3,425.2c0-0.1-0.1-0.1-0.1-0.2v-0.2c0-0.2,0.1-0.4,0.3-0.5l3.1-3.1c0.3-0.3,0.6-0.6,0.9-1c0.2-0.3,0.2-0.7,0.2-1
		c0-0.5-0.1-0.9-0.5-1.3c-0.7-0.6-1.8-0.6-2.6,0c-0.3,0.3-0.5,0.8-0.6,1.3c0,0.1,0,0.2-0.1,0.2c0,0-0.1,0.1-0.2,0.1h-0.2
		c-0.1,0-0.1,0-0.2-0.1c0,0-0.1-0.1-0.1-0.2c0-0.4,0.1-0.8,0.3-1.2c0.2-0.4,0.5-0.7,0.9-1c0.4-0.3,0.9-0.4,1.4-0.4
		c0.7-0.1,1.4,0.2,1.9,0.7c0.4,0.5,0.6,1.1,0.6,1.7c0,0.4-0.1,0.9-0.3,1.3c-0.3,0.5-0.6,0.9-1,1.2l-2.8,2.9h4c0.1,0,0.1,0,0.2,0.1
		c0.1,0.1,0.1,0.1,0.1,0.2v0.2c0,0.1,0,0.1-0.1,0.2c-0.1,0-0.1,0.1-0.2,0.1h-4.9C369.4,425.3,369.3,425.3,369.3,425.2z"/>
	<path d="M376,426.2c0,0,0-0.1,0-0.1c0,0,0,0,0-0.1l0.2-1.4c0-0.2,0.1-0.3,0.3-0.3h0.5c0.1,0,0.1,0,0.1,0.1c0,0,0.1,0.1,0,0.1
		c0,0.1,0,0.1,0,0.2l-0.5,1.4c0,0.1-0.1,0.1-0.1,0.2c0,0-0.1,0.1-0.2,0.1h-0.2C376.1,426.3,376,426.2,376,426.2z"/>
	<path d="M379.8,425.2c0,0-0.1-0.1-0.1-0.2c0-0.1,0-0.1,0.1-0.2l1.9-2.7c-0.3,0.1-0.5,0.1-0.8,0.1c-0.5,0-1.1-0.1-1.6-0.4
		c-0.4-0.2-0.8-0.6-1-1c-0.4-0.8-0.4-1.8,0-2.7c0.2-0.4,0.6-0.8,1-1c0.5-0.3,1-0.4,1.6-0.4c0.5,0,1.1,0.1,1.6,0.4
		c0.4,0.2,0.8,0.6,1,1c0.2,0.4,0.3,0.9,0.3,1.3c0,0.4-0.1,0.8-0.2,1.1c-0.1,0.3-0.3,0.6-0.5,0.9l-2.5,3.5l-0.1,0.1
		c0,0-0.1,0.1-0.1,0.1c-0.1,0-0.1,0-0.2,0H380C379.9,425.3,379.8,425.3,379.8,425.2z M381.9,421.4c0.3-0.2,0.6-0.4,0.8-0.7
		c0.2-0.3,0.3-0.7,0.3-1.1c0-0.4-0.1-0.8-0.3-1.1c-0.2-0.3-0.5-0.6-0.8-0.7c-0.7-0.3-1.4-0.3-2.1,0c-0.3,0.2-0.6,0.4-0.8,0.7
		c-0.2,0.3-0.3,0.7-0.3,1.1c0,0.4,0.1,0.8,0.3,1.1c0.2,0.3,0.4,0.5,0.8,0.7C380.5,421.7,381.2,421.7,381.9,421.4L381.9,421.4z"/>
	<path d="M413.9,462.1c0-0.1-0.1-0.1-0.1-0.2v-7.2l-2.2,1.7c0,0-0.1,0.1-0.2,0.1c-0.1,0-0.2,0-0.2-0.1l-0.1-0.2c0,0-0.1-0.1-0.1-0.2
		c0-0.1,0-0.2,0.1-0.2l2.6-2c0.1-0.1,0.2-0.1,0.3-0.1h0.2c0.1,0,0.1,0,0.2,0.1c0,0.1,0.1,0.1,0.1,0.2v7.9c0,0.1-0.1,0.2-0.2,0.3
		c0,0,0,0,0,0h-0.2C414.1,462.1,414,462.1,413.9,462.1z"/>
	<path d="M416.3,463c0,0,0-0.1,0-0.1c0,0,0,0,0-0.1l0.2-1.4c0-0.2,0.1-0.3,0.3-0.3h0.5c0.1,0,0.1,0,0.1,0.1c0,0,0,0.1,0,0.1
		c0,0.1,0,0.1,0,0.2l-0.5,1.4c0,0.1-0.1,0.1-0.1,0.2c-0.1,0-0.1,0.1-0.2,0.1h-0.2C416.4,463.1,416.3,463,416.3,463z"/>
	<path d="M420.3,461.9c-0.4-0.2-0.7-0.5-1-0.8c-0.2-0.3-0.3-0.7-0.3-1.1l0,0c0-0.1,0-0.1,0.1-0.1c0,0,0.1-0.1,0.2-0.1h0.2
		c0.1,0,0.1,0,0.2,0.1c0,0,0.1,0.1,0.1,0.2c0.1,0.4,0.4,0.8,0.7,1.1c0.4,0.2,0.8,0.4,1.3,0.4c0.6,0,1.1-0.2,1.5-0.5
		c0.4-0.4,0.6-1,0.6-1.5c0-0.4-0.1-0.7-0.3-1c-0.2-0.3-0.5-0.5-0.8-0.7c-0.3-0.2-0.7-0.2-1.1-0.2c-0.3,0-0.5,0-0.8,0.1
		c-0.2,0.1-0.4,0.2-0.6,0.3c-0.1,0.1-0.2,0.1-0.3,0.2c-0.1,0-0.2,0.1-0.2,0.1h-0.2c-0.1,0-0.1,0-0.2-0.1c-0.1,0-0.1-0.1-0.1-0.2
		l0.4-3.9c0-0.1,0-0.1,0.1-0.2c0-0.1,0.1-0.1,0.2-0.1h3.9c0.1,0,0.1,0,0.2,0.1c0,0.1,0.1,0.1,0.1,0.2v0.1c0,0.1-0.1,0.2-0.2,0.3
		c0,0,0,0,0,0h-3.5l-0.2,2.7c0.5-0.3,1-0.4,1.5-0.4c0.5,0,1,0.1,1.5,0.3c0.4,0.2,0.8,0.5,1,0.9c0.3,0.4,0.4,0.9,0.4,1.5
		c0,0.5-0.1,1.1-0.4,1.5c-0.2,0.4-0.6,0.7-1,1c-0.5,0.2-1,0.3-1.5,0.3C421.3,462.3,420.8,462.2,420.3,461.9z"/>
	<path d="M416.9,146.1c-0.1,0-0.1-0.1-0.1-0.2v-0.2c0-0.2,0.1-0.4,0.3-0.5l3.1-3.1c0.3-0.3,0.6-0.6,0.9-1c0.2-0.3,0.2-0.7,0.2-1
		c0-0.5-0.1-0.9-0.5-1.3c-0.4-0.3-0.8-0.5-1.3-0.4c-0.5,0-0.9,0.1-1.3,0.5c-0.3,0.3-0.5,0.8-0.6,1.3c0,0.1,0,0.2-0.1,0.2
		c0,0-0.1,0.1-0.2,0.1h-0.2c-0.1,0-0.1,0-0.2-0.1c0,0-0.1-0.1-0.1-0.2c0-0.4,0.1-0.8,0.3-1.2c0.2-0.4,0.5-0.8,0.9-1
		c0.4-0.3,0.9-0.4,1.4-0.4c0.7-0.1,1.4,0.2,1.9,0.7c0.4,0.5,0.6,1.1,0.6,1.7c0,0.5-0.1,0.9-0.3,1.3c-0.3,0.5-0.6,0.9-1,1.2l-2.8,2.9
		h4c0.1,0,0.3,0.1,0.3,0.2c0,0,0,0,0,0.1v0.2c0,0.1,0,0.1-0.1,0.2c-0.1,0.1-0.1,0.1-0.2,0.1h-4.9C417.1,146.1,417,146.1,416.9,146.1
		z"/>
	<path d="M423.7,147c0,0,0-0.1,0-0.1c0,0,0-0.1,0-0.1l0.2-1.4c0-0.2,0.1-0.3,0.3-0.3h0.5c0.1,0,0.1,0,0.1,0.1c0,0,0,0.1,0,0.1
		c0,0.1,0,0.1,0,0.2l-0.5,1.4c0,0.1-0.1,0.1-0.1,0.2c0,0-0.1,0.1-0.2,0.1h-0.2C423.8,147.1,423.7,147,423.7,147z"/>
	<path d="M428.1,146.1c-0.1,0-0.1-0.1-0.1-0.2v-7.1l-2.2,1.7c-0.1,0-0.1,0.1-0.2,0.1c-0.1,0-0.2,0-0.2-0.1l-0.1-0.2
		c0,0-0.1-0.1-0.1-0.2c0-0.1,0-0.2,0.1-0.2l2.6-2c0.1-0.1,0.2-0.1,0.3-0.1h0.2c0.1,0,0.2,0.1,0.3,0.2c0,0,0,0,0,0v7.9
		c0,0.1,0,0.1-0.1,0.2c0,0.1-0.1,0.1-0.2,0.1h-0.2C428.2,146.1,428.2,146.1,428.1,146.1z"/>
	<path d="M48.7,188.8c0-0.1-0.1-0.1-0.1-0.2v-0.2c0-0.2,0.1-0.4,0.3-0.5l3.1-3.1c0.3-0.3,0.6-0.6,0.9-1c0.2-0.3,0.2-0.7,0.2-1
		c0-0.5-0.1-0.9-0.5-1.3c-0.4-0.3-0.8-0.5-1.3-0.4c-0.5,0-0.9,0.1-1.3,0.5c-0.3,0.3-0.5,0.8-0.6,1.3c0,0.1,0,0.2-0.1,0.2
		c0,0-0.1,0.1-0.2,0.1H49c-0.1,0-0.1,0-0.2-0.1c0,0-0.1-0.1-0.1-0.2c0-0.4,0.1-0.8,0.3-1.2c0.2-0.4,0.5-0.8,0.9-1
		c0.4-0.3,0.9-0.4,1.4-0.4c0.7-0.1,1.4,0.2,1.9,0.7c0.4,0.5,0.6,1.1,0.6,1.7c0,0.5-0.1,0.9-0.3,1.3c-0.3,0.5-0.6,0.9-1,1.2l-2.8,2.9
		h4c0.1,0,0.2,0,0.2,0.1c0,0.1,0.1,0.1,0.1,0.2v0.2c0,0.1,0,0.1-0.1,0.2c-0.1,0.1-0.1,0.1-0.2,0.1h-4.9
		C48.8,188.8,48.7,188.8,48.7,188.8z"/>
	<path d="M55.4,189.7c0,0,0-0.1,0-0.1c0,0,0-0.1,0-0.1l0.2-1.4c0-0.2,0.1-0.3,0.3-0.3h0.5c0.1,0,0.1,0,0.1,0.1c0,0,0,0.1,0.1,0.1
		c0,0.1,0,0.2-0.1,0.2l-0.5,1.4c0,0.1-0.1,0.1-0.1,0.2c-0.1,0-0.1,0.1-0.2,0.1h-0.2C55.5,189.8,55.4,189.7,55.4,189.7z"/>
	<path d="M62,188.8c0-0.1-0.1-0.1-0.1-0.2v-1.9h-4c-0.1,0-0.1,0-0.2-0.1c-0.1,0-0.1-0.1-0.1-0.2v-0.2c0-0.1,0.1-0.3,0.1-0.4l3.6-5.2
		c0-0.1,0.1-0.1,0.2-0.1c0.1,0,0.2,0,0.3,0h0.5c0.1,0,0.2,0.1,0.3,0.2c0,0,0,0,0,0v5.3h1.1c0.1,0,0.2,0.1,0.3,0.2c0,0,0,0,0,0v0.2
		c0,0.1,0,0.1-0.1,0.2c-0.1,0-0.1,0.1-0.2,0.1h-1.1v1.9c0,0.1,0,0.1-0.1,0.2c0,0.1-0.1,0.1-0.2,0.1h-0.2
		C62.1,188.9,62,188.8,62,188.8z M61.9,186v-4.7l-3.3,4.7H61.9z"/>
	<path d="M214,131.8c0-0.1-0.1-0.1-0.1-0.2v-0.2c0-0.2,0.1-0.4,0.3-0.5l3.1-3.1c0.3-0.3,0.6-0.6,0.9-1c0.2-0.3,0.2-0.7,0.2-1
		c0-0.5-0.1-0.9-0.5-1.3c-0.7-0.6-1.9-0.6-2.6,0c-0.3,0.3-0.5,0.8-0.6,1.3c0,0.1,0,0.2-0.1,0.2c0,0-0.1,0.1-0.2,0.1h-0.2
		c-0.1,0-0.1,0-0.2-0.1c0,0-0.1-0.1-0.1-0.2c0-0.4,0.1-0.8,0.3-1.2c0.2-0.4,0.5-0.8,0.9-1c0.4-0.3,0.9-0.4,1.4-0.4
		c0.7-0.1,1.4,0.2,1.9,0.7c0.4,0.5,0.7,1.1,0.6,1.7c0,0.5-0.1,0.9-0.3,1.3c-0.3,0.5-0.6,0.9-1,1.2l-2.8,2.8h4c0.1,0,0.1,0,0.2,0.1
		c0.1,0.1,0.1,0.1,0.1,0.2v0.2c0,0.1,0,0.1-0.1,0.2c-0.1,0-0.1,0.1-0.2,0.1h-4.9C214.2,131.8,214.1,131.8,214,131.8z"/>
	<path d="M220.8,132.7c0,0,0-0.1,0-0.1c0,0,0,0,0-0.1l0.2-1.4c0-0.2,0.1-0.3,0.3-0.3h0.5c0.1,0,0.1,0,0.1,0.1c0,0,0,0.1,0,0.1
		c0,0.1,0,0.1,0,0.2l-0.5,1.4c0,0.1-0.1,0.1-0.1,0.2c-0.1,0-0.1,0.1-0.2,0.1h-0.2C220.9,132.8,220.8,132.7,220.8,132.7z"/>
	<path d="M225.2,131.8c0-0.1-0.1-0.1-0.1-0.2v-7.1l-2.1,1.7c0,0-0.1,0.1-0.2,0.1c-0.1,0-0.2,0-0.2-0.1l-0.1-0.2c0,0-0.1-0.1-0.1-0.2
		c0-0.1,0-0.2,0.1-0.2l2.6-2c0.1-0.1,0.2-0.1,0.3-0.1h0.2c0.1,0,0.1,0,0.2,0.1c0,0.1,0.1,0.1,0.1,0.2v7.9c0,0.1-0.1,0.2-0.2,0.3
		c0,0,0,0,0,0h-0.2C225.3,131.8,225.3,131.8,225.2,131.8z"/>
	<path class="st7" d="M302,162.3c-0.1,0-0.1-0.1-0.1-0.2v-1.9h-4c-0.1,0-0.2-0.1-0.3-0.2c0,0,0,0,0,0v-0.2c0-0.1,0-0.3,0.1-0.4
		l3.6-5.2c0-0.1,0.1-0.1,0.2-0.1c0.1,0,0.2,0,0.3,0h0.5c0.1,0,0.2,0.1,0.3,0.2c0,0,0,0,0,0v5.3h1.1c0.1,0,0.1,0,0.2,0.1
		c0.1,0,0.1,0.1,0.1,0.2v0.2c0,0.1,0,0.1-0.1,0.2c0,0.1-0.1,0.1-0.2,0.1h-1.1v1.9c0,0.1-0.1,0.2-0.2,0.3c0,0,0,0,0,0h-0.2
		C302.1,162.4,302,162.4,302,162.3z M301.9,159.5v-4.7l-3.3,4.7H301.9z"/>
	<path class="st7" d="M304.9,163.2c0,0,0-0.1,0-0.1c0,0,0,0,0-0.1l0.2-1.4c0-0.2,0.1-0.3,0.3-0.3h0.5c0.1,0,0.1,0,0.1,0.1
		c0,0,0,0.1,0,0.1c0,0.1,0,0.1,0,0.2l-0.5,1.4c0,0.1-0.1,0.1-0.1,0.2c0,0-0.1,0.1-0.2,0.1h-0.2C305,163.3,305,163.2,304.9,163.2z"/>
	<path class="st7" d="M307.8,162.3c0-0.1-0.1-0.1-0.1-0.2v-0.2c0-0.2,0.1-0.4,0.3-0.5l3.1-3.1c0.3-0.3,0.6-0.6,0.9-1
		c0.2-0.3,0.2-0.7,0.2-1c0-0.5-0.1-0.9-0.5-1.3c-0.7-0.6-1.9-0.6-2.6,0c-0.3,0.3-0.5,0.8-0.6,1.3c0,0.1,0,0.2-0.1,0.2
		c0,0-0.1,0.1-0.2,0.1h-0.2c-0.1,0-0.1,0-0.2-0.1c0,0-0.1-0.1-0.1-0.2c0-0.4,0.1-0.8,0.3-1.2c0.2-0.4,0.5-0.8,0.9-1
		c0.4-0.3,0.9-0.4,1.4-0.4c0.7-0.1,1.4,0.2,1.9,0.7c0.4,0.5,0.7,1.1,0.6,1.7c0,0.5-0.1,0.9-0.3,1.3c-0.3,0.5-0.6,0.9-1,1.2l-2.8,2.9
		h4c0.1,0,0.1,0,0.2,0.1c0.1,0.1,0.1,0.1,0.1,0.2v0.2c0,0.1,0,0.1-0.1,0.2c-0.1,0-0.1,0.1-0.2,0.1h-4.9
		C307.9,162.3,307.8,162.3,307.8,162.3z"/>
	<path class="st7" d="M352.7,149c-0.4-0.2-0.7-0.4-1-0.8c-0.2-0.3-0.3-0.6-0.4-1c0-0.1,0-0.1,0.1-0.2c0.1,0,0.1-0.1,0.2-0.1h0.2
		c0.1,0,0.1,0,0.2,0c0.1,0.1,0.1,0.1,0.1,0.2c0.1,0.4,0.4,0.8,0.8,1c0.4,0.2,0.9,0.3,1.4,0.3c0.6,0,1.1-0.1,1.5-0.5
		c0.4-0.3,0.6-0.8,0.6-1.3c0-1.1-0.7-1.7-2-1.7h-1.1c-0.1,0-0.1,0-0.2-0.1c0-0.1-0.1-0.1-0.1-0.2v-0.2c0-0.1,0-0.2,0.1-0.3l2.5-2.9
		H352c-0.1,0-0.1,0-0.2-0.1c0-0.1-0.1-0.1-0.1-0.2V141c0-0.1,0-0.1,0.1-0.2c0.1-0.1,0.1-0.1,0.2-0.1h4.5c0.1,0,0.2,0,0.2,0.1
		c0,0.1,0.1,0.1,0.1,0.2v0.2c0,0.1,0,0.2-0.1,0.2l-2.5,3h0.2c0.7,0,1.4,0.2,2,0.6c0.5,0.4,0.8,1.1,0.7,1.8c0,0.5-0.1,0.9-0.4,1.3
		c-0.2,0.4-0.6,0.7-1,0.9C354.8,149.4,353.7,149.4,352.7,149L352.7,149z"/>
	<path class="st7" d="M358.5,150c0,0,0-0.1,0-0.1c0,0,0,0,0-0.1l0.2-1.4c0-0.2,0.1-0.3,0.3-0.3h0.5c0.1,0,0.1,0,0.1,0.1
		c0,0,0,0.1,0,0.1c0,0.1,0,0.1,0,0.2l-0.5,1.4c0,0.1-0.1,0.1-0.1,0.2c0,0-0.1,0.1-0.2,0.1h-0.2C358.6,150,358.5,150,358.5,150z"/>
	<path class="st7" d="M362.9,149.1c0-0.1-0.1-0.1-0.1-0.2v-7.2l-2.1,1.7c-0.1,0-0.1,0.1-0.2,0.1c-0.1,0-0.2,0-0.2-0.1l-0.1-0.2
		c0,0-0.1-0.1-0.1-0.2c0-0.1,0-0.2,0.1-0.2l2.6-2c0.1-0.1,0.2-0.1,0.3-0.1h0.2c0.1,0,0.2,0.1,0.3,0.2c0,0,0,0,0,0v7.9
		c0,0.1-0.1,0.2-0.2,0.3c0,0,0,0,0,0h-0.2C363,149.1,362.9,149.1,362.9,149.1z"/>
	<path class="st7" d="M425.8,168.4c-0.4-0.2-0.7-0.4-1-0.8c-0.2-0.3-0.3-0.6-0.4-1c0-0.1,0-0.1,0.1-0.2c0.1,0,0.1-0.1,0.2-0.1h0.2
		c0.2,0,0.3,0.1,0.3,0.2c0,0,0,0,0,0c0.1,0.4,0.4,0.8,0.8,1c0.4,0.2,0.9,0.3,1.4,0.3c0.5,0,1.1-0.1,1.5-0.5c0.4-0.3,0.6-0.8,0.6-1.3
		c0-1.1-0.7-1.7-2-1.7h-1.1c-0.1,0-0.2-0.1-0.3-0.2c0,0,0,0,0,0v-0.1c0-0.1,0-0.2,0.1-0.3l2.5-2.9H425c-0.1,0-0.1,0-0.2-0.1
		c-0.1,0-0.1-0.1-0.1-0.2v-0.2c0-0.1,0-0.1,0.1-0.2c0.1,0,0.1-0.1,0.2-0.1h4.5c0.1,0,0.1,0,0.2,0.1c0.1,0.1,0.1,0.1,0.1,0.2v0.2
		c0,0.1,0,0.2-0.1,0.2l-2.5,3h0.2c0.7,0,1.4,0.2,2,0.6c0.5,0.4,0.8,1.1,0.7,1.8c0,0.5-0.1,0.9-0.4,1.3c-0.2,0.4-0.6,0.7-1,0.9
		c-0.5,0.2-1,0.3-1.5,0.3C426.7,168.8,426.2,168.7,425.8,168.4z"/>
	<path class="st7" d="M431.5,169.4c0,0,0-0.1,0-0.1c0,0,0-0.1,0-0.1l0.2-1.4c0-0.2,0.1-0.3,0.3-0.3h0.5c0.1,0,0.1,0,0.1,0.1
		c0,0,0,0.1,0,0.1c0,0.1,0,0.1,0,0.2l-0.5,1.4c0,0.1-0.1,0.1-0.1,0.2c0,0-0.1,0.1-0.2,0.1h-0.2C431.6,169.5,431.5,169.5,431.5,169.4
		z"/>
	<path class="st7" d="M435.6,168.4c-0.4-0.2-0.8-0.5-1.1-0.9c-0.3-0.4-0.4-0.9-0.4-1.4c0-0.5,0.1-0.9,0.4-1.3c0.2-0.4,0.6-0.7,1-0.8
		c-0.7-0.4-1-1.1-1-1.8c0-0.6,0.3-1.2,0.8-1.6c1.2-0.8,2.7-0.8,3.8,0c0.5,0.4,0.8,1,0.8,1.6c0,0.4-0.1,0.8-0.3,1.1
		c-0.2,0.3-0.5,0.6-0.8,0.7c0.4,0.2,0.8,0.5,1,0.8c0.2,0.4,0.4,0.8,0.4,1.3c0,0.5-0.1,1-0.4,1.4c-0.3,0.4-0.6,0.7-1.1,0.9
		c-0.5,0.2-1,0.3-1.5,0.3C436.7,168.8,436.1,168.7,435.6,168.4z M438.7,167.5c0.4-0.3,0.7-0.8,0.6-1.3c0-0.5-0.2-1-0.6-1.3
		c-0.5-0.3-1-0.5-1.6-0.5c-0.6,0-1.1,0.1-1.6,0.5c-0.7,0.5-0.9,1.5-0.3,2.2c0.1,0.1,0.2,0.2,0.3,0.3c0.5,0.3,1,0.5,1.6,0.5
		C437.7,168,438.3,167.9,438.7,167.5L438.7,167.5z M438.5,163.4c0.4-0.2,0.6-0.6,0.6-1.1c0-0.4-0.2-0.8-0.5-1.1
		c-0.8-0.5-1.9-0.5-2.8,0c-0.4,0.2-0.6,0.7-0.5,1.1c0,0.4,0.2,0.8,0.5,1.1c0.4,0.3,0.9,0.4,1.4,0.4
		C437.6,163.8,438.1,163.6,438.5,163.4z"/>
	<path class="st7" d="M480.9,168.8c-0.1,0-0.1-0.1-0.1-0.2v-7.1l-2.2,1.7c0,0-0.1,0.1-0.2,0.1c-0.1,0-0.2,0-0.2-0.1l-0.1-0.2
		c0,0-0.1-0.1-0.1-0.2c0-0.1,0-0.2,0.1-0.2l2.6-2c0.1-0.1,0.2-0.1,0.3-0.1h0.2c0.1,0,0.2,0.1,0.3,0.2c0,0,0,0,0,0v7.9
		c0,0.1,0,0.1-0.1,0.2c0,0.1-0.1,0.1-0.2,0.1H481C481,168.9,480.9,168.8,480.9,168.8z"/>
	<path class="st7" d="M484.5,168.6c-0.4-0.2-0.8-0.6-1-1c-0.2-0.4-0.3-0.9-0.3-1.4c0-0.8,0.3-1.5,0.8-2.1l2.4-3.3c0,0,0-0.1,0.1-0.1
		c0,0,0.1-0.1,0.1-0.1c0.1,0,0.1,0,0.2,0h0.2c0.1,0,0.1,0,0.2,0.1c0,0.1,0.1,0.1,0.1,0.2c0,0.1,0,0.1-0.1,0.2l-1.8,2.5
		c0.3-0.1,0.5-0.1,0.8-0.1c0.6,0,1.1,0.1,1.6,0.4c0.4,0.2,0.8,0.6,1,1c0.2,0.4,0.3,0.9,0.3,1.4c0,0.5-0.1,1-0.3,1.4
		c-0.2,0.4-0.6,0.8-1,1C486.7,169.1,485.5,169.1,484.5,168.6z M487.2,168c0.3-0.2,0.6-0.4,0.8-0.7c0.2-0.3,0.3-0.7,0.3-1.1
		c0-0.4-0.1-0.8-0.3-1.1c-0.2-0.3-0.5-0.6-0.8-0.7c-0.3-0.2-0.7-0.3-1.1-0.2c-0.4,0-0.7,0.1-1.1,0.2c-0.3,0.2-0.6,0.4-0.8,0.7
		c-0.2,0.3-0.3,0.7-0.3,1.1c0,0.4,0.1,0.8,0.3,1.1c0.2,0.3,0.5,0.6,0.8,0.7c0.3,0.2,0.7,0.2,1.1,0.2
		C486.5,168.3,486.8,168.2,487.2,168z"/>
	<path class="st7" d="M475.3,222.3c-0.4-0.2-0.7-0.4-1-0.8c-0.2-0.3-0.4-0.6-0.4-1c0-0.1,0-0.1,0.1-0.2c0,0,0.1-0.1,0.2-0.1h0.2
		c0.1,0,0.1,0,0.2,0.1c0.1,0.1,0.1,0.1,0.1,0.2c0.1,0.4,0.4,0.8,0.8,1c0.4,0.2,0.9,0.3,1.4,0.3c0.6,0,1.1-0.1,1.5-0.5
		c0.4-0.3,0.6-0.8,0.6-1.3c0-1.1-0.7-1.7-2-1.7h-1c-0.1,0-0.3-0.1-0.3-0.2c0,0,0,0,0-0.1V218c0-0.1,0-0.2,0.1-0.3l2.5-2.9h-3.6
		c-0.1,0-0.1,0-0.2-0.1c-0.1-0.1-0.1-0.1-0.1-0.2v-0.2c0-0.1,0-0.1,0.1-0.2c0-0.1,0.1-0.1,0.2-0.1h4.5c0.1,0,0.2,0,0.2,0.1
		c0,0.1,0.1,0.1,0.1,0.2v0.2c0,0.1,0,0.2-0.1,0.2l-2.5,3h0.2c0.7,0,1.4,0.2,2,0.6c0.5,0.4,0.8,1.1,0.7,1.8c0,0.5-0.1,0.9-0.4,1.3
		c-0.2,0.4-0.6,0.7-1,0.9c-0.5,0.2-1,0.3-1.5,0.3C476.3,222.7,475.7,222.6,475.3,222.3z"/>
	<path class="st7" d="M481,223.3c0,0,0-0.1,0-0.1c0,0,0,0,0-0.1l0.2-1.4c0-0.2,0.1-0.3,0.3-0.3h0.5c0.1,0,0.1,0,0.1,0.1
		c0,0,0,0.1,0,0.1c0,0.1,0,0.2,0,0.2l-0.5,1.4c0,0.1-0.1,0.1-0.1,0.2c-0.1,0-0.1,0.1-0.2,0.1h-0.2C481.1,223.4,481,223.4,481,223.3z
		"/>
	<path class="st7" d="M485.4,222.4c0-0.1-0.1-0.1-0.1-0.2v-7.2l-2.2,1.7c0,0-0.1,0.1-0.2,0.1c-0.1,0-0.2,0-0.2-0.1l-0.1-0.2
		c0,0-0.1-0.1-0.1-0.2c0-0.1,0-0.2,0.1-0.2l2.6-2c0.1-0.1,0.2-0.1,0.3-0.1h0.2c0.1,0,0.2,0.1,0.3,0.2c0,0,0,0,0,0v7.9
		c0,0.1,0,0.1-0.1,0.2c-0.1,0-0.1,0.1-0.2,0.1h-0.2C485.5,222.5,485.5,222.5,485.4,222.4z"/>
	<path class="st7" d="M384.3,242.8c-0.4-0.2-0.7-0.5-0.9-0.8c-0.2-0.3-0.3-0.7-0.4-1.1l0,0c0-0.1,0-0.1,0.1-0.1c0,0,0.1-0.1,0.2-0.1
		h0.2c0.1,0,0.1,0,0.2,0.1c0.1,0.1,0.1,0.1,0.1,0.2c0.1,0.4,0.4,0.8,0.7,1.1c0.4,0.2,0.8,0.4,1.3,0.4c0.6,0,1.1-0.2,1.5-0.6
		c0.7-0.7,0.8-1.7,0.3-2.6c-0.2-0.3-0.5-0.5-0.8-0.7c-0.3-0.2-0.7-0.2-1.1-0.2c-0.3,0-0.5,0-0.8,0.1c-0.2,0.1-0.4,0.2-0.6,0.3
		c-0.1,0.1-0.2,0.1-0.3,0.2c-0.1,0-0.2,0.1-0.2,0.1h-0.2c-0.1,0-0.1,0-0.2-0.1c-0.1,0-0.1-0.1-0.1-0.2l0.4-3.9c0-0.1,0-0.1,0.1-0.2
		c0.1,0,0.1-0.1,0.2-0.1h3.9c0.1,0,0.1,0,0.2,0.1c0,0.1,0.1,0.1,0.1,0.2v0.2c0,0.1-0.1,0.2-0.2,0.3c0,0,0,0,0,0h-3.4l-0.3,2.7
		c0.5-0.3,1-0.4,1.5-0.4c0.5,0,1,0.1,1.5,0.3c0.4,0.2,0.8,0.5,1,0.9c0.3,0.4,0.4,0.9,0.4,1.4c0,0.5-0.1,1.1-0.4,1.5
		c-0.2,0.4-0.6,0.7-1,0.9c-0.5,0.2-1,0.3-1.5,0.3C385.2,243.2,384.7,243.1,384.3,242.8z"/>
	<path class="st7" d="M389.8,243.8c0,0,0-0.1,0-0.1c0,0,0,0,0-0.1l0.2-1.4c0-0.2,0.1-0.3,0.3-0.3h0.5c0.1,0,0.1,0,0.1,0.1
		c0,0,0,0.1,0,0.1c0,0.1,0,0.1,0,0.2l-0.5,1.4c0,0.1-0.1,0.1-0.1,0.2c-0.1,0-0.1,0.1-0.2,0.1h-0.2
		C389.9,243.9,389.8,243.9,389.8,243.8z"/>
	<path class="st7" d="M393.8,242.8c-0.4-0.2-0.7-0.5-1-0.8c-0.2-0.3-0.3-0.7-0.3-1.1l0,0c0-0.1,0-0.1,0.1-0.1c0.1,0,0.1-0.1,0.2-0.1
		h0.2c0.1,0,0.1,0,0.2,0.1c0,0,0.1,0.1,0.1,0.2c0.1,0.4,0.4,0.8,0.7,1.1c0.4,0.2,0.8,0.4,1.3,0.4c0.6,0,1.1-0.2,1.5-0.6
		c0.4-0.4,0.6-1,0.6-1.5c0-0.4-0.1-0.7-0.3-1c-0.2-0.3-0.5-0.5-0.8-0.7c-0.3-0.2-0.7-0.2-1.1-0.2c-0.3,0-0.5,0-0.8,0.1
		c-0.2,0.1-0.4,0.2-0.6,0.3l-0.3,0.2c-0.1,0-0.2,0.1-0.2,0.1h-0.2c-0.1,0-0.1,0-0.2-0.1c-0.1,0-0.1-0.1-0.1-0.2l0.4-3.9
		c0-0.1,0-0.2,0.1-0.2c0,0,0.1-0.1,0.2-0.1h3.9c0.1,0,0.1,0,0.2,0.1c0,0.1,0.1,0.1,0.1,0.2v0.2c0,0.1-0.1,0.2-0.2,0.3c0,0,0,0,0,0
		H394l-0.2,2.7c0.5-0.3,1-0.4,1.5-0.4c0.5,0,1,0.1,1.5,0.3c0.4,0.2,0.8,0.5,1,0.9c0.3,0.4,0.4,0.9,0.4,1.4c0,0.5-0.1,1.1-0.4,1.5
		c-0.2,0.4-0.6,0.7-1,0.9c-0.5,0.2-1,0.3-1.5,0.3C394.7,243.2,394.2,243.1,393.8,242.8z"/>
	<path class="st7" d="M434.4,248c-0.1,0-0.1-0.1-0.1-0.2v-1.9h-4c-0.1,0-0.2-0.1-0.3-0.2c0,0,0,0,0,0v-0.2c0-0.1,0-0.3,0.1-0.4
		l3.7-5.2c0-0.1,0.1-0.1,0.2-0.1c0.1,0,0.2-0.1,0.3-0.1h0.5c0.1,0,0.1,0,0.2,0.1c0.1,0,0.1,0.1,0.1,0.2v5.2h1.2
		c0.1,0,0.3,0.1,0.3,0.3c0,0,0,0,0,0v0.2c0,0.1,0,0.1-0.1,0.2c0,0.1-0.1,0.1-0.2,0.1h-1.1v1.9c0,0.1-0.1,0.2-0.2,0.3c0,0,0,0,0,0
		h-0.2C434.6,248.1,434.5,248.1,434.4,248z M434.4,245.2v-4.7l-3.3,4.7H434.4z"/>
	<path class="st7" d="M437.4,248.9c0,0,0-0.1,0-0.1c0,0,0,0,0-0.1l0.2-1.4c0-0.2,0.1-0.3,0.3-0.3h0.5c0.1,0,0.1,0,0.1,0.1
		c0,0,0.1,0.1,0,0.1c0,0.1,0,0.2,0,0.2l-0.5,1.4c0,0.1-0.1,0.1-0.1,0.2c0,0-0.1,0.1-0.2,0.1h-0.2C437.5,249,437.4,249,437.4,248.9z"
		/>
	<path class="st7" d="M444,248c0-0.1-0.1-0.1-0.1-0.2v-1.9h-4c-0.1,0-0.2-0.1-0.3-0.2c0,0,0,0,0,0v-0.2c0-0.1,0-0.3,0.1-0.4l3.7-5.2
		c0-0.1,0.1-0.1,0.2-0.1c0.1,0,0.2-0.1,0.3-0.1h0.5c0.1,0,0.1,0,0.2,0.1c0,0.1,0.1,0.1,0.1,0.2v5.2h1.1c0.1,0,0.1,0,0.2,0.1
		c0.1,0,0.1,0.1,0.1,0.2v0.2c0,0.1-0.1,0.2-0.2,0.3c0,0,0,0,0,0h-1.1v1.9c0,0.1,0,0.1-0.1,0.2c-0.1,0-0.1,0.1-0.2,0.1h-0.2
		C444.1,248.1,444,248.1,444,248z M443.9,245.2v-4.7l-3.3,4.6L443.9,245.2z"/>
	<path class="st7" d="M295.4,220.7c0-0.1-0.1-0.1-0.1-0.2v-1.9h-4c-0.1,0-0.1,0-0.2-0.1c0-0.1-0.1-0.1-0.1-0.2v-0.2
		c0-0.1,0.1-0.3,0.1-0.4l3.6-5.2c0-0.1,0.1-0.1,0.2-0.1c0.1,0,0.2,0,0.3-0.1h0.5c0.1,0,0.2,0.1,0.3,0.2c0,0,0,0,0,0v5.3h1.1
		c0.1,0,0.1,0,0.2,0.1c0,0.1,0.1,0.1,0.1,0.2v0.2c0,0.1,0,0.1-0.1,0.2c-0.1,0-0.1,0.1-0.2,0.1h-1.1v1.9c0,0.1-0.1,0.2-0.2,0.3
		c0,0,0,0,0,0h-0.2C295.5,220.8,295.5,220.8,295.4,220.7z M295.4,217.9v-4.7l-3.3,4.7L295.4,217.9z"/>
	<path class="st7" d="M298.4,221.6c0,0,0-0.1,0-0.1c0,0,0,0,0-0.1l0.2-1.4c0-0.2,0.1-0.3,0.3-0.3h0.5c0.1,0,0.1,0,0.1,0.1
		c0,0,0,0.1,0,0.1c0,0.1,0,0.1,0,0.2l-0.5,1.4c0,0.1-0.1,0.1-0.1,0.2c0,0-0.1,0.1-0.2,0.1h-0.2C298.5,221.7,298.4,221.7,298.4,221.6
		z"/>
	<path class="st7" d="M302.4,220.6c-0.4-0.2-0.7-0.4-1-0.8c-0.2-0.3-0.4-0.6-0.4-1c0-0.1,0-0.1,0.1-0.2c0.1,0,0.1-0.1,0.2-0.1h0.2
		c0.1,0,0.1,0,0.2,0c0.1,0.1,0.1,0.1,0.1,0.2c0.1,0.4,0.4,0.8,0.8,1c0.4,0.2,0.9,0.3,1.4,0.3c0.5,0,1.1-0.1,1.5-0.5
		c0.4-0.3,0.6-0.8,0.6-1.3c0-1.1-0.7-1.6-2-1.6H303c-0.1,0-0.1,0-0.2-0.1c0-0.1-0.1-0.1-0.1-0.2v-0.2c0-0.1,0-0.2,0.1-0.3l2.5-2.9
		h-3.6c-0.1,0-0.2-0.1-0.3-0.2c0,0,0,0,0,0v-0.2c0-0.1,0-0.1,0.1-0.2c0-0.1,0.1-0.1,0.2-0.1h4.5c0.1,0,0.1,0,0.2,0.1
		c0.1,0.1,0.1,0.1,0.1,0.2v0.2c0,0.1,0,0.2-0.1,0.2l-2.5,3h0.2c0.7,0,1.4,0.2,2,0.6c0.5,0.4,0.8,1.1,0.7,1.8c0,0.5-0.1,0.9-0.4,1.3
		c-0.2,0.4-0.6,0.7-1,0.9c-0.5,0.2-1,0.3-1.5,0.3C303.4,220.9,302.9,220.8,302.4,220.6z"/>
	<path class="st7" d="M185.7,373.1c-0.1,0-0.1-0.1-0.1-0.2v-7.1l-2.1,1.6c-0.1,0-0.1,0.1-0.2,0.1c-0.1,0-0.2,0-0.2-0.1l-0.1-0.2
		c0,0-0.1-0.1-0.1-0.2c0-0.1,0-0.2,0.1-0.2l2.6-2c0.1-0.1,0.2-0.1,0.3-0.1h0.2c0.1,0,0.1,0,0.2,0.1c0.1,0,0.1,0.1,0.1,0.2v7.9
		c0,0.1-0.1,0.2-0.2,0.3c0,0,0,0,0,0h-0.2C185.9,373.2,185.8,373.2,185.7,373.1z"/>
	<path class="st7" d="M190.5,373.1c0-0.1-0.1-0.1-0.1-0.2v-7.1l-2.2,1.6c0,0-0.1,0.1-0.2,0.1c-0.1,0-0.2,0-0.2-0.1l-0.1-0.2
		c0,0-0.1-0.1-0.1-0.2c0-0.1,0-0.2,0.1-0.2l2.5-2c0.1-0.1,0.2-0.1,0.3-0.1h0.2c0.1,0,0.3,0.1,0.3,0.3v7.9c0,0.1,0,0.1-0.1,0.2
		c0,0.1-0.1,0.1-0.2,0.1h-0.2C190.6,373.2,190.6,373.2,190.5,373.1z"/>
	<path class="st7" d="M192.9,374c0,0,0-0.1,0-0.1c0,0,0,0,0-0.1l0.2-1.4c0-0.2,0.1-0.3,0.3-0.3h0.5c0.1,0,0.1,0,0.1,0.1
		c0,0,0,0.1,0,0.1c0,0.1,0,0.1,0,0.2l-0.5,1.4c0,0.1-0.1,0.1-0.1,0.2c0,0-0.1,0.1-0.2,0.1H193C193,374.1,192.9,374.1,192.9,374z"/>
	<path class="st7" d="M197.1,373c-0.4-0.2-0.8-0.5-1.1-0.9c-0.3-0.4-0.4-0.9-0.4-1.3c0-0.5,0.1-0.9,0.4-1.3c0.2-0.4,0.6-0.7,1-0.8
		c-0.3-0.2-0.6-0.4-0.8-0.7c-0.2-0.3-0.3-0.7-0.3-1.1c0-0.6,0.3-1.2,0.8-1.6c1.2-0.8,2.7-0.8,3.9,0c0.5,0.4,0.8,1,0.8,1.6
		c0,0.4-0.1,0.8-0.3,1.1c-0.2,0.3-0.5,0.6-0.8,0.7c0.4,0.2,0.7,0.5,1,0.8c0.2,0.4,0.4,0.8,0.4,1.3c0,0.5-0.1,0.9-0.4,1.3
		c-0.3,0.4-0.6,0.7-1.1,0.9c-0.5,0.2-1,0.3-1.5,0.3C198.1,373.3,197.5,373.2,197.1,373z M200.2,372.1c0.4-0.3,0.7-0.8,0.6-1.3
		c0-0.5-0.2-1-0.6-1.3c-0.5-0.3-1-0.5-1.6-0.5c-0.6,0-1.1,0.1-1.6,0.5c-0.7,0.5-0.9,1.5-0.3,2.2c0.1,0.1,0.2,0.2,0.3,0.3
		C197.9,372.8,199.2,372.8,200.2,372.1L200.2,372.1z M199.9,367.9c0.6-0.4,0.7-1.2,0.3-1.8c-0.1-0.1-0.2-0.2-0.3-0.3
		c-0.8-0.5-1.9-0.5-2.8,0c-0.6,0.4-0.7,1.3-0.3,1.9c0.1,0.1,0.2,0.2,0.3,0.3c0.4,0.3,0.9,0.4,1.4,0.4
		C199.1,368.4,199.5,368.2,199.9,367.9L199.9,367.9z"/>
	<path class="st7" d="M323.8,338c0-0.1-0.1-0.1-0.1-0.2v-0.1l3.1-7.3h-4.1c-0.1,0-0.1,0-0.2-0.1c0-0.1-0.1-0.1-0.1-0.2v-0.2
		c0-0.1,0-0.1,0.1-0.2c0-0.1,0.1-0.1,0.2-0.1h4.6c0.1,0,0.2,0,0.2,0.1c0,0.1,0.1,0.1,0.1,0.2v0.2c0,0.2,0,0.3-0.1,0.5l-3,7.2
		c0,0.1-0.1,0.2-0.1,0.2c0,0.1-0.1,0.1-0.2,0.1H324C323.9,338.1,323.9,338,323.8,338z"/>
	<path class="st7" d="M327.9,338.9c0,0,0-0.1,0-0.1c0,0,0,0,0-0.1l0.2-1.4c0-0.2,0.1-0.3,0.3-0.3h0.5c0.1,0,0.1,0,0.1,0.1
		c0,0,0,0.1,0,0.1c0,0.1,0,0.1,0,0.2l-0.5,1.4c0,0.1-0.1,0.1-0.1,0.2c-0.1,0-0.1,0.1-0.2,0.1h-0.2C328,339,327.9,339,327.9,338.9z"
		/>
	<path class="st7" d="M331.3,338c0-0.1-0.1-0.1-0.1-0.2v-0.1l3.1-7.3h-4.1c-0.1,0-0.1,0-0.2-0.1c0-0.1-0.1-0.1-0.1-0.2v-0.2
		c0-0.1,0-0.1,0.1-0.2c0-0.1,0.1-0.1,0.2-0.1h4.6c0.1,0,0.2,0,0.2,0.1c0,0.1,0.1,0.1,0.1,0.2v0.2c0,0.2,0,0.3-0.1,0.5l-3,7.2
		c0,0.1-0.1,0.2-0.1,0.2c0,0.1-0.1,0.1-0.2,0.1h-0.2C331.4,338.1,331.4,338,331.3,338z"/>
	<path class="st7" d="M374.8,322.4c-0.4-0.2-0.7-0.5-1-0.8c-0.2-0.3-0.3-0.7-0.4-1.1l0,0c0-0.1,0-0.1,0.1-0.1c0.1,0,0.1-0.1,0.2,0
		h0.2c0.1,0,0.1,0,0.2,0c0.1,0.1,0.1,0.1,0.1,0.2c0.1,0.4,0.4,0.8,0.7,1.1c0.4,0.2,0.8,0.4,1.3,0.4c0.6,0,1.1-0.2,1.5-0.6
		c0.4-0.4,0.6-1,0.6-1.5c0-0.4-0.1-0.7-0.3-1c-0.2-0.3-0.5-0.5-0.8-0.7c-0.3-0.2-0.7-0.2-1.1-0.2c-0.3,0-0.5,0-0.8,0.1
		c-0.2,0.1-0.4,0.2-0.6,0.3c-0.1,0.1-0.2,0.1-0.3,0.2c-0.1,0-0.2,0.1-0.2,0.1h-0.2c-0.1,0-0.1,0-0.2-0.1c-0.1,0-0.1-0.1-0.1-0.2
		l0.4-3.9c0-0.1,0-0.1,0.1-0.2c0-0.1,0.1-0.1,0.2-0.1h3.9c0.1,0,0.2,0.1,0.3,0.2c0,0,0,0,0,0v0.2c0,0.1,0,0.1-0.1,0.2
		c0,0.1-0.1,0.1-0.2,0.1h-3.5l-0.2,2.7c0.5-0.3,1-0.4,1.5-0.4c0.5,0,1,0.1,1.5,0.3c0.4,0.2,0.8,0.5,1,0.9c0.3,0.4,0.4,0.9,0.4,1.5
		c0,0.5-0.1,1.1-0.4,1.5c-0.2,0.4-0.6,0.8-1,1c-0.5,0.2-1,0.3-1.5,0.3C375.7,322.8,375.2,322.7,374.8,322.4z"/>
	<path class="st7" d="M380.3,323.4c0,0,0-0.1,0-0.1c0,0,0-0.1,0-0.1l0.2-1.4c0-0.2,0.1-0.3,0.3-0.3h0.5c0.1,0,0.1,0,0.1,0.1
		c0,0,0,0.1,0,0.1c0,0.1,0,0.2,0,0.2l-0.5,1.4c0,0.1-0.1,0.1-0.1,0.2c-0.1,0-0.1,0.1-0.2,0.1h-0.2
		C380.4,323.5,380.4,323.5,380.3,323.4z"/>
	<path class="st7" d="M384.1,322.5c0-0.1-0.1-0.1-0.1-0.2c0-0.1,0-0.1,0.1-0.1l1.9-2.7c-0.3,0.1-0.5,0.1-0.8,0.1
		c-0.5,0-1.1-0.1-1.5-0.4c-0.4-0.2-0.8-0.6-1-1c-0.2-0.4-0.3-0.9-0.3-1.3c0-0.5,0.1-0.9,0.3-1.3c0.2-0.4,0.6-0.8,1-1
		c0.5-0.3,1-0.4,1.5-0.4c0.5,0,1.1,0.1,1.6,0.4c0.4,0.2,0.8,0.6,1,1c0.2,0.4,0.3,0.9,0.3,1.3c0,0.4-0.1,0.8-0.2,1.1
		c-0.1,0.3-0.3,0.6-0.5,0.9l-2.5,3.5l-0.1,0.1c0,0-0.1,0.1-0.1,0.1c-0.1,0-0.1,0-0.2,0h-0.3C384.2,322.6,384.2,322.6,384.1,322.5z
		 M386.3,318.7c0.3-0.2,0.6-0.4,0.8-0.7c0.4-0.7,0.4-1.5,0-2.1c-0.2-0.3-0.5-0.6-0.8-0.7c-0.7-0.3-1.4-0.3-2.1,0
		c-0.3,0.2-0.6,0.4-0.8,0.7c-0.2,0.3-0.3,0.7-0.3,1.1c0,0.4,0.1,0.7,0.3,1.1c0.2,0.3,0.5,0.6,0.8,0.7
		C384.8,319,385.6,319,386.3,318.7z"/>
	<path class="st7" d="M399.9,322.4c0-0.1-0.1-0.1-0.1-0.2v-1.9h-4c-0.1,0-0.1,0-0.2-0.1c0-0.1-0.1-0.1-0.1-0.2v-0.2
		c0-0.1,0-0.3,0.1-0.4l3.7-5.2c0-0.1,0.1-0.1,0.2-0.1c0.1,0,0.2,0,0.3,0h0.5c0.1,0,0.1,0,0.2,0.1c0.1,0,0.1,0.1,0.1,0.2v5.3h1.1
		c0.1,0,0.2,0.1,0.3,0.2c0,0,0,0,0,0v0.2c0,0.1,0,0.1-0.1,0.2c-0.1,0-0.1,0.1-0.2,0.1h-1.1v1.9c0,0.1,0,0.1-0.1,0.2
		c-0.1,0-0.1,0.1-0.2,0.1h-0.2C400,322.5,400,322.5,399.9,322.4z M399.9,319.6V315l-3.3,4.7H399.9z"/>
	<path class="st7" d="M402.9,323.3c0,0,0-0.1,0-0.1c0,0,0,0,0-0.1l0.2-1.4c0-0.2,0.1-0.3,0.3-0.3h0.5c0.1,0,0.1,0,0.1,0.1
		c0,0,0,0.1,0,0.1c0,0.1,0,0.2,0,0.2l-0.5,1.4c0,0.1-0.1,0.1-0.1,0.2c-0.1,0-0.1,0.1-0.2,0.1h-0.2
		C403,323.4,402.9,323.4,402.9,323.3z"/>
	<path class="st7" d="M406.3,322.4c0-0.1-0.1-0.1-0.1-0.2v-0.1l3.1-7.3h-4.1c-0.1,0-0.1,0-0.2-0.1c0-0.1-0.1-0.1-0.1-0.2v-0.2
		c0-0.1,0-0.1,0.1-0.2c0-0.1,0.1-0.1,0.2-0.1h4.6c0.1,0,0.2,0,0.2,0.1c0,0.1,0.1,0.1,0.1,0.2v0.2c0,0.2,0,0.3-0.1,0.5l-3,7.2
		c0,0.1-0.1,0.2-0.1,0.2c0,0.1-0.1,0.1-0.2,0.1h-0.3C406.4,322.5,406.4,322.5,406.3,322.4z"/>
	<path class="st7" d="M418.9,355c0-0.1-0.1-0.1-0.1-0.2v-7.1l-2.2,1.7c0,0-0.1,0.1-0.2,0.1c-0.1,0-0.2,0-0.2-0.1l-0.1-0.1
		c0,0-0.1-0.1-0.1-0.2c0-0.1,0-0.2,0.1-0.2l2.5-2c0.1-0.1,0.2-0.1,0.3-0.1h0.2c0.1,0,0.1,0,0.2,0.1c0,0.1,0.1,0.1,0.1,0.2v7.9
		c0,0.1,0,0.1-0.1,0.2c-0.1,0.1-0.1,0.1-0.2,0.1h-0.2C419.1,355.1,419,355.1,418.9,355z"/>
	<path class="st7" d="M422.5,354.9c-0.4-0.2-0.7-0.5-1-0.8c-0.2-0.3-0.3-0.7-0.3-1.1l0,0c0-0.1,0-0.1,0.1-0.1c0.1,0,0.1-0.1,0.2,0
		h0.2c0.1,0,0.1,0,0.2,0c0.1,0.1,0.1,0.1,0.1,0.2c0.1,0.4,0.4,0.8,0.7,1.1c0.4,0.2,0.8,0.4,1.3,0.4c0.6,0,1.1-0.2,1.5-0.6
		c0.4-0.4,0.6-1,0.6-1.5c0-0.4-0.1-0.7-0.3-1c-0.2-0.3-0.5-0.5-0.8-0.7c-0.3-0.2-0.7-0.2-1.1-0.2c-0.3,0-0.5,0-0.8,0.1
		c-0.2,0.1-0.4,0.2-0.6,0.3c-0.1,0.1-0.2,0.1-0.3,0.2c-0.1,0-0.2,0.1-0.2,0.1h-0.2c-0.1,0-0.1,0-0.2-0.1c-0.1,0-0.1-0.1-0.1-0.2
		l0.4-3.9c0-0.1,0-0.1,0.1-0.2c0-0.1,0.1-0.1,0.2-0.1h3.9c0.1,0,0.2,0.1,0.3,0.2c0,0,0,0,0,0v0.2c0,0.1,0,0.1-0.1,0.2
		c0,0.1-0.1,0.1-0.2,0.1h-3.4l-0.2,2.7c0.5-0.3,1-0.4,1.5-0.4c0.5,0,1,0.1,1.5,0.3c0.4,0.2,0.8,0.5,1,0.9c0.3,0.4,0.4,0.9,0.4,1.5
		c0,0.5-0.1,1.1-0.4,1.5c-0.2,0.4-0.6,0.8-1,1c-0.5,0.2-1,0.3-1.5,0.3C423.4,355.3,422.9,355.2,422.5,354.9z"/>
	<path class="st7" d="M428,355.9c0,0,0-0.1,0-0.1c0,0,0-0.1,0-0.1l0.2-1.4c0-0.2,0.1-0.3,0.3-0.3h0.5c0.1,0,0.1,0,0.1,0.1
		c0,0,0,0.1,0,0.1c0,0.1,0,0.1,0,0.2l-0.5,1.4c0,0.1-0.1,0.1-0.1,0.2c-0.1,0-0.1,0.1-0.2,0.1h-0.2C428.1,356,428.1,356,428,355.9z"
		/>
	<path class="st7" d="M430.9,355c-0.1,0-0.1-0.1-0.1-0.2v-0.2c0-0.2,0.1-0.4,0.3-0.5l3.1-3.1c0.3-0.3,0.6-0.6,0.9-1
		c0.2-0.3,0.2-0.7,0.2-1c0-0.5-0.1-0.9-0.5-1.3c-0.4-0.3-0.8-0.5-1.3-0.5c-0.5,0-0.9,0.1-1.3,0.5c-0.3,0.3-0.5,0.8-0.6,1.3
		c0,0.1,0,0.2-0.1,0.2c0,0-0.1,0.1-0.2,0.1h-0.2c-0.1,0-0.1,0-0.2-0.1c0,0-0.1-0.1-0.1-0.2c0-0.4,0.1-0.8,0.3-1.2
		c0.2-0.4,0.5-0.8,0.9-1c0.4-0.3,0.9-0.4,1.4-0.4c0.7-0.1,1.4,0.2,1.9,0.7c0.4,0.5,0.6,1.1,0.6,1.7c0,0.5-0.1,0.9-0.3,1.3
		c-0.3,0.5-0.6,0.9-1,1.2l-2.8,2.9h4c0.1,0,0.2,0,0.2,0.1c0,0.1,0.1,0.1,0.1,0.2v0.2c0,0.1,0,0.1-0.1,0.2c-0.1,0.1-0.1,0.1-0.2,0.1
		h-4.9C431,355.1,430.9,355.1,430.9,355z"/>
	<path class="st7" d="M351.2,446.6c-0.4-0.2-0.8-0.6-1-1c-0.2-0.4-0.3-0.9-0.3-1.4c0-0.8,0.3-1.5,0.8-2.1l2.4-3.3c0,0,0,0,0.1-0.1
		c0,0,0.1-0.1,0.1-0.1c0.1,0,0.1,0,0.2,0h0.2c0.1,0,0.1,0,0.2,0.1c0,0.1,0.1,0.1,0.1,0.2c0,0.1,0,0.1-0.1,0.2l-1.8,2.5
		c0.3-0.1,0.5-0.1,0.8-0.1c0.6,0,1.1,0.1,1.6,0.4c0.4,0.2,0.8,0.6,1,1c0.2,0.4,0.3,0.9,0.3,1.4c0,0.5-0.1,1-0.3,1.4
		c-0.2,0.4-0.6,0.8-1,1c-0.5,0.3-1,0.4-1.6,0.4C352.2,447,351.6,446.9,351.2,446.6z M353.8,446.1c0.3-0.2,0.6-0.4,0.8-0.7
		c0.2-0.3,0.3-0.7,0.3-1.1c0-0.4-0.1-0.8-0.3-1.1c-0.2-0.3-0.5-0.6-0.8-0.7c-0.3-0.2-0.7-0.3-1.1-0.2c-0.4,0-0.7,0.1-1.1,0.2
		c-0.3,0.2-0.6,0.4-0.8,0.7c-0.2,0.3-0.3,0.7-0.3,1.1c0,0.4,0.1,0.8,0.3,1.1c0.2,0.3,0.5,0.6,0.8,0.7c0.3,0.2,0.7,0.2,1.1,0.2
		C353.1,446.3,353.5,446.2,353.8,446.1z"/>
	<path class="st7" d="M356.9,447.7c0,0,0-0.1,0-0.1c0,0,0,0,0-0.1l0.2-1.4c0-0.2,0.1-0.3,0.3-0.3h0.5c0.1,0,0.1,0,0.1,0.1
		c0,0,0,0.1,0,0.1c0,0.1,0,0.1,0,0.2l-0.5,1.4c0,0.1-0.1,0.1-0.1,0.2c0,0-0.1,0.1-0.2,0.1H357C357,447.8,356.9,447.8,356.9,447.7z"
		/>
	<path class="st7" d="M359.7,446.8c-0.1,0-0.1-0.1-0.1-0.2v-0.2c0-0.2,0.1-0.4,0.3-0.5l3.1-3.1c0.3-0.3,0.6-0.6,0.9-1
		c0.2-0.3,0.2-0.7,0.2-1c0-0.5-0.1-0.9-0.5-1.3c-0.4-0.3-0.8-0.5-1.3-0.5c-0.5,0-0.9,0.1-1.3,0.5c-0.3,0.3-0.5,0.8-0.6,1.3
		c0,0.1,0,0.2-0.1,0.2c0,0-0.1,0.1-0.2,0.1H360c-0.1,0-0.1,0-0.2-0.1c0,0-0.1-0.1-0.1-0.2c0-0.4,0.1-0.8,0.3-1.2
		c0.2-0.4,0.5-0.8,0.9-1c0.4-0.3,0.9-0.4,1.4-0.4c0.7-0.1,1.4,0.2,1.9,0.7c0.4,0.5,0.6,1.1,0.6,1.7c0,0.5-0.1,0.9-0.3,1.3
		c-0.3,0.5-0.6,0.9-1,1.2l-2.8,2.9h4c0.1,0,0.1,0,0.2,0.1c0.1,0.1,0.1,0.1,0.1,0.2v0.2c0,0.1,0,0.1-0.1,0.2
		c-0.1,0.1-0.1,0.1-0.2,0.1h-4.9C359.8,446.9,359.7,446.9,359.7,446.8z"/>
	<path class="st7" d="M450.1,465.4c-0.4-0.2-0.7-0.4-1-0.8c-0.2-0.3-0.4-0.6-0.4-1c0-0.1,0-0.1,0.1-0.2c0.1,0,0.1-0.1,0.2-0.1h0.2
		c0.1,0,0.1,0,0.2,0c0.1,0.1,0.1,0.1,0.1,0.2c0.1,0.4,0.4,0.8,0.8,1c0.4,0.2,0.9,0.3,1.4,0.3c0.6,0,1.1-0.1,1.5-0.5
		c0.4-0.3,0.6-0.8,0.6-1.3c0-1.1-0.7-1.7-2-1.7h-1c-0.1,0-0.1,0-0.2-0.1c-0.1,0-0.1-0.1-0.1-0.2v-0.2c0-0.1,0-0.2,0.1-0.3l2.5-2.9
		h-3.6c-0.1,0-0.1,0-0.2-0.1c-0.1,0-0.1-0.1-0.1-0.2v-0.2c0-0.1,0-0.1,0.1-0.2c0.1,0,0.1-0.1,0.2-0.1h4.5c0.1,0,0.1,0,0.2,0.1
		c0.1,0.1,0.1,0.1,0.1,0.2v0.2c0,0.1,0,0.2-0.1,0.2l-2.5,3h0.2c0.7,0,1.4,0.2,2,0.6c0.5,0.4,0.8,1.1,0.7,1.8c0,0.5-0.1,0.9-0.4,1.3
		c-0.2,0.4-0.6,0.7-1,0.9c-0.5,0.2-1,0.3-1.5,0.3C451.1,465.7,450.6,465.6,450.1,465.4z"/>
	<path class="st7" d="M235.1,241.6c0-0.1-0.1-0.1-0.1-0.2v-0.1l3.1-7.3H234c-0.1,0-0.1,0-0.2-0.1c-0.1,0-0.1-0.1-0.1-0.2v-0.2
		c0-0.1,0-0.1,0.1-0.2c0.1,0,0.1-0.1,0.2-0.1h4.6c0.1,0,0.2,0,0.2,0.1c0.1,0.1,0.1,0.1,0.1,0.2v0.2c0,0.2,0,0.3-0.1,0.4l-3,7.2
		c0,0.1-0.1,0.2-0.1,0.2c0,0.1-0.1,0.1-0.2,0.1h-0.3C235.2,241.7,235.1,241.7,235.1,241.6z"/>
	<path class="st7" d="M258.9,452.8c0-0.1-0.1-0.1-0.1-0.2v-0.1l3.1-7.3h-4.1c-0.1,0-0.2-0.1-0.3-0.2c0,0,0,0,0,0v-0.2
		c0-0.1,0-0.1,0.1-0.2c0-0.1,0.1-0.1,0.2-0.1h4.6c0.1,0,0.2,0,0.2,0.1c0.1,0.1,0.1,0.1,0.1,0.2v0.2c0,0.2,0,0.3-0.1,0.4l-3,7.2
		c0,0.1-0.1,0.2-0.1,0.2c0,0.1-0.1,0.1-0.2,0.1h-0.2C259,452.9,258.9,452.9,258.9,452.8z"/>
	<path class="st7" d="M199.5,148.2c0-0.1-0.1-0.1-0.1-0.2v-1.9h-4c-0.1,0-0.1,0-0.2-0.1c0-0.1-0.1-0.1-0.1-0.2v-0.2
		c0-0.1,0.1-0.3,0.1-0.4l3.6-5.2c0-0.1,0.1-0.1,0.2-0.1c0.1,0,0.2-0.1,0.3-0.1h0.5c0.1,0,0.1,0,0.2,0.1c0,0.1,0.1,0.1,0.1,0.2v5.2
		h1.1c0.1,0,0.3,0.1,0.3,0.2c0,0,0,0,0,0.1v0.2c0,0.1,0,0.1-0.1,0.2c-0.1,0-0.1,0.1-0.2,0.1h-1.1v1.9c0,0.1-0.1,0.2-0.2,0.3
		c0,0,0,0,0,0h-0.2C199.6,148.3,199.6,148.2,199.5,148.2z M199.4,145.4v-4.7l-3.3,4.7H199.4z"/>
	<path class="st7" d="M202.5,149c0,0,0-0.1,0-0.1c0,0,0,0,0-0.1l0.2-1.4c0-0.2,0.1-0.3,0.3-0.3h0.5c0.1,0,0.1,0,0.1,0.1
		c0,0,0,0.1,0,0.1c0,0.1,0,0.1,0,0.2l-0.5,1.4c0,0.1-0.1,0.1-0.1,0.2c0,0-0.1,0.1-0.2,0.1h-0.2C202.6,149.1,202.5,149.1,202.5,149z"
		/>
	<path class="st7" d="M209,148.2c-0.1,0-0.1-0.1-0.1-0.2v-1.9h-4c-0.1,0-0.2-0.1-0.3-0.2c0,0,0,0,0,0v-0.2c0-0.1,0-0.3,0.1-0.4
		l3.6-5.2c0-0.1,0.1-0.1,0.2-0.1c0.1,0,0.2-0.1,0.3-0.1h0.5c0.1,0,0.1,0,0.2,0.1c0,0.1,0.1,0.1,0.1,0.2v5.2h1.1c0.1,0,0.1,0,0.2,0.1
		c0.1,0.1,0.1,0.1,0.1,0.2v0.2c0,0.1,0,0.1-0.1,0.2c-0.1,0-0.1,0.1-0.2,0.1h-1.1v1.9c0,0.1,0,0.1-0.1,0.2c-0.1,0.1-0.1,0.1-0.2,0.1
		h-0.1C209.2,148.3,209.1,148.2,209,148.2z M209,145.4v-4.7l-3.3,4.7H209z"/>
</g>
</svg>
