<?xml version="1.0" encoding="utf-8"?>
<!-- Generator: Adobe Illustrator 22.1.0, SVG Export Plug-In . SVG Version: 6.00 Build 0)  -->
<svg version="1.1" id="Calque_1" xmlns:amcharts="http://amcharts.com/ammap"
	 xmlns="http://www.w3.org/2000/svg" xmlns:xlink="http://www.w3.org/1999/xlink" x="0px" y="0px" viewBox="0 0 1366 768"
	 style="enable-background:new 0 0 1366 768;" xml:space="preserve">
<style type="text/css">
	.st0{fill:#CCCCCC;stroke:#FFFFFF;stroke-width:0.5;}
</style>
<defs>
	
	
		<amcharts:ammap  bottomLatitude="41.363289" leftLongitude="-4.796120" projection="mercator" rightLongitude="9.560553" topLatitude="51.089515">
		</amcharts:ammap>
</defs>
<g>
	<path id="FR-A" class="st0" d="M498.9,208.2l3.5-1.7l-1-2.5l1.4-1.2l-0.7-0.6l1.3-5l2.4-1.4l3.2-5.5l-0.7-2.2l5.8-10.3l-0.8-1.8
		l-2.6,0.4l-1.7-1.2l1.3-1.6l-1-1.3l1.3-4.8l-1.1-1.8l1.8,0.4l-2.9-1.7l4.2-0.2l2.2-1.6l3.6-6.7l-1.6-0.1l-1-1.9l3-4.7l-2.7-2.6
		l0.5-0.9l-4.4-1.5l-1.1,2.7l-2,1.1l0.5-1.7l-1.5-0.3l0-1.8l1.8-1.2l-1.9,0.2l-0.1-1l-3.9-1.2l-0.4-2.5l1.4,0l0.5-1.8l1.7,0.3
		l1.5-6.9l1.3-0.8l1.2,4.5l7,2l-0.1,1.1l1.5,0.8l5.2-1.6l3.5,2.3l1.7-1.6l2.4-6.1l0,0l4-0.2l0.1,0.8l2.4-1.4l3,2l2.8-1.5l6.6,4.3
		l5.8,1.5l-3.5,3.9l-2.5,6.4l-4.9,2.8l-0.3,2.2l-5.2,5.1l-1.6,3.6l0.2,4.3l-1.6,1.5l-1.5,6l0.5,4.2l-2.1,1.6l-1.1,5l-3.7,6.3
		l-0.3,5.4l2.2,3.8l-2.7,5.7l-1.1,6.2l0.8,2.8l-1.5,2.2l3.3,5.7l-0.3,1.8l-3.5,2.2l1.3,0.7l-1.4,0.4l0.6,1.4l-0.9,1l-2.4-0.8
		l-0.4,0.9l1.4,0.6l-2.9,2.4l-2.4-0.6l-3.5,1.2l-0.5-1.1l-2.6-0.3l1.3-3.1l-2.9-0.6l0,0l0.4-1.3l-2.4-4.2l-3.3-0.6l1.7-4.3l-0.4-3.1
		l-4-3l-3.1-0.7L498.9,208.2z"/>
	<path id="FR-B" class="st0" d="M241.3,335.8l1,1.3l2.8-0.4l2.2,1.7l-1,2.9l2.5,2.5l2.4-2.8l1.2,1.3l5-0.6l2.8,4.7l1.3-1l2.1,1.3
		l-1.9,3l7.2,2.5l-1.5,1.8l2.8,1.4l-2.5,3.3l-1.2,0.1l-0.4,2.9l2.1,1.1l-2.1,2.9l2.5,0.9l-1.2,1.3l0,0l-0.2,0l0,0l2.2,1.9l4.3,0.5
		l-1.4,1.2l2.9,5l0,0l-1.6,0.9l0,0l0.2,0.7l0,0l1.2,4.5l-1.2,0.4l1.2,1.9l-3.2,2.1l0.2,1.9l-2.8,0.9l0.7,3.2l-3.8,3.3l-3.1,0.8
		l0.2,1.8l-2.5,2.6l0.4,1.2l-3.7,2.1l-1.4-0.4l1.5,2.2l0,3.5l1.6,1l0.2,3.5l-4.6,0.2l-0.4,1l-0.9-2.2l-1,0.2l-1.1,4.1l3.4,2.1
		l-1.8,4.8l-2.2,0.4l1.3,0.5l0.4,2.1l-1.3,0.6l-3-1l0.4,1.9l-1.7,0.2l-0.7,2.6l-3.2,2.1l-2.9-3.2l-1.5,1.5l-3.9,0l-0.8,1.6l-5.3,1.1
		l-0.6,1.1l-2.9-1.8l-1.6,0.4l-1.5,2.4l-1.2-1.7l-3,2.3l0.9,2.6l-0.7,1.2l-3.3-1.9l1.1-1.4l-1.8-1.7l-2.5,3.2l-3.5-0.6l-2.5,2.4
		l2.2,1.7l-0.9,0.6l0.6,2.7l-1.4,0.1l1.3,4.1l-2.3,1.7l0.3,3l-1.6,0.7l0.1,1.4l1.3,0.1l0.4,1.9l2.6-0.8l3.4,0.8l0.1,2.2l1.1-0.3
		l2,4.3l-2,0.5l-0.1,3l2.8-2l-0.1,4.2l1.4,1.5l-3.1,2.5l1.2,1.8l-1.3,3l-1-0.2l0.2,2.6l-2.1-0.2l-1.2,2.9l-1.9,0.8l0.5,3.5l-3.4,0.8
		l-1.1,1.8l0.3,4l-1.9,0.9l0.6,3.8l0,0l-3.4,2.9l-2,0.2l-2.6-1.8l-1.9,2.8l-5.2-6l-2.2-0.7l-0.9-4l-7.9,0.8l-7.1-4l-1.2,0.9
		l-0.9-1.5l-2.7-1.1l-1.4,0.7l-1.9-1.4l1.6-2.8l-3,1.4l-0.4,3.7l-3.6-1l-1.4-2.4l2.4-2.2l1.4-3.5l-0.3-3.9l-6.1-2l-1.1,0.3l-0.6,2.2
		l-1.3-0.1l-0.7-3.1l-4.4,0.6l-0.3-1.9l-2.1-1.2l-0.1-1.3l5-0.9l2.8-2.5l6.4-12.2l6.2-32.3l1.7-19.2l2.6-6.7l7.9,1.3l-0.6-2.5
		l-2.1-1l1.5,0l-5.5-4.6l-2.7,4.8l-0.6,4.5l-0.6-1l4.3-49.4l2.6-4.8l1.4-1l0.9,2.2l-1.6,0.3l1.1,0.1l-0.6,1.1l10.9,9.8l4.7,15.9
		l3.9,3.9l-3.1-7.1l-1.9-11.6l0,0l5,0.4l0.3-1.5l0.9,3l5.8,1.1l1,5.4l0,0l0.1,0.3l0,0l0.7,2.2l0.9-1.5l1.1,0.2l1,1.7l1.4-0.3
		l0.9,1.6l2.8,1.2l2,0.3l2.3-1.9l1.8,1.4l0.3-2.4l1.7-0.8l-1-0.7l1.1-2.2l2-1.4l3.3,1.2l1.7-3.2l3.8-2.1l-0.8-4.3l1.2-3.4l1.7-0.6
		l-0.6-1.3l1.2,1l2.1-2.6l2.1,0l0.7-2.2l2.3-1.6l0.3-4.8l2.3,0L241.3,335.8z M212,475.2L212,475.2l-0.2-3.6l0,0l-0.4-0.2l0,0
		l0.2,2.1l-1.2,0.5l1,1L212,475.2z M210.4,475.1L210.4,475.1l-0.3,0.2l0,0l-0.8,1.9l0.8,1.8l1.7-1.2l-1-2.5l0,0l-0.2-0.2
		L210.4,475.1z"/>
	<path id="FR-C" class="st0" d="M309.8,293.4l0.7-3l1,0l1.6-2.8l5.2-1l2.1,0.8l3.2-2.1l-0.5-2.5l-1.5-0.9l1.2-1.8l-1.1-1.2l1.5-0.8
		l0.9,0.8l-0.1-1.9l3.2-1.7l0.6-1.6l1.9,1.7l1.6-1.1l2,0.5l3.1-4.1l4.6-0.1l0,0l1.1,2.6l5.9,4.5l2.9-2.4l3.2,2l1.3-1.7l1.7-0.1
		l1.5,3.8l4.3-2.3l-0.5-2l2-0.1l-0.3-2.3l1.5,0.4l0.6,2.9l4.1,6.3l0.2,3.8l2.6,1.2l1.4-0.8l1.2,2.6l3.4-0.3l2.1,1.9l-1,3.8l0.4,4.2
		l0.8,0.1l-2.4,0.3l-2,2.7l0,0l-0.3,0.1l0,0l-0.4,0l0,0l-4.8,2.1l1.7,4.6l-0.6,3.1l1.2,1.4l-0.7,2.1l1.1,3.2l-1.8,1.5l-3.6,0.2
		l-0.3,2.4l2.6,2.6l-1.6,0.9l0.3,3.4l-1.4,1.3l3.8,3.9l-0.1,2l1.9,3.5l4.6,3.2l2.1,4.9l-0.9,3.5l-3.1,2.4l0.6,3.6l1.8-2.5l1.6,0.2
		l1.4,2.6l0.1-1.3l2.1,0.8l0.4-1.3l3-0.4l-0.4-1.1l1.4-0.5l2.3,0.2l1.6,1.8l2.6-0.6l1.4,1.9l-1.5,1.1l1.6,1l-0.9,1.6l1.5,1.1
		l2.1-1.1l2.3,3l-1.8,3.7l0.4,2.4l-0.9,0.5l-0.5-1.6l-2-0.4l1,1.8l0,0v0.5l0,0l-1.1-0.1l-1,1.8l1.4,2.3l-3.5,1l0.7,2.7l-3.7,0.6
		l-2.8,5.3l-5.1,0l-0.3,2.3l-1.2,0.8l-0.7-0.8l0.2,1.2l-1.6-0.9l-1.1,3.4l-2.6,1.4l0,0l-1.1-0.2l0.3-1.4l-1.4,0.4l-2-2.1l-0.7-2.2
		l-3.2,0.5l0.3-1.6l-1.8-1.4l-1.5,0.3l-0.2,2.9l-4.6,1l-2.5-5.2l-0.1-2.5l-1.8-2l-3.6,2.8l-1.8-0.5l-0.2,2.8l-1.8,1.5l-2.5-2.4
		l-0.9,2.2l0,0H344l0,0l-0.2,1.9l-1.1-0.2l-1.1,2.2l-0.3,4.9l-2.4,4.1l0,0l-1.9-2.1l-1-4.7l1.1-0.7l-0.7-1.1l-1.3,0.2l-1.2-5
		l-3.6,1.1l0.1-3.3l-1.5-1.7l-5.5,5.6l-0.2,3.1L321,392l0.4,1.9l-2.5,1.8l-0.7,2.2l-5.5,0.6l-1.1-1.7l-1.3,0.1l-3.2,1.1l-0.5,1.9
		l-1.4-1.2l-0.5-3.3l-1.2-0.1l1.7-5.4l-3.3-4.9l0.5-2.7l-1.7-3.2l0,0l1.6-0.4l0,0l0.4,0.1l0,0l1.4-1.2l-1.8-3.4l3.1-1.3l0.3-3.2
		l2.2-1.7l-1.3-0.9l-0.3-2.4l6.9-6.8l-0.5-4.4l5.5,2.5l2-1.3l-1.7-1.6l1.3-8l-2.3-2.5l1-2.7l1.5-0.1l0.1-4l-5.6-6.8l2.8-2.4l0,0
		l0.2,0l0,0l1.3,0.2l2.7-3l0.3-2.6l2-0.9l-0.4-3.8l-2.1-3.1l0.6-4.1l-3.5-7.5l-2.1-1l-0.4,0.8l-1.4-2.9l-1,1.3l-2.6-2l1.3-1.7
		l-1.9-0.6L309.8,293.4z"/>
	<path id="FR-D" class="st0" d="M420.2,205.4L420.2,205.4l-1.5-3.4l-1.4,0.2l-0.4,1.3l-1.2-0.8l1.4-1.9l-0.8-1.2l-2.5-0.1l1-1.6
		l-0.7-1.1l-3.9-1.1l-5-0.3l-1.8,1.4l0.8,2.4l-10,0.4l-0.9,2.2l-2-0.3l-0.8-2.6l-1.3,0.3l0.3,1.6l-1.5-1.1l0,0l-0.5,0.3l0,0
		l-1.8,1.8l-2.1-1.2l-0.6,1.3l-1.7-1.1l-4.5,0.8l0.8-3.1l-0.8-1.4l-0.6,1.4l-1.2-0.3l-0.5-1.3l1.4-0.7l-2.1-1.8l-1.3-4.6l-2.1-0.9
		l0.4-2.1l-1.4-0.5l0.4,1.1l-2.3,1l-1.5-3.1l-2.1,0.3l1.8-2.6l-0.9-0.4l0.8-2.2l-1.7-0.9l0.4-1l-3.5-4.1l-1.6-0.6l-1.6,1.1l-0.6-2
		l0,0l-1.6-0.6l-0.5,1.7l-1.2,0.2l-8.1-0.2l-1.5,1.5l-2.3-0.6l-1.3,3.4l1.3,3.4l-1.8,2.7l-2.8,1.5l0,1.3l0,0l3.8,1.9l-0.6,1.1
		l0.8-0.1l0.6,2.7l3.1,2.7l-1,0.6l1.2,2.9l-1.4,1.6l0,0l-0.2,0.2l0,0l-3.3,2.3l-0.6,2.4l1.5,1.1l-0.3,3.9l-7.2,1.8l-0.2,2.5l1.3-0.2
		l2,2.4l1.1,2.3l-0.7,2.8l1.7,1.8l-4.8,1.4l0,0v-0.2l0,0l-0.5,0.8l3.4,6.1l-2.6,6.1l4.7,4.7l2,8.6l-0.5,3.5l2.5,2.5l0.1,4.1
		l-1.2,2.9l0.8,3.4l-1.6,3.4l0,0l1.1,2.6l5.9,4.5l2.9-2.4l3.2,2l1.3-1.7l1.7-0.1l1.5,3.8l4.3-2.3l-0.5-2l2-0.1l-0.3-2.3l1.5,0.4
		l0.6,2.9l4.1,6.3l0.2,3.8l2.6,1.2l1.4-0.8l1.2,2.6l3.4-0.3l2.1,1.9l-1,3.8l0.4,4.2l0.8,0.1l-2.4,0.3l-2,2.7l0,0l-0.4,3.7l3.4,0.7
		l0.7,2l4.7-1.8l3.1,1.5l1.2-1.2l0.8,1l1.2-0.6l-0.2,1.7l1.1,0.1l4-1.8l1.4-6.6l2.2-0.1l1.9,1.8l2.7-1.6l2.1,1.7l0.8-2.1l1.8-0.3
		l1.3,1.6l-1.3,1.2l2.4,1.5l-0.7,2.3l1.6,1.3l0.9-0.2l6.7-20.5l0.4,1.1l1.4-0.8l3,1.8l4.6-1.2l0-0.9l1.6,0.8l1.2,2.9l3.3,0.7l0,0
		l0.4-1l3.9-0.8l0.2-1.5l-2.6-1l0-2.6l1.9-1.2l-0.4-1.7l1.9-1.6l-1.9-2.9l-0.1-2.6l-1.3-0.1l1.3-2.5l-2.7-2.7l5.8-1.5l-2.6-1.7
		l-0.1-1.5l-2.9,0.3l-1.5-3.2l-1.2,0.7l-0.4-3l2.6-2.1l-1.8-0.8l0.4-1.4l4.2-2l2.2-3.8l0,0l0-0.3l0,0l2-8.4l1.3-0.9l-1.9-0.8l0,0
		h-0.1l0,0l1.1-1.5l-0.5-3.2l0,0l-0.2-0.1l0,0l-1.7,0.1l0,0h-0.3l0,0l0.3-3.5l-3-0.9l1.7-0.8l-0.9-0.2l0.5-1.1l2,0.1l2-3.5L441,220
		l-1.9,2.2l-0.9-0.6l0,0l-0.7,0.9l-2-1.1l-2.3,2l0.3-2.8l-3.6-1.8l0.2-1.7l-2.5,2.1l-2.6-1.3l0.3-1.7l-1.3,0.2l0-1.1l-2.5,1.5
		l-0.4-4.7l-1.8-0.3l3.2-2.5l-1.6-3.6H420.2z"/>
	<path id="FR-E" class="st0" d="M80.3,234.8l1.2,1.5l2.5-0.1l0.7,2.1l3.2,0.9l-0.6,1.7l-6.8-1l-1-3L80.3,234.8z M81.2,143l0.2,2.2
		L87,143v3l3.1-0.2l0.3,1.5l-1.6,1.2l4.8,1.5l-0.7,2.2l5.3,4.5l-0.2,3.4l4.5,2.5l-1.1,1.9l1.2-0.5l1.6,2.8l-0.4-2.8l2.3,0.7l3-4.9
		l3.4-1.4l-0.6-1.4l2.1-0.5l0.7,1.5l4.2-3.7l1.4,1.3l-2.2,3l1,0.6l2.9-2.1l1.4,3.6l-0.6,2.3l1.2-3.8l0.7,2.2l1.2-2.6l1.1,1.1
		l-1.1-2.1l4.3-0.3l0.4,2.4l1.7,1.1l-0.8,0.7l1.8,1.7l-0.5,3l0.9-1.9l1.1,0.4l-2-4l1.6,0.9l-0.6-1.3l-2.1-0.4l0.6-1.1l-1.5-1.2
		l1.7-3.1l6.1-1.8l0.3,2.1l-1.4,2.6l3.8,2.1l8.5-1.9l0,0l3.5,9.1l2.8,1.8l2.8-0.5l4.2-4.7l7.6,2.2l0,0l-0.5,5.9l1.5,5.4l-2.3,3.9
		l0.9,3.9l0,0l0.2,0.2l0,0l2.4,12.3l-5.8,2.4l-3.8,11.6l-4.8-1.4l-1-1.8l-3.8-0.4l0.2,2l-6.2,2.4l-1.6,3.3l-8.3,0.1l-3.9,2.3
		l-0.8-1.4l-4.5,2.7L128,226l-2.5,0.7l-0.3,1.9l-0.9-1.4l-2.5,1.1l-2.2-1.3l-0.8,3.4l-3.5,0.3l-0.9-1.3l-1.4,1.8l0,0l-1.6-0.1
		l-0.3-2.6l2.5-0.4l-2.8-1.6l-12.7,2.3l-4-4.1l-2.2,0l-1.1-1.6l-0.6,0.8l-0.8-1.6l0.2,1.5l-4.3-0.1l-0.2,3.4l2,2.8l-2.1-0.3
		l-1.3-3.4l1.1-0.9l-0.6-3.1l-5.7-5.5l-3.1,0l-0.2-1.5l-3.6,0.9l-3.1-4.2l-6.3-0.8l-2-1.8l-5.3,0.9l-2-2.7l0.8-1.5l-1.2,0.5
		l-1.5-3.2l-1.8,1.2l0.6,1.8l-2.8,0.7l-2.7-1.8L43,206l-1.9,3.7l-7.3,0l0.4-5.6l-2.6-4.6l-3.7-2.6l-2.4,0.3l-2.6-1.8l-4.3-0.6
		l1.2-0.3l-0.3-1.3l12.4-2.6l4.6,1.1l1.6-2.5l-2-4.6l-6.1-2.2l-1.5,0.4l-2.5,3.8l-0.5-4l1.2-0.9l-3.2-0.3l-0.3-1.6l2.4-0.2l-0.1-3
		L27,176l-1,2.4l0.9,1.2l1.5-1.7l-0.1,1.9l2.1-1l2.2,1.4l3.8-1.4l1.9,1.1l1.6-2.1l-1.1,0.9l-3.7-1l1.4-1l-1.2-0.6l0.6-1.4l-2.3,2.2
		l-1.8,0.1l0.8-1.1l-2.5,1l2.4-3.5l-1-0.8l-7.6,3.6l-3.1-1.1l-1.1,1.5l-2.7,0.1l-0.7-2l1.2-1.3l-1.4-1.9l1.4-3.4l-0.7-3l2-2.5l5-1.3
		l0.2-1.7l1.8,0.4l0.9-2.4l1.8,1l4.1-1l-1.5-1.1l3.8-1.4l2.1,0.8l0,1.9l4.2-1.1l-1.1-0.4l1.5-1.8l3.6-0.5l1.7,1.2l0.2-1.9l1.9-1.4
		l0.3,1l1.3-1l-0.1,3.3l1.7,0.7l0.2-2.3l0.1,1.6l3.2,0.9l-0.4-1.8l1-1.6l0.5,0.9l-0.1-1.2l6,2.1l1.5-0.6l-0.6,2.3l1.5-1.7l1.7,1
		l-0.1-3.4l1.4-1.3l-1.5-0.8l0.7-2.4l-0.8-0.7l1.3,0.9l2.1-3l0.5,1.2l0.4-1.1l0.9,1.4l1.3-0.3l-0.5,1.4l1.8-0.1l3.2-2.4l2.4,0.2
		L81.2,143z"/>
	<path id="FR-F" class="st0" d="M277.5,138.5l2.6,3.1l-0.7,1.3l2.2,1.9l-0.7,4.9l1.9,0.9l-2.1,2.8l1.5,0.9l-0.4,1.5l2.6,3.2l2,0
		l-0.2,2.3l3.2,1.5l-0.5,2.5l1.1,2.9l2.8,1.6l2.5-1l-0.1,3.2l2.1,0.3l0.4,2.4l-1.3,3.3l0.6,1.4l7.9-0.6l-0.5-1.1l1.2,0.3l0.9-2
		l1.8,0.8l0,2.1l2.2-0.9l0,0l0.2-0.4l0,0l1-0.9l1.3,1.6l1.9-0.5l0.8,3.5l3.9,2.1l0,3.6l-1.4,0.1l-1.6,2.5l4.8-1.1l6.1,1.1l2-1.4
		l-0.7-1.3l1.1,0.8l1.5-1l0.9,2.4l1.9-1.6l2.9-0.4l0,0l3.8,1.9l-0.6,1.1l0.8-0.1l0.6,2.7l3.1,2.7l-1,0.6l1.2,2.9l-1.4,1.6l0,0
		l-0.2,0.2l0,0l-3.3,2.3l-0.6,2.4l1.5,1.1l-0.3,3.9l-7.2,1.8l-0.2,2.5l1.3-0.2l2,2.4l1.1,2.3l-0.7,2.8l1.7,1.8l-4.8,1.4l0,0v-0.2
		l0,0l-0.5,0.8l3.4,6.1l-2.6,6.1l4.7,4.7l2,8.6l-0.5,3.5l2.5,2.5l0.1,4.1l-1.2,2.9l0.8,3.4l-1.6,3.4l0,0l-4.6,0.1l-3.1,4.1l-2-0.5
		l-1.6,1.1l-1.9-1.7l-0.6,1.6l-3.2,1.7l0.1,1.9l-0.9-0.8l-1.5,0.8l1.1,1.2l-1.2,1.8l1.5,0.9l0.5,2.5l-3.2,2.1l-2.1-0.8l-5.2,1
		l-1.6,2.8l-1,0l-0.7,3l0,0l-3.5-0.5l-4.5,1.1l-4.6-2l-5.8,1l-2.3-1.8l-1.5,0.4l0.5,1.5l-1.3,2.1l-1.8-1.7l-2.4,1.8l-0.8-2l-2.7,1.7
		l-0.8-2.1l-4.6,4.8l-2.6-3.2l-1.7,0.3l-0.4,1.4l-3.5,0.3l-0.4-1.5l-1.3,0.3l0,0l0,0l0,0l0.8-1l0,0l0.6-1.9l-2.5-0.9l-0.3-3.5
		l-2.1-1.8l-3,0l-0.2-1.9l-4.3-2.1l-0.8-1.7l1.5-3.9l-0.6-2l-4.1-3.8l-0.8-3.7l-3.8-3.2l-0.5-4.3l-3.1-2l-2.1,0.1l1.3,3l-3.8-0.1
		l-2.8,1.8l-3-1.2l-1.7,1.1l-1.3-3.6l0.9-0.5l-0.4-3.2l-1.4,0.5l-1-1.8l-2.8,0.8l0.9-2l-0.8-1.4l-0.8,0.9l-1.1-0.4l0.2-1.1l-2.5,0.4
		l-1.1-2.7l0,0l0.9-7.2l4.4-6.1l-1.2-1.1l2.9-6.2l0.2-1.7l-1.3-0.7l1.6-3.5l0,0l-0.1-0.5l0,0l6.3,2.1l0.8-0.5l-1.6-2.5l0.8-1.5
		l2.7,1.5l0.6-1.6l5.5-1.7l0.9-1.3l-1,0.3l-0.4-1.8l1.7-2.1l3.1-0.9l-0.4-1l3.2-3l-0.3-4.2l1.2-0.7l0.9,1.4l0.2-2.7l1.4-0.5
		l-1.3-2.8l1-2.7l-1.9-0.5l-0.1-2.1l2-0.2l0.1-1.4l-1.3-0.3l1.1-0.3l0.4-1.8l2.7-0.3l-4.9-3.4l0,0l1.3-1.2l-1.8-2.9l0.8-1.8
		l-2.1-0.7l0.6-1.4l6-3.1l2.6-4.2l-1.7-2.3l1.3-2.9l-6.1-5.5l-0.1-3.6l0,0l2-1.1l0.5-1.7l4.7-0.6l0,0h0.9l0,0l2.2-2.1l2.2,0.7
		l0.3-2.7l4.2,2l4.6-0.2l1.7-1.2l-0.4-3.4l4.1-2.4l-0.5-3.2L277.5,138.5z"/>
	<path id="FR-G" class="st0" d="M415.9,61l2.5,1.1l-1.2,1.1l0.2,2l-0.9-0.9l-1.3,2.4l0.9,1.7l-2.1,4.5l4.1,3.8l-1.7,2.8l1.1,3
		l-1,1.7l6-0.4l4.1,2.4l3,4.4l4.3-0.2l2.5,2.7l-0.7,2.7l1.4-1.3l2,0.9l0,0l-5.5,4.8l-1.1-1.8l-3,0.4l-0.8-1.8l-1.3-0.1l-0.9,3.2l0,0
		l-0.1,0.4l0,0l-1.2,2.3l2.2,2.7l0.2,2.4l-1.6,1.1l1,1.6l-2,0.7l-1.2,3.6l1.3,1l-0.2,1.2l-4.1,2.3l1.7,1.8l-2.2,1.5l2.7,7.3l-1.6,3
		l1.8-0.9l1.1,0.8l-0.1,1.9l-1.6,0.6l1.9,0.6l-1,2.2l-3.2,1.3l0,0L420,140l0,0l-0.9,2.9l1,1.6l-1.9,2.8l5,3.6l-0.5,7.9l2.4-1.1
		l0.6,2.3l2,0l3.8,4.2l4.8,1.2l5.8,5.4l-3.1,2l2,0.7l-0.6,3l2.2-1.6l1.9,0.5l2.7,4.6l0.9-1.1l1.8,1.5l-0.5,1.6l1.9,0.5l1.8,2.2
		l-2,1.2l-0.4,4.4l-1.8,1.4l2.9,0.5l1.1,2l2.3,0.6l0.4,5l2.5-1.4l1.6,3.1l0,0l0,1.6l-1.4-0.4l-1.2,2.2l0.2,1.2l-2.8-0.4l-0.8,2.4
		l-2.1-0.1l-0.6,2.6l1.4,2l-0.8,3.8l-3.9,0.8l-1.2-2.2l-1.7,2.1l-4.8-0.1l-1.6,4.3l0,0l-0.7,0.9l-2-1.1l-2.3,2l0.3-2.8l-3.6-1.8
		l0.2-1.7l-2.5,2.1l-2.6-1.3l0.3-1.7l-1.3,0.2l0-1.1l-2.5,1.5l-0.4-4.7l-1.8-0.3l3.2-2.5l-1.6-3.6l0,0h-0.6l0,0l-1.5-3.4l-1.4,0.2
		l-0.4,1.3l-1.2-0.8l1.4-1.9l-0.8-1.2l-2.5-0.1l1-1.6l-0.7-1.1l-3.9-1.1l-5-0.3l-1.8,1.4l0.8,2.4l-10,0.4l-0.9,2.2l-2-0.3l-0.8-2.6
		l-1.3,0.3l0.3,1.6l-1.5-1.1l0,0l-0.5,0.3l0,0l-1.8,1.8l-2.1-1.2l-0.6,1.3l-1.7-1.1l-4.5,0.8l0.8-3.1l-0.8-1.4l-0.6,1.4l-1.2-0.3
		l-0.5-1.3l1.4-0.7l-2.1-1.8l-1.3-4.6l-2.1-0.9l0.4-2.1l-1.4-0.5l0.4,1.1l-2.3,1l-1.5-3.1l-2.1,0.3l1.8-2.6l-0.9-0.4l0.8-2.2
		l-1.7-0.9l0.4-1l-3.5-4.1l-1.6-0.6l-1.6,1.1l-0.6-2l0,0l-1.3-5.6l2.3-0.7l-1.3-2.3l3.1-0.9l-0.7-1.8l2-1.2l-0.5-0.9l2.4-0.7l-1.6-1
		l0.6-0.8l-3.5,0.7l0.7-6.4l-3.1-1.3l2-2l-1.7-1.2l3.5-0.3l-0.1-2.4l0,0l1.8-3.8l1.8-0.2l0.1-1.6l1.2-0.2l-0.5-1.1l3.6-3.4l-1.1-1.8
		l-2.7,0.4l0.1-1.5l2.1-1.1l-1.6-2.7l0.9-1.9l3.4,0.5l1.8-1l0-1.4l-1.4,0.3l-0.7-1.9l-0.7,0.6l-1.2-1l1-1.4l-1.4-5l5.5-2.7l3,0.7
		l0.2-2.2l2.8-1.7l1.5,1.9l3.2,1.1l0.1-5l1.3-0.5l-1.1-3.9l1.6-1.1l-1.2-1.3l1.2-1.7l-2.3-3.2l0.7-1l3.1,0.3l0.5-2.9l2.4-1.3
		l2.7-3.7l-1.8-1.5l2-5.7l0.1-2.3l-1.6-0.6l0.6-2.9l0,0l3.2-0.7l5.7,2l6.3-3.2l3.9-0.6l-0.5-4.5l0.9-1.9l5.1-4.7L415.9,61z"/>
	<path id="FR-H" class="st0" d="M579.4,571.3l1.2-2.7l2.8-0.3l1.8-2.3l-4.3-1.5l-1.3,0.8l-0.3-2.3l-2.8,1.1l-0.1-1l-1.9-0.1l3-2
		l-0.8-1.4l2.5-0.5l0.5-1.2l-1.4-0.7l1.6-0.3l-0.4-1.8l1-0.7l-2.3-2.1l-1.2,1.4l-4.6,0.8l0.6-2.3l-1.3-1.7l2.3-0.2l0.5-2.4l3.6-2.1
		l-2-3.5l-1.7,0.7l-2-1.9l-1.3,0.4l0.2-1.3l-1.2,0.3l1.5-1.3l-1.3-0.2l0.8-1.9l-1.7-1.8l6.4-1.6l-1.4-2l-2.3-0.2l0.4-2.5l-2.6,0.9
		l-0.3-2.3l2.7-0.6l-0.1-1.7l2.1,0.1l-0.3-1.5l1.3-1.5l-1.3-0.5l0.7-2.1l2.2-0.5l-0.6-2.5l0.8-0.8l0.1,1.3l1.2-0.6l1.4,1l0.5-2.7
		l2.7-0.3l2.7-2.2l3.4,0.3l1.9-1.1l-0.1-2l2.8-2l4-0.2l3.2,3.3l1.9-3.3l-0.1-3.3l-1.4-2.1l1.3-1.8l-0.8-1.9l1.6-1.4l-0.9-4l3.5-1
		l1.7,1.4l1.2,10.1l-2,7.4l3.6,7.1l1.1,19.8l-0.4,5.1l-5.7,8.3l-1,17.1l-1.8,0.7l0.5,0.8l-1.9-0.7l-1.2,1.8l0.4,1.2l1.3-1.7l2.1,0.6
		l-1.1,2l-2.9,1.6l0.2,3.7l-2.3,1.2l-0.6,1.6l2.3-0.8l-0.2,0.8l-1.6,2.6l-1.7,0.1l-1-1.5l-2.6-0.1l1.1-2.4l-2.1-0.4l0.4-2l-1.7,1.3
		l-1.7-1.8l-0.6,0.9l-2.6-0.8l-1.8-1.9l-1.4,0.4l0.5-1.6l-2.8-0.5l0.7-1.1L579.4,571.3z"/>
	<path id="FR-I" class="st0" d="M459.4,201.7l2-3.2l1.1,0.6l-1.3,1.9l0.9,0.1l2.2-1.3l1.5-2.9l4-1l0,0l0.1,0.1l0,0l0.5,3.2l2.3,1.8
		l0,0v0.3l0,0l7.7-1.8l1.9,1.2l1.8,3.5l5.2-3.7l1.8,2.6l7.9,5.1l0,0l1.2,2.4l3.1,0.7l4,3l0.4,3.1l-1.7,4.3l3.3,0.6l2.4,4.2l-0.4,1.3
		l0,0l-6.2,0.6l0.8,2.5l-2.6,1.3l-2.5,4.9l5.7-1.2l1.4,0.6l0.3,1.7l-1.9,0.6l-0.6,1.8l-2.2,0.5l0.5,2.7l-4.7,4.3l0.7,0.4l-0.8,1
		l-5.6,4.1l0.7,1.9l-4.1,3.5l-5.2,1.1l-2.7,2.8l1.3,2.4l-1.4,4.6l0.9,2.2l-14.2,12l1.9,1.9l-3.5,5l-0.3,2.8l0,0l-8.1,9.1l-6,0.2
		l-0.5-2.9l-2.8-0.9l-0.1-1.2l-4.3,4.6l-2.7,0.2l0.1-3.1l-1.6,0l-0.5-2l-0.8,2.2l-1.8-3.6l0.6-0.7l-3.2-1.9l0.6-2l0,0l0.4-1l3.9-0.8
		l0.2-1.5l-2.6-1l0-2.6l1.9-1.2l-0.4-1.7l1.9-1.6l-1.9-2.9l-0.1-2.6l-1.3-0.1l1.3-2.5l-2.7-2.7l5.8-1.5l-2.6-1.7l-0.1-1.5l-2.9,0.3
		l-1.5-3.2l-1.2,0.7l-0.4-3l2.6-2.1l-1.8-0.8l0.4-1.4l4.2-2l2.2-3.8l0,0l0-0.3l0,0l2-8.4l1.3-0.9l-1.9-0.8l0,0h-0.1l0,0l1.1-1.5
		l-0.5-3.2l0,0l-0.2-0.1l0,0l-1.7,0.1l0,0h-0.3l0,0l0.3-3.5l-3-0.9l1.7-0.8l-0.9-0.2l0.5-1.1l2,0.1l2-3.5L441,220l-1.9,2.2l-0.9-0.6
		l0,0l1.6-4.3l4.8,0.1l1.7-2.1l1.2,2.2l3.9-0.8l0.8-3.8l-1.4-2l0.6-2.6l2.1,0.1l0.8-2.4l2.8,0.4l-0.2-1.2l1.2-2.2l1.4,0.4
		L459.4,201.7z"/>
	<path id="FR-J" class="st0" d="M285.9,120.1l1.5,0.5l-0.5,1.9l0,0l0.4,0l0,0l0.8,1.2l2-0.6l3.3,1.4l4.9-0.8l3.3-2.2l3.7,3l2-1
		l0.6,1.8l2.2-0.5l1.2-1.7l1.8,2.4l0.7-0.7l2.7,0.8l-0.2,0.8l1.1-0.5l1.8,1.5l-0.6,0.7l1.7,0.4l0.8-1.6l1.3,2.8l2.1-1.8l4.2,3
		l3.1-2.3l1.8,1.7l4.9-1.3l0.8,1.3l0.9-1.3l2.4,0.4l0.1-2l2.8,0.7l2.2,3.5l-1,2.4l3.5,2.5l0.6,2.1l1.7-0.6l1,2.6l1.6-1.3l0.6,3.5
		l2.6,0.7l0.6,1.4l1-0.9l0,0l0.1,2.4l-3.5,0.3l1.7,1.2l-2,2l3.1,1.3l-0.7,6.4l3.5-0.7l-0.6,0.8l1.6,1l-2.4,0.7l0.5,0.9l-2,1.2
		l0.7,1.8l-3.1,0.9l1.3,2.3l-2.3,0.7l1.3,5.6l0,0l-1.6-0.6l-0.5,1.7l-1.2,0.2l-8.1-0.2l-1.5,1.5l-2.3-0.6l-1.3,3.4l1.3,3.4l-1.8,2.7
		l-2.8,1.5l0,1.3l0,0l-2.9,0.4l-1.9,1.6l-0.9-2.4l-1.5,1l-1.1-0.8l0.7,1.3l-2,1.4l-6.1-1.1l-4.8,1.1l1.6-2.5l1.4-0.1l0-3.6l-3.9-2.1
		l-0.8-3.5l-1.9,0.5l-1.3-1.6l-1,0.9l0,0l-0.2,0.4l0,0l-2.2,0.9l0-2.1l-1.8-0.8l-0.9,2l-1.2-0.3l0.5,1.1l-7.9,0.6l-0.6-1.4l1.3-3.3
		l-0.4-2.4l-2.1-0.3l0.1-3.2l-2.5,1l-2.8-1.6l-1.1-2.9l0.5-2.5l-3.2-1.5l0.2-2.3l-2,0l-2.6-3.2l0.4-1.5l-1.5-0.9l2.1-2.8l-1.9-0.9
		l0.7-4.9l-2.2-1.9l0.7-1.3l-2.6-3.1l0,0l-0.4-1.7l1.1-0.7l-2,0.2l0.3-2.4l-1.3-2.5l1.7,0.2l0.9-2.2l0.5,1l0,0h0.2l0,0l4-1
		L285.9,120.1z"/>
	<path id="FR-K" class="st0" d="M338.9,398.3l2.4-4.1l0.3-4.9l1.1-2.2l1.1,0.2l0.2-1.9l0,0h0.2l0,0l0.9-2.2l2.5,2.4l1.8-1.5l0.2-2.8
		l1.8,0.5l3.5-2.8l1.8,2l0.1,2.5l2.5,5.2l4.6-1l0.2-2.9l1.5-0.3l1.8,1.4l-0.3,1.6l3.2-0.5l0.7,2.2l2,2.1l1.4-0.4l-0.3,1.4l1.1,0.2
		l0,0l1.7,8.7l2.1,1.4l1.5,5.7l3.4,3.9l-1.2,0.8l0.3,4.2l3.4-1l5.3,4.1l2.9-4.2l2.7-0.5l0.1,3.2l1.8,0.4l0.6-3.2l2.2-0.3l6,4.2l0,0
		l1,3.2l1.4,0.1l0.6,1.5l0,6.1l2.7,0.9l2.4,4.4l-1.3,0.1l0,1.4l-7.2,5.5l1.1,1.2l-2.3,6.8l0.6,2.3l-3.6-1.2l-2.3,0.6l-2.5,4.2
		l1.9,0.7l-0.4,1.3l-5.3,3.1l-0.8-1.1l0.4,1.5l-3.4,1.6l-0.4,2.2l0,0l-4-1.5l-0.7-1.3l0.8-1.3l-1.3-1.2l-5.6,0.4l-10.3,8.3l-3.4,1
		l-5.7,6.6l0.2-1l-0.3,0.9l-7.1-1.2l0.4,1.2l-6.7,5.4l-4.1,6.6l-1.6,5.2l0.7,2.6l-1.3,12.1l0.8,9.2l3.9,1.3l-0.5,1.9l1.8,2.7
		l-3.7,0.5l-1.9-2.7l-3.1,0.4l-0.8-0.9l-1.2,1.5l-3.2-0.1l-2.5,2.6l-1.9-0.7l-2.4,1.1l-1,1l0.8,2.6l-4-1l-1.9,1.4l-2-0.4l-2-3
		l-7.3-2.5l-2.3,1.2l-1.9-0.4l-2.9,3.4l-2.9,0.8l-2.2-1.9l-1.2-4l-2.2,0.2l-2.4-2.1l-3.9-0.5l0.4-3.4l2-1l0,0l3.4-0.3l1.3-2l3-0.1
		l1-2.5l6.9-0.1l0.5-1l-3.8-4l-3.4,1l-3.8-1.4l0.5-1l-2.8-2.7l0.7-1.6l4.6-1l-0.3-3.3l-1.9-0.7l1-1.2l2,0.1l-1.5-2.6l0.7-1.4l-1.8-1
		l0.9-1l-0.5-2.5l-1.5-1.2l-1,1l-1.6-2.5l0,0.8l-2.8-0.3l-3.1-2.2l0.7-1.9l-1.5-2.8l1.9-2.3l-0.6-1.6l3.8,0l-0.5-2.9l2.1-2.9
		l1.8,2.6l1-1.4l0,0l0.2,0l0,0l2.7,0.7l2-1.5l1.5,2.3l4.1-1.2l1.8,1.9l0.3-2.7l1.5-1.6l5.7,2.5l1.5-1.1l7.3,0.3l2.5-2.2l0.3-2.6
		l-2.4-2.9l1.2-5.4l3.1,0.9l1.5,1.8l6.3-2.3l0.7-2l2.6-1.1l3.1,0.9l0.1-8.1l6.2,1.2l1.5-0.9l-0.6-1.9l1.2-1.8l3.3,0l0.6-3.2l3.5-2.9
		l0.3-1.5l-2.5-1.9l-1.5,0.5l-0.9-1.6l-1.5,0.6l-1.3-1.4l2.5-0.9l0.5-2.9l1.6-0.6l-0.4-1.8l-6.5,0.6l1.1-2.3l-2.9-0.8l-0.4-1.8
		l-1.3,0.7l1.4-2.6l-1.4-3.2l1-4.3l-3.2-3.7l0.8-3.3L338.9,398.3z M296,523.1l2.2,0.6l-1-2.2L296,523.1z"/>
	<path id="FR-L" class="st0" d="M264,295.5l1.3-0.3l0.4,1.5l3.5-0.3l0.4-1.4l1.7-0.3l2.6,3.2l4.6-4.8l0.8,2.1l2.7-1.7l0.8,2l2.4-1.8
		l1.8,1.7l1.3-2.1l-0.5-1.5l1.5-0.4l2.3,1.8l5.8-1l4.6,2l4.5-1.1l3.5,0.5l0,0l0.3,2.3l1.9,0.6l-1.3,1.7l2.6,2l1-1.3l1.4,2.9l0.4-0.8
		l2.1,1l3.5,7.5l-0.6,4.1l2.1,3.1l0.4,3.8l-2,0.9l-0.3,2.6l-2.7,3l-1.3-0.2l0,0l-0.2,0l0,0l-2.8,2.4l5.6,6.8l-0.1,4l-1.5,0.1l-1,2.7
		l2.3,2.5l-1.3,8l1.7,1.6l-2,1.3l-5.5-2.5l0.5,4.4l-6.9,6.8l0.3,2.4l1.3,0.9l-2.2,1.7l-0.3,3.2l-3.1,1.3l1.8,3.4l-1.4,1.2l0,0
		l-0.4-0.1l0,0l-1.6,0.4l0,0l-3.1,0.1l-1.6,1.3l-1.6-1.5l-4.4,3.2l-2.1-0.9l-4.3-5.3l-4.2-0.1l-0.3-1l-3.7,1.6l0,0l-2.9-5l1.4-1.2
		l-4.3-0.5l-2.2-1.9l0,0l0.2,0l0,0l1.2-1.3l-2.6-0.9l2.1-2.9l-2.1-1.1l0.4-2.9l1.2-0.1l2.5-3.3l-2.8-1.4l1.5-1.8l-7.2-2.5l1.9-3
		l-2.1-1.3l-1.3,1l-2.8-4.7l-5,0.6l-1.2-1.3l-2.4,2.8l-2.5-2.5l1-2.9l-2.2-1.7l-2.8,0.4l-1-1.3l0,0l3.5-3.1l-0.1-2.5l2.9,0.8
		l1.8-5.4l-0.6-2.9l2.9,0.5l2.7-2.8l-0.9-2.4l-1.7-1.3l-1.1,0.8l-1.8-1.9l0.8-2.7l-1-1.6l1.5-0.8l-2.2-4.5l2.4-1.1l2.1-3.4l4.3,0.5
		l1.8-4.9l3.4,0.9l1.1-2.5L264,295.5z"/>
	<path id="FR-M" class="st0" d="M440.1,96.6l1.5,2.1l0.7,4.4l3.5-2.1l2.3,1.5l1.3-2.7l4.3,0.7l1.1-1.6l2.7,1.3l1.3,2.8l4.1,0.3
		l0.6,2.7l2.5,0.2l1.3-1.2l1.1,0.9l1.1-2.5l4.6-1.3l5.2,3.4l2.7-1.1l5.3,3.5l-0.7,1.2l2.5,2.3l-1.4,1.2l4.3,4.3l-0.4,1.3l1.2,0.6
		l0.3,2.1l1.2-0.2l-0.5,2l1.1,1.5l4,0.7l1.1-1.8l-1-2l4.2-0.6l4,2l0.7,4.9l2-2.6l2.4,2.2l3.7-0.6l2,0.9l1.3-1.8l1.5,0l0.1-1.8
		l3.3-0.8l-0.4,1.2l2.4-0.3l1.4,4.5l4.3,1.5l0.2,1.2l0,0l-2.4,6.1l-1.7,1.6l-3.5-2.3l-5.2,1.6l-1.5-0.8l0.1-1.1l-7-2l-1.2-4.5
		l-1.3,0.8l-1.5,6.9l-1.7-0.3l-0.5,1.8l-1.4,0l0.4,2.5l3.9,1.2l0.1,1l1.9-0.2l-1.8,1.2l0,1.8l1.5,0.3l-0.5,1.7l2-1.1l1.1-2.7
		l4.4,1.5l-0.5,0.9l2.7,2.6l-3,4.7l1,1.9l1.6,0.1l-3.6,6.7l-2.2,1.6l-4.2,0.2l2.9,1.7l-1.8-0.4l1.1,1.8l-1.3,4.8l1,1.3l-1.3,1.6
		l1.7,1.2l2.6-0.4l0.8,1.8l-5.8,10.3l0.7,2.2l-3.2,5.5l-2.4,1.4l-1.3,5l0.7,0.6l-1.4,1.2l1,2.5l-3.5,1.7l0,0l-7.9-5.1l-1.8-2.6
		l-5.2,3.7l-1.8-3.5l-1.9-1.2l-7.7,1.8l0,0V201l0,0l-2.3-1.8L470,196l0,0l-0.1-0.1l0,0l-4,1l-1.5,2.9l-2.2,1.3l-0.9-0.1l1.3-1.9
		l-1.1-0.6l-2,3.2l0,0l-1.6-3.1l-2.5,1.4l-0.4-5l-2.3-0.6l-1.1-2l-2.9-0.5l1.8-1.4l0.4-4.4l2-1.2l-1.8-2.2l-1.9-0.5l0.5-1.6
		l-1.8-1.5l-0.9,1.1l-2.7-4.6l-1.9-0.5l-2.2,1.6l0.6-3l-2-0.7l3.1-2l-5.8-5.4l-4.8-1.2l-3.8-4.2l-2,0l-0.6-2.3l-2.4,1.1l0.5-7.9
		l-5-3.6l1.9-2.8l-1-1.6l0.9-2.9l0,0l0.2-0.2l0,0l3.2-1.3l1-2.2l-1.9-0.6l1.6-0.6l0.1-1.9l-1.1-0.8l-1.8,0.9l1.6-3l-2.7-7.3l2.2-1.5
		l-1.7-1.8l4.1-2.3l0.2-1.2l-1.3-1l1.2-3.6l2-0.7l-1-1.6l1.6-1.1l-0.2-2.4l-2.2-2.7l1.2-2.3l0,0l0.1-0.4l0,0l0.9-3.2l1.3,0.1
		l0.8,1.8l3-0.4l1.1,1.8l5.5-4.8l0,0L440.1,96.6z"/>
	<path id="FR-N" class="st0" d="M210.5,475l0.2,0.2l0,0l1,2.5l-1.7,1.2l-0.8-1.8l0.8-1.9l0,0l0.3-0.2l0,0L210.5,475z M211.8,471.6
		l0.2,3.6l0,0l-0.7-0.2l0,0l-1-1l1.2-0.5l-0.2-2.1l0,0L211.8,471.6z M275.2,376.4l3.7-1.6l0.3,1l4.2,0.1l4.3,5.4l2.1,0.9l4.4-3.2
		l1.6,1.5l1.6-1.3l3.1-0.1l0,0l1.7,3.2l-0.5,2.7l3.3,4.9l-1.7,5.4l1.2,0l0.5,3.3l1.4,1.2l0.5-1.9l3.2-1.1l1.3-0.1l1.1,1.7l5.5-0.6
		l0.6-2.2l2.5-1.8L321,392l2.1-2.3l0.2-3.1l5.5-5.6l1.5,1.7l-0.1,3.3l3.6-1.1l1.2,5l1.3-0.3l0.7,1.1l-1.1,0.7l1,4.7l1.9,2.1l0,0
		l4.3,5l-0.8,3.3l3.2,3.7l-1,4.3l1.4,3.2l-1.4,2.6l1.3-0.7l0.4,1.8l2.9,0.8l-1.1,2.3l6.5-0.6l0.4,1.8l-1.6,0.6l-0.5,2.9l-2.5,0.9
		l1.3,1.4l1.5-0.6l0.9,1.6l1.5-0.5l2.5,1.9l-0.3,1.5l-3.5,2.9l-0.6,3.2l-3.3,0l-1.2,1.8l0.6,1.9l-1.5,0.9l-6.2-1.2l-0.1,8.1
		l-3.1-0.9l-2.6,1.1l-0.7,2l-6.3,2.3l-1.5-1.8l-3.1-0.9l-1.2,5.4l2.4,2.9l-0.3,2.6l-2.5,2.2l-7.3-0.3l-1.5,1.1l-5.7-2.5l-1.5,1.6
		l-0.3,2.7l-1.8-1.9l-4.1,1.2l-1.5-2.3l-2,1.5l-2.7-0.7l0,0l-0.2,0l0,0l-1,1.4l-1.8-2.6l-2.1,2.9l0.5,2.9l-3.8,0l0.6,1.6l-1.9,2.3
		l1.5,2.8l-0.7,1.9l3.1,2.2l2.8,0.3l0-0.8l1.6,2.5l1-1l1.5,1.2l0.5,2.5l-0.9,1l1.8,1l-0.7,1.4l1.5,2.6l-2-0.1l-1,1.2l1.9,0.7
		l0.3,3.3l-4.6,1l-0.7,1.6l2.8,2.7l-0.5,1l3.8,1.4l3.4-1l3.8,4l-0.5,1l-6.9,0.1l-1,2.5l-3,0.1l-1.3,2l-3.4,0.3l0,0l0.2-0.8l-2.8-0.1
		l0.4-1.5l-5.7-0.5l-2-1.6l-2.9,0.2l-0.1,2.1l-1.7,0.6l-3.4-6.5l-5.2-0.5l-2.5,1.1l-3.7-4.5l-4,0.1l-1-1.1l-1.4,0.9l-9.1-4.1
		l-2.1,1.3l0.5,1.9l-1.1,1.2l0.9,0.4l-1,1.1l1.5,1.6l-0.1,2l-3.3-0.8l-7.3,0.8l-2.6-1.9l-2.7,2.9l-1.4-2.4l-3.5-1.2l-7.4,2.9
		l-2.3-0.4l-0.5-1.4l-1.8-0.5l-2-4.1l-1.1,0.6l-5.2-3.5l0,0l-0.6-3.8l1.9-0.9l-0.3-4l1.1-1.8l3.4-0.8l-0.5-3.5l1.9-0.8l1.2-2.9
		l2.1,0.2l-0.2-2.6l1,0.2l1.3-3l-1.2-1.8l3.1-2.5l-1.4-1.5l0.1-4.2l-2.8,2l0.1-3l2-0.5l-2-4.3l-1.1,0.3l-0.1-2.2l-3.4-0.8l-2.6,0.8
		l-0.4-1.9l-1.3-0.1l-0.1-1.4l1.6-0.7l-0.3-3l2.3-1.7l-1.3-4.1l1.4-0.1l-0.6-2.7l0.9-0.6l-2.2-1.7l2.5-2.4l3.5,0.6l2.5-3.2l1.8,1.7
		l-1.1,1.4l3.3,1.9l0.7-1.2l-0.9-2.6l3-2.3l1.2,1.7l1.5-2.4l1.6-0.4l2.9,1.8l0.6-1.1l5.3-1.1l0.8-1.6l3.9,0l1.5-1.5l2.9,3.2l3.2-2.1
		l0.7-2.6l1.7-0.2l-0.4-1.9l3,1l1.3-0.6l-0.4-2.1l-1.3-0.5l2.2-0.4l1.8-4.8l-3.4-2.1l1.1-4.1l1-0.2l0.9,2.2l0.4-1l4.5-0.2l-0.2-3.5
		l-1.6-1l0-3.5l-1.5-2.2l1.4,0.4l3.7-2.1l-0.4-1.2l2.5-2.6l-0.2-1.8l3.1-0.8l3.8-3.3l-0.7-3.2l2.8-0.9l-0.2-1.9l3.2-2.1l-1.2-1.9
		l1.2-0.4l-1.2-4.5l0,0l-0.2-0.7l0,0L275.2,376.4z"/>
	<path id="FR-O" class="st0" d="M321.5,2.2l0.5,3.5l2.4,3.6l-1.7,1.8l0.4,4.6l1.5,2.4l3.6,0.1l3,5.6l2.2,0.1l2.5,2l1.9-3.9l8.2-2.5
		l1.7,4.2l2.9,1.5l-0.9,2.9l2.2,8.7l3.5,2.2l3-1l1.1-1.7l1.8,0.6l-0.8,2.4l4.5-0.6l2.2,2.6l-0.1,5.6l2.1,4.2l1.6-3l4.3-0.1l2.1,1.6
		l5.1-2.1l2.1,3.1l1.7,0.5l0.9,3l1.2,0l-0.2-2l1.9,1.1l0.5,1.2l-2.9,2.6l0.2,3.2l-1.1,1.9l3,0l1.2,4.1l-2.9,1.4l-0.8,4.4l0,0
		l-2.3,0.7l-4.4-1.6l0.1-3.3l-3.9,2.2l-0.6-1.8l-6.5-2.1l-2.1,1l-0.2,1.6l-1.9,0.3l-2.9-1.9l-2.2,2.4l-5.3-1.2l-1.4,1.3l-2.1,0.1
		l-0.8-1.2l-3.6,1.3l-3.2-2.7l-3.3-0.4l-1.8,1.1l-2.1-0.5l-2.3,1.8l-0.3-3.7l-4.6,2.2l1.4-4.3l-2.1-0.9l-0.9-0.1l-0.1,3l-5.3-2.1
		l0.1-1.7l-1-0.2l-0.8,1.9l-0.8-1.8l-1.4,0.2l-2.6,3.3l-1.8-1.4l0.5-2.8l4.4-2.6l-1.8-2.3l-1.9-0.3l-2,1.8l-1.1-2.1l-0.2,1.7l-2.4-1
		l-5,2.5l-0.8-1.2l-1.8,0.6l-0.4-3.3l-5.4-2.3l-0.6-0.8l1.4-1.4l-0.8-0.6l-1.6,1.3l-4.3-3.2l-5.8,2l-1-1.4l0,0l-3.6-3.1l1.3-9l2,1.6
		l-2.4-3.7l-0.6-10.2l0.2-1l0.4,1.6l0.8-1l0.8-4.7l-1.4-4.4l3.3-1l3.5-3.8l5.2-1.7l-1.2-0.2l10.5-2.7l0.5,0.7l2.2-2.3l-0.5,1.2
		l1.3,1.2l0.7-2.4l0.3,0.8l6.2-2.1l1.1,0.8l6.8-2.8L321.5,2.2z"/>
	<path id="FR-P" class="st0" d="M134.8,88.5l2,1.3l1.5-0.8l1.1,1.8l8.6,2l-0.2,1.5l0.5-1.4l5-0.7l0.6-1.8l8.6,0.1l1.5,5.7l-1.1-0.4
		l-0.7,2.7l0-0.9l-1.1,0.2l-0.5,2.2l5.9,9l-1.4,4.6l1.9-1.8l1.6,1.2l1.7-2.9l4.5-0.5l8.7,3.1l15,1l4.8,2.6l1.5-0.5l0.9,1.3l9.2-2.8
		l5.3-4.9l4-1.7l-4.7-0.2l7.2-0.1l0,0l1.7,5.9l-1.2,1.5l1.2,1.2l-0.6,0.8l2.2-0.9l0.9,0.7v1.3l-2.6,1l3.1,2.4l-0.4,3.6l2,0.8
		l-1.4,2.2l0.8,1.9l-2.2,1.4l3.3,2.3l-2.6,6.5l2.9,2.1l4.1,0.3l1.2-1.2l0.4,1.3l1.1-0.4l-0.2,1.4l1.1,0l-1.1,1.4l6.1,4.1l0.7,1.9
		l-1.9,1.9l1.7,0.7l0.1,1.6l1.9,0l0,0l0.1,3.6l6.1,5.5l-1.3,2.9l1.7,2.2l-2.6,4.2l-6,3.1l-0.6,1.4l2.1,0.6l-0.8,1.8l1.8,2.9
		l-1.4,1.2l0,0l-2.5,0.4l-3.5-4.7l-0.6,1.9l-4.3-1l-1.9-3.8l-0.4,0.7l-3.6-1.4l-0.4-6.4l-3.4-3.5l-6.5,1.4l0.5,1l-3.6,2.1l-0.6,1.9
		l-2.4-1.2l-2.1,1.4l0-4.8l-4-0.4l-1.1-3.4l1.2-1.1l-2.6-2.2l-1.7,0l0.3,1.8l-1.2,1.8l-2.1-0.9l-1.3,2.4l-1.8-1.6l-4.7,0.1l-1.7,2.2
		l-4.2,1.8l-0.5-2.6l-1.1,1.1l-1.7-0.3l0.7,1.5l-1.9,0.9l-0.8-1.8l-1.4,0.6l-1.3-2.8l-2.6,0.2l-1.9-1.3l-2,1.8l-2.7-1.2l0,0
		l-7.6-2.2l-4.2,4.7l-2.8,0.5l-2.8-1.8l-3.5-9.1l0,0l2.5,0.9l0.1-1.1l0.9,0.9l2.7-1.3l3,0.7l-2.4-1.7l1.1-1l-2.5,1.3l-5.1-5.8
		l-0.2-4.7l-1.7-0.8l3.1-6.1l-0.9-0.6l0.2-5.4l2.2,0.4l-2.3-1.1l-0.7,2.4l-0.9-2.4l-0.6-11.4l1.9-0.2l-1.9-0.8l-0.5,1.6l-3.3-7.6
		l-4.3-2.8l-1.6-8.4l-1.6-1.9l2-2.3l-0.3-3.8l-1.1-1.8l-3-1L134.8,88.5z"/>
	<path id="FR-Q" class="st0" d="M272.3,66.8l3-0.4l0.1,2l10.8,9.8l0.9,4.6l2.1,3.4l-1.5-0.1l-2.5,4.4l0.7,0.9l1.9-0.9l-2.2,3.2
		l1,1.3l-0.9,2.6l0,0h-0.2l0,0l2.2,2.8l-1.3,2.2l1.1,0.9l0.6-1.4l1.3,0.5l-0.8,2.2l0,0l-0.4,0.3l0,0l-2,3.7l1.1,0.1l-0.8,0.8
		l1.6,1.7l0.5,4.7l1.3,1.1l-0.6,1.8l-1.3-1.7l-2,0.5l-0.2,2.1l0,0l-3.4,9.2l-4,1l0,0l-0.2,0l0,0l-0.5-1l-0.9,2.2l-1.7-0.2l1.3,2.5
		l-0.3,2.4l2-0.2l-1.1,0.7l0.4,1.7l0,0l-2.2,1.1l0.5,3.3l-4.1,2.4l0.4,3.4l-1.7,1.3l-4.6,0.2l-4.2-2l-0.2,2.7l-2.2-0.7l-2.2,2.1l0,0
		h-0.9l0,0l-4.7,0.6l-0.5,1.7l-2,1.1l0,0l-1.9,0l-0.1-1.6l-1.7-0.7l1.9-1.9l-0.7-1.9l-6.1-4.1l1.1-1.4l-1.1,0l0.2-1.4l-1.1,0.4
		l-0.4-1.3l-1.2,1.2l-4.1-0.3l-2.9-2.1l2.6-6.5l-3.3-2.3l2.2-1.4l-0.8-1.9l1.4-2.2l-2-0.8l0.4-3.6l-3.1-2.4l2.6-1v-1.3l-0.9-0.7
		l-2.2,0.9l0.6-0.8l-1.2-1.2l1.2-1.5l-1.7-5.9l0,0l0.4-1.1l-1,0.8l-6.5-2l-2-2.5l3.6-8.7l-1.2-1.6l1.3,0.6l2.1-3.3l5.4-2.2l10.4-7
		l7.7-1.2l7.8-3.3l2.5,0.7l2.7-1.2l0.4,1.1l-0.3-1.3l4.5-2.1L272.3,66.8z"/>
	<path id="FR-R" class="st0" d="M121.4,256.7l1.6,1.1l-0.6,2l3.1,1.6l0.3,3.3l-2.4-3.9l-2.2-0.1l-1.6-1.9l-0.3-2L121.4,256.7z
		 M170.7,165.6l2.7,1.2l2-1.8l1.9,1.3l2.6-0.2l1.3,2.8l1.4-0.6l0.8,1.8l1.9-0.9l-0.7-1.5l1.7,0.3l1.1-1.1l0.5,2.6l4.2-1.8l1.7-2.2
		l4.7-0.1l1.8,1.6l1.3-2.4l2.1,0.9l1.2-1.8l-0.3-1.8l1.7,0l2.6,2.2l-1.2,1.1l1.1,3.4l4,0.4l0,4.8l2.1-1.4l2.4,1.2l0.6-1.9l3.6-2.1
		l-0.5-1l6.5-1.4l3.4,3.5l0.4,6.4l3.6,1.4l0.4-0.7l1.9,3.8l4.3,1l0.6-1.9l3.5,4.7l2.5-0.4l0,0l4.9,3.4l-2.7,0.3l-0.4,1.8l-1.2,0.3
		l1.3,0.3l-0.1,1.4l-2.1,0.1l0.1,2.1l1.9,0.5l-1,2.7l1.3,2.8l-1.4,0.5l-0.2,2.7l-0.9-1.4l-1.2,0.7l0.3,4.2l-3.2,3l0.4,1l-3.1,0.9
		l-1.7,2.1l0.4,1.8l1-0.3l-0.9,1.3l-5.5,1.6l-0.6,1.6l-2.7-1.5l-0.8,1.5l1.6,2.5l-0.8,0.5l-6.3-2.1l0,0l0.1,0.5l0,0l-1.6,3.5
		l1.3,0.7l-0.2,1.7l-2.9,6.2l1.2,1.1l-4.4,6.1l-0.9,7.2l0,0l-1.5-0.7l-1.1,0.9l-1.2,4.5l-2.1-0.9l-1.8,2.8l-2.1-1l1.5-2l-1.7-0.3
		l-0.9,0.9l-2.5-0.7l-5.4,0.9l-0.5,1.5l-3.1,0.8l0.9-1.7l-1.5-0.1l-2.6,1.2l0.5,1.9l-2.3,2.2l-3-0.4l-1.8,1.2l-3-1.3l-2.7,2.2
		l-1.8-0.3l1.4,0.8l-0.6,1l1.3,0l-0.5,0.7l2.1,0.8l-1,2.2l2.3,2.7l0,0h0.2l0,0l1.6,1.1l0,0h0.3l0,0l1.1,0.7l-0.8,0.8l0,0l0,0.2l0,0
		l-0.1,2.2l2.6,3.3l-1,0.8l1.8,1.4l-0.9,1.6l1.8,0.9l-0.5,2.8l1,2.6l-1.8,0.7l1.6,3.9l-1.4,3.5l0.9,0.4l0.6-1.3l2.8,1.7l-4.5,4.1
		l-2.1-0.5l-1,1.4l-4.4-2.1l0,0l-0.2-0.3l0,0l-0.8,1.5l-1.5-0.6l-1.9,1l-1.2-0.7l1.3-2.9l-5.1,1.3l-0.9,2l-1.7,0l0,0l-3.6,0.1
		l-0.2,2.7l-4.6-3.8l0.8,2.6l-2-3.1l-5.2,0l-1.9-3.7l-5.6-1l-6.8-4.5l-1.8-7l-3.8-5.3l-8.1-7.5l-0.4-4.1l1.7-0.1l-0.4-1l3.6-3.6
		l0.2-2.5l2.1-1.2l-5-5.2l-6.1-1.1l3.4-2.2l-0.2-5.8l-1.7-0.4l-3.6,2.3l-3.2-2.8l-2.3,1.2l-4.7-1.9l1.5-1.1l0.1-1.8l-2.2-2.2l4.2-3
		l0-1.5l0,0l1.4-1.8l0.9,1.3l3.5-0.3l0.8-3.4l2.2,1.3l2.5-1.1l0.9,1.4l0.3-1.9l2.5-0.7l0.7-7.2l4.5-2.7l0.8,1.4l3.9-2.3l8.3-0.1
		l1.6-3.3l6.2-2.4l-0.2-2l3.8,0.4l1,1.8l4.8,1.4l3.8-11.6l5.8-2.4l-2.4-12.3l0,0l-0.2-0.2l0,0l-0.9-3.9l2.3-3.9l-1.5-5.4
		L170.7,165.6z"/>
	<path id="FR-S" class="st0" d="M282.7,47.7l0.6,0.5l0,0l1,1.4l5.8-2l4.3,3.2l1.6-1.3l0.8,0.6l-1.4,1.4l0.6,0.8l5.4,2.3l0.4,3.3
		l1.8-0.6l0.8,1.2l5-2.5l2.4,1l0.2-1.7l1.1,2.1l2-1.8l1.9,0.3l1.8,2.3l-4.4,2.6l-0.5,2.8l1.8,1.4l2.6-3.3l1.4-0.2l0.8,1.8l0.8-1.9
		l1,0.2l-0.1,1.7l5.3,2.1l0.1-3l0.9,0.1l2.1,0.9l-1.4,4.4l4.6-2.2l0.3,3.7l2.3-1.8l2.1,0.5l1.8-1.1l3.3,0.4l3.2,2.7l3.6-1.3l0.8,1.2
		l2.1-0.1l1.4-1.3l5.3,1.2l2.2-2.4l2.9,1.9l1.9-0.3l0.2-1.6l2.1-1l6.5,2.1l0.6,1.8l3.9-2.2l-0.1,3.3l4.4,1.6l2.3-0.7l0,0l3.7,1.3
		l0,0l-0.6,2.9l1.6,0.6l-0.1,2.3l-2,5.7l1.8,1.5l-2.7,3.7l-2.5,1.3l-0.5,2.9l-3.1-0.3l-0.7,1l2.3,3.2l-1.2,1.7l1.2,1.3l-1.6,1.1
		l1.1,3.9l-1.3,0.5l-0.1,5l-3.2-1.1l-1.5-1.9l-2.8,1.7l-0.2,2.2l-3-0.7l-5.5,2.7l1.4,5l-1,1.4l1.2,1l0.7-0.6l0.7,1.9l1.4-0.3l0,1.4
		l-1.8,1.1l-3.4-0.5l-0.9,1.9l1.5,2.7l-2.1,1.1l-0.1,1.5l2.7-0.4l1.1,1.8l-3.6,3.4l0.5,1.1l-1.2,0.2l-0.1,1.6l-1.8,0.2l-1.8,3.8l0,0
		l-1,0.9l-0.6-1.4l-2.6-0.7l-0.6-3.6l-1.6,1.3l-1-2.6l-1.7,0.6l-0.5-2.1l-3.5-2.5l1-2.4l-2.2-3.5l-2.8-0.7l-0.1,2l-2.4-0.4l-0.9,1.3
		l-0.8-1.3l-4.9,1.4l-1.8-1.7l-3.1,2.3l-4.2-3l-2,1.8l-1.3-2.8l-0.8,1.6l-1.7-0.4l0.6-0.7l-1.8-1.5l-1.1,0.5l0.2-0.8l-2.7-0.8
		l-0.7,0.7l-1.8-2.4l-1.2,1.7l-2.2,0.5l-0.6-1.8l-2,1l-3.7-3l-3.3,2.2l-4.9,0.8L290,123l-2,0.6l-0.8-1.2l0,0l-0.4,0l0,0l0.5-1.9
		l-1.5-0.5l0,0l0.2-2.1l2-0.5l1.3,1.7l0.6-1.8l-1.3-1.1l-0.5-4.7l-1.6-1.7l0.8-0.8l-1.1-0.1l2-3.7l0,0l0.4-0.3l0,0l0.8-2.2l-1.3-0.5
		l-0.6,1.4l-1.1-0.9l1.3-2.2l-2.2-2.8l0,0h0.2l0,0l0.9-2.6l-1-1.3l2.2-3.2l-1.9,0.9l-0.7-0.9l2.5-4.4l1.5,0.1l-2.1-3.4l-0.9-4.6
		l-10.8-9.8l-0.1-2l-3,0.4l0,0l3.1-2.8l2.9-6.4l1.9-0.6l0.8,1.9l3,0.8l1.2-0.9l-6.2-5.6l0.7-5.7L282.7,47.7z"/>
	<path id="FR-T" class="st0" d="M156.7,315.7l3.8,3.2l3.2,0.6l0.1,3.3l2.1,4.1l-1.9,3.6l-1.6-4.8l-4.9-4.3L156.7,315.7z
		 M152.4,303.2l1.5,1.4l-1.9,0.3l0.8,1.5l3.7-1.6l-1.1,1l0.6,0.7l2.5-0.5l4.8,2.8l-2.4,1.2l-6.3-3.5l-3,0l-1.2-2.5L152.4,303.2z
		 M168.8,299.6l1.7,0l0.9-2l5.1-1.3l-1.3,2.9l1.2,0.7l1.9-1l1.5,0.6l0.8-1.5l0,0l0.2,0.3l0,0l4.4,2.1l1-1.4l2.1,0.5l4.5-4.1
		l-2.8-1.7l-0.6,1.3l-0.9-0.4l1.4-3.5l-1.6-3.9l1.8-0.7l-1-2.6l0.5-2.8l-1.8-0.9l0.9-1.6l-1.8-1.4l1-0.8l-2.6-3.3l0.1-2.2l0,0l0-0.2
		l0,0l0.8-0.8l-1.1-0.7l0,0h-0.3l0,0l-1.6-1.1l0,0H183l0,0l-2.3-2.7l1-2.2l-2.1-0.8l0.5-0.7l-1.3,0l0.6-1l-1.4-0.8l1.8,0.3l2.7-2.2
		l3,1.3l1.8-1.2l3,0.4l2.3-2.2l-0.5-1.9l2.6-1.2l1.5,0.1l-0.9,1.7l3.1-0.8l0.5-1.5l5.4-0.9l2.5,0.7l0.9-0.9l1.7,0.3l-1.5,2l2.1,1
		l1.8-2.8l2.1,0.9l1.2-4.5l1.1-0.9l1.5,0.7l0,0l1.1,2.7l2.5-0.4l-0.2,1.1l1.1,0.4l0.8-0.9l0.8,1.4l-0.9,2l2.8-0.8l1,1.8l1.4-0.5
		l0.4,3.2l-0.9,0.5l1.3,3.6l1.7-1.1l3,1.2l2.8-1.8l3.8,0.1l-1.3-3l2.1-0.1l3.1,2l0.5,4.3l3.8,3.2l0.8,3.7l4.1,3.8l0.6,2l-1.5,3.9
		l0.8,1.7l4.3,2l0.2,1.9l3,0l2.1,1.8l0.3,3.5l2.5,0.9l-0.6,1.9l0,0l-0.8,1l0,0l0,0l0,0l-0.9-0.3l-1.1,2.5l-3.4-0.9l-1.8,4.9
		l-4.3-0.5l-2.1,3.4l-2.4,1.1l2.2,4.5l-1.5,0.8l1,1.6l-0.9,2.7l1.8,1.9l1.1-0.8l1.7,1.3l0.9,2.4l-2.7,2.8l-2.9-0.5l0.6,2.9l-1.8,5.4
		l-2.9-0.8l0.1,2.5l-3.5,3.1l0,0l-2.7,4.5l-2.3,0l-0.3,4.8l-2.3,1.6l-0.7,2.2l-2.1,0l-2.1,2.6l-1.2-1l0.6,1.3l-1.7,0.6l-1.2,3.4
		l0.8,4.3l-3.8,2.1l-1.7,3.2l-3.3-1.2l-2,1.4l-1.1,2.2l1,0.7l-1.7,0.8l-0.3,2.4l-1.8-1.4l-2.3,1.9l-2-0.3l-2.8-1.2l-0.9-1.6
		l-1.4,0.3l-1-1.7l-1.1-0.2l-0.9,1.5l-0.7-2.2l0,0l-0.1-0.3l0,0l-1-5.4l-5.8-1.1l-0.9-3l-0.3,1.5l-5-0.4l0,0l-1.6-5.8l-2.7-3.9
		l-6.2-4l-2.2-3.7l-7.6-4.4l-1.1,0.2l0.5,1.2l-0.6-1.2l-0.1-5.5l4.3-1l-1.9-3l2.6-0.3l1.7-2.9l-1.1-2.2l0.9-0.2l-0.2-1.8l-1.5-1.4
		l2.8,0l-2-5.5l-1.7-0.7l0.6-1.2l-1.9-0.6l1-1.1l-2.4,0.7l-1.3-1.1l1.6-2.9l3.7-2.9l-1-2.5L168.8,299.6z"/>
	<path id="FR-U" class="st0" d="M422.3,411.3l0.4,0.5l0,0l2.9,1.8l0,0l0,0.3l0,0l-2,0.9l-1.5,3.9l-4-0.7l-0.6-2.6l1.5-2.7l0,0
		l0.4-0.6l0,0l0.3-0.2l0,0l0.7-0.2l0,0l1.3-1l0,0l0.2,0.4l0,0l0.4,0l0,0L422.3,411.3z M436.9,480.5l1.4-2.4l-1.2-1.4l1.1-0.8
		l-2.7-3.8l-3.4,1.9l-7.4,0.2l-3.3-5.7l-2.1-0.4l-1.1,1.5l0.5-1.4l-1,0.6l-0.9-2l0.7,2.5l-2-1.1l1.4,1.6l-2.3,0.9l1.9-0.1l-0.7,0.7
		l1.8,1.1l1.6-1.4l-3.3,3l-10.6-1.9l-1-1.2l1.4-2.4l-2.4-1.7l-12.6-0.5l0,0l0.4-2.2l3.4-1.6l-0.4-1.5l0.8,1.1l5.3-3.1l0.4-1.3
		l-1.9-0.7l2.5-4.2l2.3-0.6l3.6,1.2l-0.6-2.3l2.3-6.8l-1.1-1.2l7.2-5.5l0-1.4l1.3-0.1l-2.4-4.4l-2.7-0.9l0-6.1l-0.6-1.5l-1.4-0.1
		l-1-3.2l0,0l0-3.4l5.7,1l1.3,5l10-4.6l2,1.7l1.8-1.9l0,0l0.7-0.3l0,0l-0.6,4.8l3.2,1.2l0.8-1.2l2,1.4l2.4-0.4l1.2,0.8l-0.1,2.6
		l2.2,0.2l0.8,1.9l3.6-0.8l2.5-3.4l1.6,1.4l-0.4,1l2,0.2l0.2-1l-1.6-0.5l1.8-1.4l0-4.1h-1.6l-0.4-2l-1.2-0.3l0.9-1.6l-3.4,0.2
		l-1.1-1.2l-1.2,0.8l-2.6-2.1L440,411l2.4,0.3l0.9-1l-1.4-0.6l-0.3-3l6.5,1.6l0.6-1.7l1.5-0.1l-2.8-2.4l2.1-3.9l-0.2-2.3l3.6,0.7
		l0.8-1.3l1.7,0.5l1.7-2.1l-1.3-0.9l1.2-3.1l2.3,0.8l2.8-0.8l1.2-1.2l-1.3-1.4l2.8-1.8l1.6,1.1l3.2-2.8l4.7,0.7l1.8-1.3l2.7,1.1
		l0.1-4.9l-1.5-0.9l0-2.6l-5-1l1.7-6.1l2,0.7l1.6-0.9l1.3,3.1l3.6,1.1l1.5-0.2l-0.3-2.2l1.2-1l1.3,0.6l1.5-1.4l2.2,0.9l0,0l1.8,5.3
		l2.9,0.3l0.3,6.4l4.7,3.2l1.9,0.4l1-1.1l3.6,2.3l-0.9,2l3.2,6.2l-4.7,0.4l0.2,3.4l-4.7,5.2l0.9,2.8l2.9,2.9l-2.3,0.5l-0.2,3.4
		l4.5,4.8l0.5,2.6l7.5,2l3.8,3.5l2.6-0.3l0.6,1.8l2.8,0.2l0.2-1l7.8-1.1l0.8-1.6l2,0.1l-0.7,2.5l2,2.7l-0.4,2.4l-1.8,0.8l-0.4,3.1
		l-3.5,1.9l-0.4,2.6l-2.5,1.3l1.4,5.2l-5.2,3.6l-2.8,0.4l-0.2,2.1l-0.7-1.7l-0.5,1.2l-2.6-0.2l-1.4,2.2l-2.2-0.1l-1.5,3.8l1,2
		l-1,0.6l-1-1.7l-2.5,2l-0.9-0.9l-2.2,0.5l-1.1,1.6l0.8,1l-2.7,3.9l-4.2,1.1l-1.8-0.8l-1.2,4.3l-5.9,4.3l5.1,0.3l-1.3,1.4l0.7,2.5
		l-1.6,0.7l0.2,1.1l-1.1,0.5l-2.5-1.8l-2.7,2.2l-4.6,0.4l-0.9,3.3l-3.7-2l-3.6,0.4l-1.5,2.8l0.2,2.2l-2.5-0.1l1.4-0.9l-0.2-2
		l-4.3,0.1l-0.8-1.6l-3.1,0.2l-0.2-1.3l-1.7,1.3l2.8,2l-2.4-0.6l-1.3,1.8l-1.3-0.2l-1.5-1.1l0.6-2.6l-1.7,0l0.2-1.3l-3.2-0.3l-0.4-2
		l-2.7-0.4l-0.7,1.5l-2.8-3.1l-1.5,1L436.9,480.5z"/>
	<path id="FR-V" class="st0" d="M377,302.1l-0.4,3.7l3.4,0.7l0.7,2l4.7-1.8l3.1,1.5l1.2-1.2l0.8,1l1.2-0.6l-0.2,1.7l1.1,0.1l4-1.8
		l1.4-6.6l2.2-0.1l1.9,1.8l2.7-1.6l2.1,1.7l0.8-2.1l1.8-0.3l1.3,1.6l-1.3,1.2l2.4,1.5l-0.7,2.3l1.6,1.3l0.9-0.2l6.7-20.5l0.4,1.1
		l1.4-0.8l3,1.9l4.6-1.2l0-0.9l1.6,0.8l1.2,2.9l3.3,0.7l0,0l-0.6,2l3.2,1.9l-0.7,0.7l1.8,3.6l0.9-2.2l0.5,2l1.6,0l-0.1,3.1l2.7-0.2
		l4.3-4.6l0.1,1.2l2.8,0.9l0.5,2.9l6-0.2l8.1-9.1l0,0l4.4,3l-2.8,4.9l0.9,2l-6,2.1l-0.6,1.2l1.2,0.9l-1.5,3.2l3.9-1.4l3.2,0.7
		l6.9-5.1l0.6-1.9l-2,0.3l-0.5-3.1l-1.1-0.5l1.3-2.9l11.1-5.8l6.8,0.1l5.7,1.6l-2,4.3l3.9,4.5l-2.5,4.6l-0.3,4l4.2,0.8l-1,4.5l2.5-1
		l4.3,6.6l0.3,1.9l-2,3.1l-3.5,1.9l-3.9,0.2l-0.5,6.6l4.5,4.4l3.5,0.7l-1,3.1l1,4.9l2.3,0.6l-0.2,1.3l2.1,0.1l0.6,2.1l3,1.6
		l-3.2,4.6l1,4.2l-2.7,2.6l-2.8-0.5l-2.3,3l-2.2,0.1l0,1.9l-1.8,0.6l-3.4-1.9l-5.7,2.9l0,0l-2.2-0.9l-1.5,1.4l-1.3-0.6l-1.2,1
		l0.3,2.2l-1.5,0.2l-3.6-1.1l-1.3-3.1l-1.6,0.9l-2-0.7l-1.7,6.1l5,1l0,2.6l1.5,0.9l-0.1,4.9l-2.7-1.1l-1.8,1.3l-4.7-0.7l-3.2,2.8
		l-1.6-1.1l-2.8,1.8l1.3,1.4l-1.2,1.2l-2.8,0.8l-2.3-0.8l-1.2,3.1l1.3,0.9l-1.7,2.1l-1.7-0.5l-0.8,1.3l-3.6-0.7l0.2,2.3l-2.1,3.9
		l2.8,2.4l-1.5,0.1l-0.6,1.7l-6.5-1.6l0.3,3l1.4,0.6l-0.9,1l-2.4-0.3l0.5,2.9l2.6,2.1l1.2-0.8l1.1,1.2l3.4-0.2l-0.9,1.6l1.2,0.3
		l0.4,2h1.6l0,4.1l-1.8,1.4l1.6,0.5l-0.2,1l-2-0.2l0.4-1l-1.6-1.4l-2.5,3.4l-3.6,0.8l-0.8-1.9l-2.2-0.2l0.1-2.6l-1.2-0.8l-2.4,0.4
		l-2-1.4l-0.8,1.2l-3.2-1.2l0.6-4.8l0,0l-0.7,0.3l0,0l-1.8,1.9l-2-1.7l-10,4.6l-1.3-5l-5.7-1l0,3.4l0,0l-6-4.2L400,416l-0.6,3.2
		l-1.8-0.4l-0.1-3.2l-2.7,0.5l-2.9,4.2l-5.3-4.1l-3.4,1l-0.3-4.2l1.2-0.8l-3.4-3.9l-1.5-5.7l-2.1-1.4l-1.7-8.7l0,0l2.6-1.4l1.1-3.4
		l1.6,0.9l-0.2-1.2l0.7,0.8l1.2-0.8l0.3-2.3l5.1,0l2.8-5.3l3.7-0.6l-0.7-2.7l3.5-1l-1.4-2.3l1-1.8l1.1,0.1l0,0v-0.5l0,0l-1-1.8
		l2,0.4l0.5,1.5l0.9-0.5l-0.4-2.5l1.8-3.6l-2.3-3.1l-2,1.1l-1.6-1.1l0.9-1.6l-1.6-1l1.5-1.1l-1.4-1.9l-2.6,0.6l-1.6-1.8l-2.3-0.2
		l-1.4,0.5l0.4,1.1l-3,0.4l-0.4,1.3L382,357l-0.1,1.2l-1.4-2.6l-1.6-0.2l-1.8,2.5l-0.6-3.6l3.1-2.4l0.9-3.5l-2.1-4.9l-4.6-3.2
		l-2-3.5l0.1-2l-3.8-3.9l1.4-1.3l-0.3-3.4l1.6-1l-2.6-2.6l0.3-2.3l3.6-0.2l1.8-1.5l-1.1-3.2l0.7-2.1l-1.2-1.4l0.6-3l-1.7-4.6
		l4.8-2.1l0,0l0.4,0l0,0L377,302.1z M419.6,411.8L419.6,411.8l-0.3,0.2l0,0l-0.4,0.6l0,0l-1.5,2.7l0.6,2.6l4,0.7l1.5-3.9l2-0.9l0,0
		l0-0.3l0,0l-2.9-1.8l0,0l-0.5-0.6l0,0l-0.4,0l0,0l-0.2-0.4l0,0l-1.3,1L419.6,411.8z"/>
</g>
</svg>
